<?xml version="1.0" encoding="UTF-8"?>
<svg width="15px" height="12px" viewBox="0 0 15 12" version="1.1" xmlns="http://www.w3.org/2000/svg" xmlns:xlink="http://www.w3.org/1999/xlink">
    <title>noun_Arrow_2311220</title>
    <g id="SVG-Sheet" stroke="none" stroke-width="1" fill="none" fill-rule="evenodd">
        <g id="Artboard-Copy" fill="#000000" fill-rule="nonzero">
            <g id="Group">
                <path d="M14.4494729,5.39531889 L9.93843722,0.379839009 C9.64799267,0.037549226 9.0739156,0.00706068111 8.73711767,0.30499969 C8.40032538,0.602935913 8.36634699,1.17132074 8.6785218,1.49439009 L11.9384476,5.11668111 L0.845831955,5.11668111 C0.378689098,5.11668111 -4.5112782e-06,5.49094737 -4.5112782e-06,5.95259443 C-4.5112782e-06,6.41426935 0.378689098,6.78850774 0.845831955,6.78850774 L11.9384476,6.78850774 L8.6785218,10.4107988 C8.36634699,10.7338793 8.40856974,11.3012415 8.74536203,11.5991889 C9.08215996,11.8971084 9.64799267,11.8676285 9.93843722,11.5253498 L14.4494729,6.50986997 C14.7440002,6.10436842 14.7205303,5.74032817 14.4494729,5.39531889 L14.4494729,5.39531889 Z" id="Path"></path>
            </g>
        </g>
    </g>
</svg>