<?xml version="1.0" encoding="UTF-8"?>
<svg width="30px" height="25px" viewBox="0 0 30 25" version="1.1" xmlns="http://www.w3.org/2000/svg"
  xmlns:xlink="http://www.w3.org/1999/xlink">
  <title>arrow</title>
  <g id="SVG-Sheet" stroke="none" stroke-width="1" fill="none" fill-rule="evenodd">
    <g id="Artboard-Copy" fill="#000000" fill-rule="nonzero">
      <g id="arrow" transform="translate(0.000000, -0.000000)">
        <g id="Group" transform="translate(0.645933, 0.343324)">
          <path
            d="M27.5853574,10.4227751 L18.9733801,0.733779904 C18.4188951,0.0725382775 17.3229298,0.0136399522 16.6799519,0.589203947 C16.0369848,1.16476256 15.972117,2.26277871 16.5680871,2.88688995 L22.7915817,9.88449761 L1.6147701,9.88449761 C0.722951914,9.88449761 -8.61244019e-06,10.607512 -8.61244019e-06,11.4993301 C-8.61244019e-06,12.3912022 0.722951914,13.1141627 1.6147701,13.1141627 L22.7915817,13.1141627 L16.5680871,20.1117703 C15.972117,20.7359031 16.052724,21.8319438 16.6956911,22.4075239 C17.338669,22.9830502 18.4188951,22.9261005 18.9733801,22.2648804 L27.5853574,12.5758852 C28.1476367,11.7925299 28.1028305,11.0892703 27.5853574,10.4227751 L27.5853574,10.4227751 Z"
            id="Path"></path>
        </g>
      </g>
    </g>
  </g>
</svg>