<?xml version="1.0" encoding="UTF-8"?>
<svg width="30px" height="22px" viewBox="0 0 30 22" version="1.1" xmlns="http://www.w3.org/2000/svg" xmlns:xlink="http://www.w3.org/1999/xlink">
    <title>noun_Mail_4020612</title>
    <g id="SVG-Sheet" stroke="none" stroke-width="1" fill="none" fill-rule="evenodd">
        <g id="Artboard" fill="#000000" fill-rule="nonzero">
            <g id="noun_Mail_4020612" transform="translate(0.000000, -0.000000)">
                <path d="M29.9346405,2.32026144 L29.9346405,17.0261438 C29.9346405,18.5620915 29.1503268,20.2287582 27.6470588,20.2287582 L3.7254902,20.2287582 C2.18954248,20.2287582 0.522875817,18.5294118 0.522875817,17.0261438 L0.522875817,2.32026144 C0.522875817,2.25490196 0.522875817,2.15686275 0.522875817,2.15686275 C0.45751634,1.8627451 0.849673203,1.20915033 0.91503268,1.14379085 C1.50326797,0.392156863 2.64705882,0.0326797386 3.7254902,0.0326797386 L27.6470588,0.0326797386 C28.8235294,0.0326797386 29.5424837,0.522875817 29.8039216,1.40522876 C29.8039216,1.4379085 29.9673203,1.8627451 29.9346405,2.09150327 C29.9346405,2.12418301 29.9346405,2.25490196 29.9346405,2.32026144 Z M2.84313725,1.89542484 L15.2287582,11.7647059 L27.6470588,1.8627451 C27.6470588,1.8627451 27.6470588,1.8627451 27.6797386,1.8627451 L27.6797386,1.8627451 C27.6797386,1.8627451 27.6470588,1.8627451 27.6470588,1.8627451 C27.6470588,1.8627451 27.6470588,1.8627451 27.6470588,1.8627451 C27.6470588,1.8627451 3.1372549,1.8627451 2.84313725,1.89542484 L2.84313725,1.89542484 Z M28.1045752,17.0261438 L28.1045752,3.85620915 C28.1045752,3.85620915 28.1045752,3.85620915 28.1372549,3.85620915 L28.1045752,3.85620915 L28.1045752,3.85620915 L15.8496732,13.6601307 C15.6862745,13.7908497 15.4575163,13.8888889 15.2614379,13.8888889 C15.0326797,13.8888889 14.8366013,13.8235294 14.6732026,13.6601307 L2.41830065,3.85620915 L2.41830065,3.85620915 L2.41830065,3.85620915 L2.41830065,3.85620915 L2.41830065,17.0261438 C2.41830065,17.5163399 3.30065359,18.3986928 3.79084967,18.3986928 L27.6470588,18.3986928 C28.1372549,18.3986928 28.1045752,17.5163399 28.1045752,17.0261438 Z" id="Shape"></path>
            </g>
        </g>
    </g>
</svg>