<svg xmlns="http://www.w3.org/2000/svg" xmlns:xlink="http://www.w3.org/1999/xlink" version="1.1" x="0px" y="0px"
  viewBox="0 0 100 125" xml:space="preserve">
  <g>
    <path
      d="M52.893,19.044l-1.152-0.159c-0.35-0.038-0.705-0.053-1.061-0.067l-0.745-0.039c-0.523-0.037-1.037-0.036-1.561-0.001   l-0.746,0.039c-0.356,0.014-0.712,0.029-1.149,0.071l-1.256,0.139l0.004,0.046C33.916,20.96,25.536,30.759,25.536,42.36   c0,4.733,1.395,9.299,4.04,13.215c1.982,2.885,7.125,11.227,7.125,15.127v4.916c-0.023,0.077-0.048,0.153-0.048,0.237   c0,0.084,0.025,0.16,0.048,0.237v2.961c-0.023,0.077-0.048,0.153-0.048,0.237c0,0.084,0.025,0.16,0.048,0.237v2.961   c-0.023,0.077-0.048,0.153-0.048,0.237c0,0.084,0.025,0.16,0.048,0.237v0.444c0,2.555,1.682,4.701,3.989,5.453   c0.601,3.322,4.149,5.89,8.465,5.89c4.315,0,7.863-2.568,8.464-5.89c2.307-0.752,3.989-2.898,3.989-5.453V70.702   c0-3.895,5.145-12.24,7.131-15.136c2.64-3.908,4.034-8.474,4.034-13.207C72.772,30.695,64.298,20.853,52.893,19.044z    M55.847,86.591H42.462c-1.695,0-3.072-1.334-3.166-3.006h3.37c0.475,0,0.859-0.384,0.859-0.859s-0.384-0.859-0.859-0.859h-3.388   V80.15h3.388c0.475,0,0.859-0.384,0.859-0.859s-0.384-0.859-0.859-0.859h-3.388v-1.718h3.388c0.475,0,0.859-0.384,0.859-0.859   s-0.384-0.859-0.859-0.859h-3.388v-2.147H59.03v2.157c-0.016-0.001-0.03-0.009-0.047-0.009H47.818   c-0.475,0-0.859,0.384-0.859,0.859s0.384,0.859,0.859,0.859h11.165c0.017,0,0.031-0.008,0.047-0.009v1.737   c-0.016-0.001-0.03-0.009-0.047-0.009H47.818c-0.475,0-0.859,0.384-0.859,0.859s0.384,0.859,0.859,0.859h11.165   c0.017,0,0.031-0.008,0.047-0.009v1.737c-0.016-0.001-0.03-0.009-0.047-0.009H47.818c-0.475,0-0.859,0.384-0.859,0.859   s0.384,0.859,0.859,0.859h11.165c0.01,0,0.019-0.006,0.03-0.006C58.922,85.254,57.544,86.591,55.847,86.591z M66.609,54.116   c-0.755,1.1-7.221,10.676-7.548,16.157H39.247c-0.327-5.481-6.791-15.057-7.541-16.149c-2.351-3.479-3.593-7.548-3.593-11.764   c0-10.71,8.016-19.694,18.645-20.899l0.239-0.029c0.242-0.021,0.488-0.03,0.734-0.04l0.82-0.043c0.404-0.027,0.803-0.027,1.209,0   l0.819,0.043c0.208,0.008,0.416,0.016,0.657,0.033l0.317,0.036c10.629,1.206,18.644,10.19,18.644,20.899   C70.196,46.576,68.953,50.644,66.609,54.116z" />
    <path
      d="M49.536,24.754c-9.708,0-17.606,7.898-17.606,17.606c0,0.711,0.577,1.288,1.288,1.288c0.711,0,1.288-0.577,1.288-1.288   c0-8.287,6.742-15.03,15.03-15.03c0.711,0,1.288-0.577,1.288-1.288S50.247,24.754,49.536,24.754z" />
    <path
      d="M49.155,14.447c0.711,0,1.288-0.577,1.288-1.288V6.288C50.443,5.577,49.866,5,49.155,5s-1.288,0.577-1.288,1.288v6.871   C47.866,13.87,48.443,14.447,49.155,14.447z" />
    <path
      d="M85.608,32.483h-6.871c-0.711,0-1.288,0.577-1.288,1.288c0,0.711,0.577,1.288,1.288,1.288h6.871   c0.711,0,1.288-0.577,1.288-1.288C86.896,33.06,86.319,32.483,85.608,32.483z" />
    <path
      d="M73.384,13.255l-4.858,4.858c-0.503,0.503-0.503,1.318,0,1.822c0.252,0.252,0.58,0.377,0.911,0.377   c0.33,0,0.659-0.126,0.911-0.377l4.858-4.858c0.503-0.503,0.503-1.318,0-1.822C74.703,12.751,73.888,12.751,73.384,13.255z" />
    <path
      d="M29.635,20.312c0.33,0,0.659-0.126,0.911-0.377c0.503-0.503,0.503-1.318,0-1.822l-4.858-4.858   c-0.503-0.503-1.318-0.503-1.822,0c-0.503,0.503-0.503,1.318,0,1.822l4.858,4.858C28.976,20.186,29.305,20.312,29.635,20.312z" />
    <path
      d="M20.335,32.483h-6.871c-0.711,0-1.288,0.577-1.288,1.288c0,0.711,0.577,1.288,1.288,1.288h6.871   c0.711,0,1.288-0.577,1.288-1.288C21.623,33.06,21.046,32.483,20.335,32.483z" />
  </g>
</svg>