<?xml version="1.0" encoding="UTF-8"?>
<svg width="100px" height="41px" viewBox="0 0 100 41" version="1.1" xmlns="http://www.w3.org/2000/svg"
  xmlns:xlink="http://www.w3.org/1999/xlink">
  <title>Ebay</title>
  <g id="Artboard-Copy-4" stroke="none" stroke-width="1" fill="none" fill-rule="evenodd">
    <g id="ebay-copy" fill-rule="nonzero">
      <path
        d="M12.9566667,8.76666667 C5.90666667,8.76666667 0.0333333333,11.7633333 0.0333333333,20.7833333 C0.0333333333,27.9333333 3.98333333,32.4333333 13.1366667,32.4333333 C23.9133333,32.4333333 24.6033333,25.3333333 24.6033333,25.3333333 L19.3833333,25.3333333 C19.3833333,25.3333333 18.2633333,29.1566667 12.8166667,29.1566667 C8.38333333,29.1566667 5.19666667,26.1633333 5.19666667,21.9633333 L25.15,21.9633333 L25.15,19.33 C25.15,15.1766667 22.5133333,8.77333333 12.9566667,8.77333333 L12.9566667,8.76666667 Z M12.7733333,12.1333333 C16.9933333,12.1333333 19.8733333,14.7233333 19.8733333,18.6 L5.30666667,18.6 C5.30666667,14.4833333 9.06333333,12.1333333 12.77,12.1333333 L12.7733333,12.1333333 Z"
        id="Shape" fill="#E53238"></path>
      <path
        d="M25.1466667,0.0333333333 L25.1466667,27.9 C25.1466667,29.48 25.0333333,31.7 25.0333333,31.7 L30.0133333,31.7 C30.0133333,31.7 30.1933333,30.1066667 30.1933333,28.65 C30.1933333,28.65 32.6533333,32.4966667 39.3433333,32.4966667 C46.3866667,32.4966667 51.1733333,27.6066667 51.1733333,20.5966667 C51.1733333,14.08 46.7766667,8.83666667 39.3533333,8.83666667 C32.4033333,8.83666667 30.2433333,12.59 30.2433333,12.59 L30.2433333,0.0333333333 L25.1466667,0.0333333333 Z M38.0666667,12.2833333 C42.8533333,12.2833333 45.8933333,15.8333333 45.8933333,20.6 C45.8933333,25.71 42.38,29.05 38.1033333,29.05 C32.9966667,29.05 30.2433333,25.0633333 30.2433333,20.6466667 C30.2433333,16.5266667 32.7133333,12.2833333 38.0666667,12.2833333 L38.0666667,12.2833333 Z"
        id="Shape" fill="#0064D2"></path>
      <path
        d="M63.55,8.76666667 C52.9433333,8.76666667 52.2633333,14.5766667 52.2633333,15.5033333 L57.5433333,15.5033333 C57.5433333,15.5033333 57.82,12.1133333 63.1833333,12.1133333 C66.67,12.1133333 69.3733333,13.71 69.3733333,16.78 L69.3733333,17.87 L63.1833333,17.87 C54.97,17.87 50.6266667,20.27 50.6266667,25.15 C50.6266667,29.95 54.64,32.56 60.06,32.56 C67.4533333,32.56 69.8333333,28.4766667 69.8333333,28.4766667 C69.8333333,30.1 69.96,31.7033333 69.96,31.7033333 L74.65,31.7033333 C74.65,31.7033333 74.47,29.7166667 74.47,28.45 L74.47,17.4766667 C74.47,10.2833333 68.6666667,8.77 63.55,8.77 L63.55,8.76666667 Z M69.3733333,21.1466667 L69.3733333,22.6 C69.3733333,24.5 68.2,29.2233333 61.3033333,29.2233333 C57.5233333,29.2233333 55.9033333,27.3366667 55.9033333,25.15 C55.9033333,21.17 61.36,21.1466667 69.37,21.1466667 L69.3733333,21.1466667 Z"
        id="Shape" fill="#F5AF02"></path>
      <polygon id="Path" fill="#86B817"
        points="71.6266667 9.68 77.5633333 9.68 86.0866667 26.7533333 94.5866667 9.68 99.9666667 9.68 84.48 40.0733333 78.8366667 40.0733333 83.3066667 31.6033333">
      </polygon>
    </g>
  </g>
</svg>