<?xml version="1.0" encoding="UTF-8"?>
<svg width="100px" height="100px" viewBox="0 0 100 100" version="1.1" xmlns="http://www.w3.org/2000/svg" xmlns:xlink="http://www.w3.org/1999/xlink">
    <title>Hawaii Department of Transportation Logo</title>
    <g id="Hawaii" stroke="none" stroke-width="1" fill="none" fill-rule="evenodd">
        <g id="hawaii">
            <path d="M47.7322049,3.46020761 C47.7224826,3.73148789 47.702691,3.97897924 47.6888021,4.20631488 L47.6671007,4.62802768 L49.3381076,4.61721453 C49.2863715,6.1182526 49.1884549,7.4899654 49.0342882,8.73702422 C49.5221354,8.73979239 49.8227431,8.74576125 49.9348958,8.74783737 C50.0602431,8.74991349 50.3321181,8.75700692 50.7595486,8.76946367 C50.7654514,8.4483564 50.7782986,8.02370242 50.8029514,7.50432526 C50.8279514,6.98529412 50.8617188,6.45519031 50.9006076,5.90397924 C50.9283854,5.51920415 50.9720486,5.1032872 51.0199653,4.64965398 L51.2912326,4.64965398 C51.6547743,4.65553633 52.1207465,4.67923875 52.6801215,4.71453287 C52.6818576,4.64740484 52.6847049,4.54359862 52.6909549,4.41176471 C52.6978993,4.28027682 52.6984201,4.11574394 52.7126563,3.91435986 L52.7452257,3.53589965 L52.2352431,3.53589965 L51.2912326,3.51427336 L50.3255208,3.50346021 C49.3366319,3.48754325 48.4749132,3.47716263 47.7322049,3.46020761 Z M53.8736979,3.60077855 C53.8320312,3.91185121 53.7684028,4.32984429 53.6892361,4.85510381 C53.6100694,5.38036332 53.5331597,5.87569204 53.4505208,6.34731834 C53.3678819,6.81894464 53.2878472,7.23477509 53.2118056,7.59083045 C53.1368056,7.94619377 53.0380208,8.34852941 52.9296875,8.79108997 C53.3210069,8.83572664 53.5924479,8.85856401 53.7434896,8.87759516 C53.8726563,8.89385813 54.1582465,8.93633218 54.5898438,8.99653979 C54.6926215,8.27370242 54.8015625,7.53910035 54.9262153,6.79065744 C55.0505208,6.04221453 55.1605035,5.40588235 55.2625868,4.88754325 C55.3934896,4.90103806 55.5111979,4.9116782 55.609809,4.9199827 C55.7077257,4.9282872 55.8009549,4.94065744 55.8919271,4.95242215 C56.1599826,4.98633218 56.3549479,5.03555363 56.4778646,5.09299308 C56.6018229,5.14974048 56.6893229,5.21929066 56.7382812,5.30925606 C56.7868924,5.39956747 56.8067708,5.50268166 56.7925347,5.61202422 C56.7758681,5.74178201 56.7133681,5.86193772 56.6189236,5.96885813 C56.5248264,6.07577855 56.4013021,6.14878893 56.2391493,6.18512111 C56.0769965,6.22110727 55.8973958,6.21980969 55.7074653,6.19593426 C55.5723958,6.17897924 55.4434896,6.15371972 55.3059896,6.10942907 L55.5664062,7.24480969 C55.6455729,7.58702422 55.7011285,7.84524221 55.7400174,8.03416955 C55.759809,8.11963668 55.780816,8.24576125 55.8051215,8.40181661 C55.8669271,8.77551903 55.9117187,9.03183391 55.9353299,9.16955017 C56.362066,9.2183391 56.6704861,9.25415225 56.8576389,9.27768166 C57.0048611,9.29636678 57.2874132,9.33745675 57.7148438,9.3966263 C57.674566,9.24610727 57.6450521,9.14541522 57.6280382,9.09385813 L57.2591146,7.90441176 C57.2125868,7.75596886 57.1677951,7.6032872 57.1289062,7.46107266 L56.9878472,6.95285467 C57.2607639,6.88676471 57.4721354,6.81410035 57.6280382,6.7365917 C57.7849826,6.65942907 57.9282118,6.56401384 58.0403646,6.44463668 C58.1525174,6.32560554 58.2372396,6.18814879 58.3007812,6.04455017 C58.3646701,5.90129758 58.4091146,5.75051903 58.4309896,5.57958478 C58.4507812,5.42698962 58.4420277,5.275 58.4201562,5.13624567 C58.3965451,4.99749135 58.3608681,4.87724913 58.3007986,4.76859862 C58.2407292,4.6599481 58.16,4.56029412 58.0620833,4.46583045 C57.9634722,4.37205882 57.8448958,4.28243945 57.6931597,4.20631488 C57.5403819,4.13053633 57.3646875,4.07621107 57.1723264,4.0333045 C56.9167708,3.97482699 56.6257118,3.92413495 56.2934201,3.88192042 C56.0107813,3.84628028 55.7145139,3.81089965 55.4145139,3.78460208 C55.1152083,3.75795848 54.8626042,3.73555363 54.6549653,3.70891003 C54.4553125,3.68365052 54.1969792,3.64956747 53.8737153,3.60077855 L53.8736979,3.60077855 Z M44.4227431,3.76297578 C43.8026042,3.87128028 43.152691,3.97525952 42.4804688,4.08737024 C41.8134549,4.19913495 41.096875,4.31929066 40.3211806,4.44420415 L40.3862847,4.86591696 C40.4345486,5.14480969 40.5142361,5.68693772 40.625,6.49870242 C40.7354167,7.31046713 40.8151042,7.94619377 40.8637153,8.41262976 C40.8967014,8.72785467 40.927691,9.15423875 40.9613715,9.67776817 C41.4992188,9.58226644 41.8078993,9.52525952 41.8728299,9.51557093 L42.6974826,9.38581315 L42.6757812,9.21280277 L42.5889757,8.70458478 L42.3936632,7.33131488 C42.7940104,7.25103806 43.159809,7.1833045 43.500434,7.12586505 C43.7014757,7.09230104 44.0155382,7.05285467 44.4335938,6.99610727 C44.3867188,6.72517301 44.3355035,6.34446367 44.281684,5.86072664 C43.9115451,5.93062284 43.6267361,5.98235294 43.4461806,6.01211073 L42.827691,6.10942907 L42.2634549,6.19593426 L42.1440972,5.30925606 C42.5684028,5.23347751 42.8266493,5.18321799 42.9144965,5.16868512 L43.6740451,5.03892734 L43.9453125,4.99567474 L44.2165799,4.96323529 L44.5529514,4.90916955 C44.5217014,4.72889273 44.4824653,4.3532872 44.4227431,3.76297578 Z M62.0117188,5.01730104 C61.8398438,5.2100346 61.7155382,5.35856401 61.6210938,5.46064014 L61.2955729,5.8066609 L58.3007812,8.87759516 L57.8342014,9.3317474 C58.2619792,9.44524221 58.5756944,9.52681661 58.7673611,9.58044983 C58.8736111,9.60986159 59.1565104,9.69385813 59.624566,9.82915225 C60.0085937,9.36963668 60.3774306,8.94956747 60.7204861,8.57482699 L62.6193576,9.10467128 C62.6690104,9.71401384 62.6914062,10.2334775 62.6844618,10.6725779 C63.0966146,10.7815744 63.4051215,10.8624567 63.6176215,10.9212803 C63.7099826,10.9475779 63.9746528,11.0224048 64.4097222,11.1483564 L64.3446181,10.5536332 L64.0842014,7.25562284 L63.9756944,5.55795848 C63.6722222,5.47906574 63.3431424,5.3967128 62.9882812,5.29844291 C62.7841146,5.2416955 62.4533854,5.14532872 62.0117188,5.01730104 Z M36.8815104,5.3633218 C36.4783854,5.37508651 36.075,5.45294118 35.6770833,5.57958478 C35.0548611,5.77750865 34.5350694,6.07067474 34.1145833,6.45544983 C33.6934028,6.84126298 33.4202257,7.26756055 33.3007812,7.75302768 C33.1820313,8.23814879 33.2108507,8.75285467 33.3875868,9.28849481 C33.5070312,9.65320069 33.6802083,9.96868512 33.8975694,10.2292388 C34.1152778,10.4897924 34.4003472,10.6926471 34.765625,10.8455882 C35.1302083,10.9985294 35.5271701,11.0648789 35.9483507,11.0510381 C36.3698785,11.0371972 36.7865451,10.9686851 37.2070312,10.8347751 C37.6320313,10.699481 38.0226563,10.5088235 38.3789063,10.2724913 C38.7351563,10.0354671 39.0207465,9.75916955 39.2252604,9.42906574 C39.4294271,9.09896194 39.5461806,8.72863322 39.5833333,8.33693772 C39.6208333,7.94593426 39.5777083,7.54775087 39.4422743,7.1366782 C39.3131076,6.74532872 39.125,6.42128028 38.8888889,6.16349481 C38.6527778,5.90640138 38.362066,5.7116782 38.0099826,5.56877163 C37.6575521,5.42551903 37.2842882,5.35086505 36.8815104,5.3633218 Z M62.5868056,6.36894464 C62.5885417,6.46583045 62.6116319,6.99403114 62.6519097,7.94766436 L61.4800347,7.6232699 L61.9140625,7.14749135 C62.0960069,6.94679931 62.3170139,6.68624567 62.5868056,6.36894464 Z M36.3715278,6.62846021 C36.5032535,6.6202872 36.6336806,6.63408304 36.7621528,6.66089965 C37.0184028,6.71453287 37.2393229,6.83192042 37.4240451,7.01773356 C37.6080729,7.20354671 37.7499132,7.42690311 37.8363715,7.68814879 C37.924566,7.95769896 37.9407118,8.2366782 37.9014757,8.52076125 C37.8618924,8.80519031 37.7498264,9.04705882 37.5651042,9.25605536 C37.3803819,9.46435986 37.1568576,9.61219723 36.8815104,9.69939446 C36.6231771,9.78140138 36.3602431,9.80121107 36.0894097,9.75346021 C35.8185764,9.70570934 35.5898437,9.58702422 35.405816,9.40743945 C35.2221354,9.22854671 35.0897569,9.01782007 35.0043403,8.75865052 C34.9112847,8.47733564 34.8853299,8.18953287 34.9283854,7.90441176 C34.971441,7.61894464 35.0796875,7.36972318 35.2647569,7.1583045 C35.4501736,6.94653979 35.6849826,6.79515571 35.9700521,6.70415225 C36.1052951,6.66124567 36.2398021,6.63663495 36.3715278,6.62846021 Z M67.2960069,6.66089965 L67.0355903,7.20155709 L66.5256076,8.19636678 L65.2126736,10.6185121 L64.7894965,11.3213668 C65.1499132,11.4798443 65.3971354,11.5869377 65.5273438,11.6457612 C65.6818576,11.7163495 65.9084201,11.8205882 66.2000868,11.9593426 L66.8945312,10.5860727 L67.7517361,8.9532872 C67.7607639,9.23287197 67.7746528,9.49342561 67.7951389,9.73183391 C67.8184028,10.1062284 67.850434,10.5050173 67.8927951,10.9212803 L68.0230035,12.1864187 C68.0330729,12.3161765 68.0406076,12.5288062 68.0555382,12.8135813 C68.4531076,12.9890138 68.7643924,13.1220588 68.9886979,13.224481 C69.2574479,13.3473183 69.549809,13.4893599 69.8567535,13.6353806 L70.2690799,12.8027682 L71.7990278,9.98053633 L72.3741146,8.97491349 C71.9876563,8.80432526 71.7497222,8.6983564 71.6688194,8.66133218 C71.4934722,8.58140138 71.2636111,8.475 70.974375,8.33693772 C70.84625,8.60787197 70.5965972,9.09108997 70.2365278,9.78589965 C69.8754167,10.4814014 69.5900868,11.016436 69.3793229,11.3970588 L69.3576215,10.899654 L69.1189063,7.49351211 C68.7508507,7.33157439 68.4742882,7.2067474 68.2725521,7.1150519 C67.9899132,6.98633218 67.6612674,6.83356401 67.2959896,6.66089965 L67.2960069,6.66089965 Z M29.6006944,8.0017301 L29.155816,8.25043253 L28.3311632,8.69377163 L27.4956597,9.15873702 C26.6321181,9.63105536 25.8684028,10.041263 25.2170139,10.391436 C25.3479167,10.6329585 25.4709201,10.8563149 25.5750868,11.0618512 L25.7703993,11.4511246 L27.202691,10.607699 C27.921441,11.9312284 28.5350694,13.1734429 29.0364583,14.3274221 C29.4611111,14.0893599 29.7197917,13.9488754 29.8177083,13.8948962 C29.9274306,13.8353806 30.1676215,13.7059689 30.5447049,13.5056228 C30.3863715,13.225692 30.1909722,12.8531142 29.9479167,12.3918685 C29.7055556,11.9306228 29.4565972,11.4492215 29.2100694,10.9537197 C29.0381944,10.607699 28.8571181,10.2230969 28.6675347,9.80752595 L28.90625,9.67776817 C29.2243056,9.50406574 29.6383681,9.30224913 30.1432292,9.06141869 C30.1098958,9.00190311 30.0639757,8.90942907 30.0021701,8.79108997 C29.9400174,8.67344291 29.865625,8.51929066 29.7743056,8.33693772 L29.6006944,8.0017301 Z M73.9366319,10.2941176 C73.8429236,10.3024221 73.7592014,10.3227509 73.6762153,10.3481834 C73.5102431,10.3990484 73.3605035,10.4783737 73.2313368,10.5752595 C73.1014757,10.6724913 72.9912326,10.7891003 72.905816,10.9212803 C72.8342882,11.0313149 72.7875868,11.1391869 72.7539062,11.2564879 C72.719184,11.3734429 72.6961806,11.4989619 72.6996528,11.6349481 C72.703125,11.7712803 72.7301042,11.9374567 72.7756076,12.1215398 C72.7978299,12.2115052 72.8384549,12.3632353 72.905816,12.575692 L73.187934,13.4948097 C73.2122396,13.5806228 73.2271701,13.6491349 73.2313368,13.7110727 C73.234809,13.7723183 73.2306424,13.8327855 73.2205035,13.8732699 C73.2093924,13.9141003 73.1895312,13.9443772 73.16625,13.9814014 C73.0961111,14.0897059 72.9910764,14.1375433 72.8407292,14.1219723 C72.6914236,14.1053633 72.5122569,14.0372837 72.3198958,13.9165225 C72.1740625,13.825173 72.018941,13.7013841 71.853316,13.5380623 C71.6873437,13.3747405 71.5204167,13.1634083 71.3433333,12.9000865 C71.2009722,13.2007785 70.9953299,13.5886678 70.7248437,14.0679066 C71.2029687,14.5104671 71.6160764,14.8381488 71.9726736,15.0627163 C72.2046181,15.2073529 72.440816,15.3236159 72.6779687,15.408737 C72.915816,15.4942042 73.1570486,15.5429931 73.4049653,15.5384948 C73.6528819,15.5339965 73.879184,15.4716263 74.088559,15.3546713 C74.2975868,15.2373702 74.4721528,15.0737024 74.5985417,14.8788927 C74.6475,14.8027682 74.6803125,14.7275952 74.7070486,14.6518166 C74.7348264,14.5763841 74.7620833,14.4990484 74.7721528,14.4139273 C74.7822222,14.3288062 74.7804861,14.2263841 74.7721528,14.1111592 C74.763125,13.9959343 74.7480903,13.875 74.7178993,13.7435121 C74.6890799,13.6123702 74.6542708,13.4978374 74.6202431,13.3974913 L74.5008854,13.0622837 C74.415816,12.8259516 74.3525347,12.6480104 74.3164236,12.5324394 C74.2789236,12.4165225 74.2529687,12.3154844 74.2404687,12.2296713 C74.2276215,12.1442042 74.231441,12.0764706 74.2404687,12.0242215 C74.2494965,11.9719723 74.2669271,11.9272491 74.2947222,11.8836505 C74.3554861,11.790917 74.4660764,11.7455882 74.6202431,11.7538927 C74.7737153,11.7625433 74.9373437,11.8196367 75.1085243,11.9269031 C75.2300521,12.0030277 75.363125,12.1149654 75.51,12.2512976 C75.656875,12.3879758 75.8045312,12.5519031 75.9548785,12.7595156 C76.1253646,12.4259516 76.2403819,12.1979239 76.3129514,12.067474 C76.3848264,11.9373702 76.4722396,11.7993945 76.5625174,11.6457612 C76.1784896,11.2865917 75.7950694,10.992301 75.4231944,10.759083 C75.2332639,10.6397059 75.0453299,10.5386678 74.8481076,10.4563149 C74.6508854,10.3736159 74.4498437,10.3229239 74.2404687,10.3049308 C74.1364757,10.2961073 74.0303576,10.2858131 73.9366493,10.2941176 L73.9366319,10.2941176 Z M24.0993924,11.0618512 C23.7653646,11.3172145 23.5622396,11.4742215 23.4917535,11.5268166 C23.337934,11.6413495 23.1322917,11.7836505 22.8732639,11.9701557 C23.0559028,12.207872 23.3732639,12.6502595 23.828125,13.2893599 C24.2826389,13.9281142 24.6386285,14.4307958 24.8806424,14.7923875 L24.4249132,14.5761246 L21.2456597,13.1812284 C20.9272569,13.425173 20.6852431,13.6221453 20.5078125,13.7543253 C20.2595486,13.9394464 19.9661458,14.1448097 19.6397569,14.3814879 L20.0086806,14.8680796 L20.6597222,15.7655709 L22.2222222,18.0471453 L22.65625,18.7391869 C22.9673611,18.5007785 23.1811632,18.3377163 23.296441,18.2525952 C23.4311632,18.1519031 23.6317708,18.0083045 23.8932292,17.8200692 L22.9817708,16.5765571 L21.9184028,15.0627163 C22.1743056,15.1855536 22.421441,15.2926471 22.6453993,15.3871107 C22.993316,15.5403979 23.3577257,15.7047578 23.7521701,15.8628893 L24.9565972,16.3386678 C25.078125,16.3902249 25.2684896,16.4777682 25.531684,16.5981834 C25.8740451,16.3358997 26.1391493,16.1386678 26.3346354,15.9926471 C26.5700521,15.8165225 26.8307292,15.6279412 27.1050347,15.4303633 L26.5516493,14.6842561 L24.7287326,12.0350346 L24.0993924,11.0618512 Z M78.0273437,12.6081315 C77.8679687,12.8053633 77.7509549,12.9548443 77.6801215,13.0406574 C77.5867187,13.1544983 77.4938368,13.2641003 77.3980035,13.3758651 L76.4865451,14.4031142 L75.1736111,15.841263 L74.4791667,16.5549308 C74.8190972,16.8206747 75.0342882,16.9848616 75.1193576,17.0523356 L75.7161458,17.5389273 L76.0416667,17.149654 C76.1833333,16.9780277 76.6181424,16.4826125 77.3546007,15.6466263 C77.7577257,15.1874567 78.128125,14.7775952 78.4722222,14.4139273 L78.7434896,14.5977509 C78.8261285,14.6572664 78.9096354,14.7122837 78.9822049,14.7707612 C79.0572049,14.8306228 79.1159722,14.8866782 79.1666667,14.9437716 C79.2177083,15.000519 79.2539931,15.0657439 79.2751736,15.1384083 C79.2956597,15.2114187 79.2963542,15.2844291 79.2751736,15.3546713 C79.2539931,15.4249135 79.2124132,15.4929931 79.155816,15.5601211 C79.0412326,15.6992215 78.8914931,15.7820934 78.7109375,15.7980104 C78.5303819,15.8142734 78.3400174,15.7454152 78.1358507,15.5817474 C78.0382812,15.5038927 77.9507812,15.4111592 77.875434,15.3222318 C77.831684,15.4322664 77.7646701,15.6026817 77.6584201,15.8196367 C77.5528646,16.0358997 77.4678819,16.190917 77.4088542,16.2954152 C77.5321181,16.4348616 77.6473958,16.5538927 77.7560764,16.641436 C78.0543403,16.8798443 78.3702257,17.0355536 78.7000868,17.1172145 C79.0296007,17.1992215 79.3515625,17.1895329 79.6657986,17.0739619 C79.9814236,16.958391 80.2475694,16.7676471 80.46875,16.5008651 C80.5760417,16.3711073 80.6600694,16.2205882 80.7291667,16.0683391 C80.7979167,15.916782 80.8367187,15.766782 80.8485243,15.6141869 C80.8603299,15.4612457 80.8499132,15.3063149 80.8051215,15.1492215 C80.7596354,14.992128 80.6803819,14.8442907 80.5772569,14.7058824 C80.4744792,14.567474 80.2845486,14.3933391 80.0130208,14.1760381 C79.8251736,14.025173 79.5977431,13.8436851 79.3185764,13.6353806 C79.0390625,13.4267301 78.8237847,13.2628893 78.6675347,13.1379758 C78.5057292,13.008218 78.2898437,12.8278547 78.0273437,12.6081315 Z M18.3810764,15.4952422 C17.9512153,15.9301903 17.4513889,16.433564 16.8836806,16.9982699 C16.2680556,17.6107266 15.7474826,18.1280277 15.3103299,18.5553633 L15.5490451,18.7932526 C15.7233507,18.9628028 16.075434,19.3218858 16.5907118,19.8637543 C17.1056424,20.4056228 17.5144097,20.8365052 17.8168403,21.1721453 C18.1189236,21.5070934 18.4895833,21.9366782 18.9236111,22.4480969 L19.3033854,22.0588235 L20.5186632,20.8477509 C21.0533854,20.315917 21.5422743,19.8301903 21.9943576,19.3879758 C21.7155382,19.0879758 21.4553819,18.7905709 21.2022569,18.5012976 C21.0164931,18.7109862 20.8834201,18.8588235 20.8007812,18.9446367 L20.2365451,19.5285467 C19.9483507,19.8268166 19.7552083,20.0190311 19.6614583,20.1124567 L19.3467882,20.4260381 L18.7065972,19.7339965 C19.0083333,19.408391 19.2882813,19.1215398 19.5421007,18.8689446 C19.712934,18.6990484 19.9580729,18.4576125 20.2799479,18.1444637 C19.9677951,17.8081315 19.6967882,17.5177336 19.4769965,17.2685986 C19.0447049,17.7232699 18.7768229,17.9987889 18.6740451,18.1012111 C18.3851563,18.3884083 18.137066,18.6365917 17.9144965,18.8473183 L17.3068576,18.1985294 C17.4960938,17.9957612 17.6380208,17.8486159 17.7300347,17.7551903 C17.8217014,17.6621107 17.9974826,17.4778547 18.2617188,17.2145329 C18.5019965,16.9754325 18.8037326,16.6878893 19.1731771,16.349481 C19.1065104,16.2847751 19.0389757,16.2216263 18.9778646,16.1548443 L18.6957465,15.841263 C18.5638021,15.6987024 18.4887153,15.61609 18.4678819,15.5925606 L18.3810764,15.4952422 Z M82.0203993,17.1712803 C81.8937569,17.1757405 81.7761285,17.1905709 81.6514757,17.2145329 C81.1528646,17.3096886 80.6841146,17.5475779 80.2625868,17.9282007 C79.9757813,18.1877163 79.7618924,18.4685121 79.6115451,18.7716263 C79.4611979,19.0740484 79.3942708,19.4200692 79.4053819,19.8096886 C79.4161458,20.199308 79.5094618,20.5852941 79.6983507,20.9558824 C79.8861979,21.3268166 80.1375868,21.6738754 80.4361979,21.9939446 C80.7389757,22.3178201 81.0677951,22.5848616 81.4344618,22.8049308 C81.8011285,23.025 82.1831597,23.1596886 82.5737847,23.2050173 C82.9633681,23.250692 83.346875,23.2050173 83.7239583,23.0752595 C84.1017361,22.9455017 84.4525174,22.7404844 84.7764757,22.4480969 C85.0844618,22.1698962 85.3092882,21.8679066 85.4492188,21.5506055 C85.5884549,21.2322664 85.6486111,20.8869377 85.6336806,20.5125433 C85.6201389,20.1381488 85.5198785,19.7754325 85.3407118,19.4204152 C85.1618924,19.0653979 84.9404514,18.7391869 84.6571181,18.4364187 C84.2147569,17.9627163 83.7238715,17.6139273 83.1922743,17.3983564 C82.7930556,17.2364187 82.4003299,17.157899 82.0203993,17.1712803 Z M82.6063368,18.663483 C82.7450521,18.6628374 82.8820312,18.6896194 83.0186632,18.7283737 C83.2912326,18.8065744 83.5313368,18.9544118 83.734809,19.1717128 C83.9271701,19.3779412 84.046441,19.6013841 84.1037326,19.8529412 C84.1610243,20.1041522 84.1435764,20.3568339 84.0494792,20.5990484 C83.9546875,20.840917 83.8105035,21.0508651 83.6046007,21.2370242 C83.3927951,21.4280277 83.1462674,21.5652249 82.8667535,21.6479239 C82.5875868,21.7309689 82.3125868,21.7372837 82.0421007,21.658737 C81.7719618,21.5801903 81.5431424,21.4358997 81.3476562,21.2262111 C81.1636285,21.0293253 81.0369792,20.7961073 80.9678819,20.5341696 C80.8987847,20.2722318 80.9010417,20.0160035 80.9895833,19.7772491 C81.0791667,19.5384948 81.2302951,19.3345156 81.4344618,19.1500865 C81.6563368,18.9500865 81.9012153,18.8083045 82.1831597,18.7283737 C82.3239583,18.6884083 82.4676215,18.6641436 82.6063368,18.663483 Z M13.9973958,19.9178201 C13.7342014,20.283564 13.5296007,20.5679066 13.3789062,20.7720588 C13.1580729,21.0724048 12.9296875,21.3710208 12.6953125,21.6803633 C12.8515625,21.8710208 12.9703125,22.0153114 13.0425347,22.1128893 C13.1147569,22.2097751 13.2543403,22.4214533 13.4765625,22.7508651 C13.6987847,23.0802768 13.9110243,23.3705882 14.0950521,23.615917 C14.2790799,23.8615917 14.5028646,24.1525952 14.7677951,24.4809689 C14.2174479,24.2245675 13.8180556,24.0382353 13.5850694,23.9403114 C13.3517361,23.8416955 13.0780382,23.7373702 12.749566,23.615917 C12.4210937,23.4941176 12.1956597,23.4051903 12.0876736,23.3564014 C11.9796875,23.3079585 11.8235243,23.2320934 11.6210937,23.1293253 C11.3499132,23.5061419 11.1474826,23.79109 11.0134549,23.9727509 C10.8519965,24.192128 10.6282118,24.4892734 10.3407118,24.8702422 L11.7404514,26.016436 L13.8237847,27.7897924 L14.4097222,28.3304498 C14.6020833,28.0605536 14.7428819,27.8663495 14.8220486,27.7573529 C14.8803819,27.6784602 15.0184028,27.5007785 15.234375,27.2166955 L14.8328993,26.9139273 L13.1076389,25.5298443 L12.2829861,24.8161765 C12.4333333,24.8881488 12.5368924,24.9402249 12.5976562,24.9675606 C12.6577257,24.9945502 12.7075521,25.0151384 12.749566,25.0324394 L13.8454861,25.4757785 L15.874566,26.3300173 C16.0669271,26.0611592 16.2138021,25.8643599 16.3085937,25.7352941 C16.383941,25.633218 16.5286458,25.4512976 16.7317708,25.1838235 L15.3537326,23.3131488 L14.3663194,21.9831315 C14.5243056,22.0897059 14.6484375,22.1698962 14.7352431,22.2318339 C14.9342014,22.3737024 15.3824653,22.7126298 16.0807292,23.2482699 C16.7789931,23.7842561 17.2155382,24.133737 17.3936632,24.2863322 C17.5617187,24.050692 17.6984375,23.8521626 17.8168403,23.691609 C17.8984375,23.5812284 18.0439236,23.3901384 18.2508681,23.1185121 C18.0421875,22.9762976 17.9061632,22.8711073 17.827691,22.8157439 C17.4509549,22.5468858 16.7605903,22.0441176 15.7769097,21.3019031 C15.2737847,20.9243945 14.6814236,20.465917 13.9973958,19.9178201 Z M87.6519097,22.091263 C87.3873264,22.2663495 87.0318576,22.4954152 86.577691,22.7833045 C86.1231771,23.0705017 85.6803819,23.3441176 85.2647569,23.5942907 C84.8494792,23.8437716 84.491059,24.0537197 84.1688368,24.2322664 C83.8466146,24.4108131 83.4721354,24.6044118 83.062066,24.8161765 C83.2874132,25.1355536 83.4446181,25.3623702 83.5286458,25.4865917 C83.6019097,25.5931661 83.7556424,25.8299308 83.9952257,26.1894464 C84.6157118,25.7887543 85.2612847,25.3801038 85.9157986,24.9783737 C86.5713542,24.5759516 87.1239583,24.250346 87.5868056,23.983564 C87.6628472,24.0887543 87.7356771,24.1760381 87.7929688,24.2538927 C87.8509549,24.3320934 87.9043403,24.4062284 87.9557292,24.4809689 C88.1057292,24.7010381 88.2003472,24.8824394 88.2378472,25.0108131 C88.275,25.1398789 88.2746528,25.250173 88.2378472,25.3460208 C88.2013889,25.4415225 88.1355903,25.5115052 88.0425347,25.5730969 C87.9321181,25.6461073 87.8068576,25.6916955 87.6627604,25.6920415 C87.518316,25.6930796 87.3736111,25.6473183 87.2395833,25.5514706 C87.1045139,25.4556228 86.9888021,25.3294118 86.8815104,25.1730104 C86.805816,25.0615917 86.7319444,24.9358131 86.6753472,24.8053633 L85.9809028,25.7461073 C85.7715278,26.0305363 85.6124132,26.2527682 85.4926215,26.4057093 C85.4408854,26.4773356 85.3577257,26.5657439 85.2539062,26.6868512 C85.0094618,26.9788927 84.8443576,27.183391 84.7547743,27.2923875 C84.9985243,27.6397924 85.1700521,27.8848616 85.2756076,28.0384948 C85.3582465,28.1602941 85.5267361,28.4076125 85.7638889,28.7629758 C85.8517361,28.633564 85.9097222,28.5390138 85.9375,28.4926471 L86.5885417,27.4329585 C86.6708333,27.3007785 86.7547743,27.1776817 86.8381076,27.0544983 L87.1419271,26.6111592 C87.3721354,26.7685986 87.5657118,26.8816609 87.7278646,26.9463668 C87.8907118,27.0107266 88.0613715,27.0395329 88.2269965,27.0436851 C88.3912326,27.0474913 88.5414931,27.0265571 88.6935764,26.9788062 C88.8453125,26.9307093 88.9936632,26.858737 89.1384549,26.7625433 C89.268316,26.6770761 89.3838542,26.5788927 89.4748264,26.4705882 C89.5661458,26.3626298 89.6372396,26.2506055 89.6809896,26.1353806 C89.7250868,26.0191176 89.75,25.9019896 89.7569444,25.7677336 C89.7649306,25.6324394 89.7446875,25.4765571 89.702691,25.3135813 C89.6613715,25.1509516 89.5909722,24.9860727 89.4965278,24.8161765 C89.3722222,24.5884948 89.216059,24.3430796 89.0299479,24.0700692 C88.8712674,23.8375433 88.7078993,23.5951557 88.530816,23.3564014 C88.3530382,23.117301 88.2029514,22.9217993 88.0859375,22.7508651 C87.9737847,22.5865052 87.8276042,22.3618512 87.6519097,22.091263 Z M9.59201389,26.1137543 L9.36414931,26.5570934 L8.93012153,27.3788927 L8.48524306,28.2331315 C8.03211806,29.0967993 7.6375,29.8463668 7.29166667,30.4930796 C7.53576389,30.6224913 7.76232639,30.7465398 7.96440972,30.8607266 L8.34418403,31.0769896 L9.07118056,29.5955882 C10.4173611,30.3073529 11.6248264,31.0064879 12.6953125,31.6933391 C12.9147569,31.2639273 13.0460938,30.991782 13.0967882,30.8931661 C13.1547743,30.7834775 13.2860243,30.5416955 13.4874132,30.1686851 C13.1974826,30.0216263 12.8217882,29.8262111 12.358941,29.5739619 C11.8957465,29.3220588 11.4232639,29.0628028 10.9375,28.7846021 C10.5989583,28.5897924 10.2237847,28.3675606 9.83072917,28.125 L9.9609375,27.8871107 C10.1276042,27.5698097 10.3506944,27.1720588 10.6336806,26.6976644 C10.5729167,26.6665225 10.4913194,26.6214533 10.3732639,26.5570934 C10.2555556,26.4930796 10.1068576,26.4104671 9.92838542,26.308391 L9.59201389,26.1137543 Z M90.874566,26.9463668 C90.6224826,27.0636678 90.3835069,27.1665225 90.1692708,27.2599481 L89.7677951,27.4329585 L90.5598958,28.8819204 C89.1807292,29.5289792 87.8918403,30.0819204 86.6970486,30.525519 C86.9192708,30.9542388 87.0492188,31.2141869 87.0985243,31.3148789 C87.1551215,31.4249135 87.2809896,31.6695502 87.4674479,32.050173 C87.7601562,31.9069204 88.1475694,31.7271626 88.6284722,31.5095156 C89.1083333,31.2911765 89.5997396,31.0710208 90.1150174,30.8499135 C90.4750868,30.6966263 90.877691,30.5318339 91.3085938,30.3633218 L91.4279514,30.6120242 C91.5901042,30.9317474 91.7801215,31.3395329 92.0030382,31.8447232 C92.0644965,31.8142734 92.1622396,31.7706747 92.2851562,31.7149654 C92.4084201,31.658564 92.5618056,31.5911765 92.7517361,31.5095156 L93.109809,31.3581315 L92.8710938,30.9147924 L92.4587674,30.0821799 L92.0247396,29.2387543 C91.5837674,28.3685121 91.2009549,27.6024221 90.874566,26.9463668 Z M7.53038194,31.8663495 C7.46445312,31.8726644 7.3953125,31.8818339 7.33506944,31.8987889 C7.21423611,31.9320069 7.10208333,31.9872837 6.98784722,32.0609862 C6.87326389,32.1353806 6.76015625,32.2343426 6.65147569,32.3637543 C6.54314236,32.4931661 6.4421875,32.6539792 6.35850694,32.8287197 C6.24496528,33.0615917 6.13567708,33.3307093 6.02213542,33.6397059 C5.92560764,33.9030277 5.83098958,34.1686851 5.74001736,34.450692 C5.64939236,34.7320069 5.57248264,34.9709343 5.50130208,35.1643599 C5.43324653,35.350173 5.33723958,35.5895329 5.21918403,35.8888408 C5.51953125,35.9950692 5.91944444,36.1530277 6.42361111,36.3429931 C6.92777778,36.5329585 7.40590278,36.7124567 7.85590278,36.8944637 C8.30555556,37.0764706 8.70217014,37.2416955 9.03862847,37.3918685 C9.37508681,37.5420415 9.75147569,37.7213668 10.1671007,37.9217128 C10.2962674,37.5545848 10.3873264,37.2951557 10.4383681,37.1539792 C10.4824653,37.032872 10.5778646,36.7782007 10.7313368,36.3754325 C10.0351562,36.1204152 9.33211806,35.8461073 8.61545139,35.5644464 C7.89878472,35.2827855 7.29574653,35.0391869 6.80338542,34.8291522 C6.84505208,34.708391 6.88237847,34.5961073 6.91189236,34.5047578 C6.94140625,34.4134083 6.96744792,34.3293253 6.99869792,34.2452422 C7.08967014,33.9974913 7.17647569,33.8205882 7.25911458,33.7153979 C7.34244792,33.6102076 7.43072917,33.5477509 7.53038194,33.5207612 C7.63038194,33.4934256 7.73949653,33.4942042 7.84505208,33.5315744 C7.97005208,33.5765571 8.07430556,33.6559689 8.15972222,33.7694637 C8.24583333,33.8829585 8.28888889,34.0177336 8.28993056,34.1803633 C8.29131944,34.3436851 8.25755208,34.5117647 8.19227431,34.6885813 C8.14644097,34.8141869 8.08914931,34.9445502 8.01866319,35.0670415 L9.20138889,35.0562284 C9.55833333,35.0541522 9.82951389,35.0632526 10.0260417,35.0670242 C10.115625,35.0659862 10.2457465,35.0677163 10.405816,35.0778201 C10.790191,35.0992734 11.0555556,35.1148443 11.1979167,35.1210727 C11.3381944,34.7234948 11.4378472,34.4405363 11.5017361,34.2668339 C11.5524306,34.1291176 11.6545139,33.8523875 11.8055556,33.4558478 C11.6475694,33.4624221 11.5348958,33.4722837 11.4800347,33.477474 L10.2213542,33.5747924 C10.0640625,33.5869031 9.91527778,33.6006574 9.765625,33.6072318 L9.22309028,33.6288581 C9.21579861,33.3534602 9.18984375,33.1357266 9.14713542,32.9692907 C9.10407986,32.8025087 9.03541667,32.6480104 8.94097222,32.5151384 C8.846875,32.3822664 8.73342014,32.2719723 8.60460069,32.1799308 C8.47578125,32.0878893 8.33515625,32.0113322 8.17057292,31.9528547 C8.02369792,31.9006055 7.87925347,31.874654 7.73654514,31.8663495 C7.66536458,31.8621972 7.59631076,31.8600346 7.53038194,31.8663495 Z M88.2161458,33.3044983 C88.3602431,33.7148789 88.4574653,34.0165225 88.5199653,34.2019896 C88.5546875,34.3044118 88.643316,34.5792388 88.7912326,35.0346021 C89.3943576,35.0899654 89.953559,35.1593426 90.4622396,35.2292388 L91.0915799,37.067474 C90.6075521,37.4519031 90.1729167,37.7666955 89.8003472,38.008218 C89.9392361,38.4040657 90.0459201,38.7116782 90.1150174,38.9165225 C90.1455729,39.0064879 90.2267361,39.2603806 90.3645833,39.6842561 L90.8420139,39.2949827 L93.4570312,37.2296713 L94.8242188,36.1807958 C94.7197049,35.8894464 94.6153646,35.5735294 94.4986979,35.2292388 C94.4309896,35.0313149 94.3236111,34.7196367 94.1840278,34.2884948 C93.925,34.2566609 93.7261285,34.2321799 93.5872396,34.2128028 L93.109809,34.1479239 L88.8454861,33.4342561 L88.2161458,33.3044983 Z M91.6992188,35.3157439 L92.3394097,35.391436 C92.6109375,35.4274221 92.9511285,35.4685121 93.3702257,35.5103806 C93.2896701,35.566436 92.8598958,35.8805363 92.0789931,36.4511246 L91.6992188,35.3157439 Z M9.99348958,38.2893599 L9.38585069,38.3974913 L6.07638889,38.9165225 L4.36197917,39.1435986 C4.30503472,39.4474048 4.23958333,39.782699 4.16666667,40.1384083 C4.125,40.3425606 4.05633681,40.658218 3.96050347,41.1007785 C4.16883681,41.2551038 4.32751736,41.3833045 4.43793403,41.4684256 L4.81770833,41.7495675 L8.15972222,44.4528547 L8.64800347,44.8745675 C8.72994792,44.4475779 8.79357639,44.1366782 8.83246528,43.9446367 C8.8546875,43.8384083 8.91553819,43.5477509 9.01692708,43.0795848 C8.52178819,42.7391003 8.0671875,42.4143599 7.66059028,42.1064014 L8.05121528,40.2032872 C8.66579861,40.1067474 9.20043403,40.0474913 9.64626736,40.0194637 C9.72508681,39.607699 9.78767361,39.3012976 9.83072917,39.0895329 C9.85017361,38.9964533 9.89904514,38.724308 9.99348958,38.2893599 Z M95.6163194,38.9489619 C95.3423611,38.9929066 95.0869792,39.0371107 94.8567708,39.0679066 L94.4335938,39.1219723 L94.7699653,40.7331315 C93.2654514,40.9760381 91.8751736,41.1465398 90.6032986,41.2413495 C90.6963542,41.7129758 90.7585069,41.9987889 90.7769097,42.1064014 C90.7994792,42.2275087 90.8471354,42.5021626 90.9179688,42.9173875 C91.2384549,42.8602941 91.6544271,42.7894464 92.1766493,42.7119377 C92.6985243,42.6344291 93.2368056,42.5554498 93.7934028,42.4848616 C94.1815972,42.4360727 94.6133681,42.3980104 95.0737847,42.3551038 L95.1171875,42.6146194 C95.1824653,42.9668685 95.2497396,43.4192042 95.3233507,43.966263 C95.3907118,43.9544983 95.4938368,43.9430796 95.6271701,43.9230104 C95.7605035,43.9032872 95.9329861,43.8739619 96.1371528,43.8473183 L96.5169271,43.8040657 L96.4192708,43.317474 L96.2565104,42.3983564 L96.0720486,41.4684256 C95.8949653,40.5120242 95.74375,39.6686851 95.6163194,38.9489619 Z M6.87934028,40.2573529 L6.640625,41.4359862 L6.11979167,41.0467128 C5.90208333,40.883391 5.62769097,40.6820069 5.28428819,40.4411765 C5.38255208,40.4318339 5.91336806,40.3715398 6.87934028,40.2573529 Z M4.67664931,44.4852941 C4.59279514,44.4914533 4.51006944,44.5007612 4.42708333,44.5177163 C4.26145833,44.5519723 4.11484375,44.6111419 3.98220486,44.6907266 C3.84921875,44.7706574 3.72760417,44.8766263 3.62413194,45.004308 C3.52100694,45.1323356 3.43993056,45.2742042 3.38541667,45.4368339 C3.33159722,45.5998097 3.29774306,45.8498097 3.27690972,46.1937543 C3.26302083,46.4325087 3.25303819,46.7253287 3.24435764,47.0696194 C3.23602431,47.4142561 3.22361111,47.6826817 3.21180556,47.8806055 C3.19930556,48.0854498 3.18567708,48.3643426 3.15755208,48.7024048 C3.41345486,48.7148616 3.59878472,48.7178028 3.7109375,48.7240311 C3.85989583,48.7326817 4.00720486,48.7457266 4.15581597,48.7564533 L5.53385417,48.8753979 L7.48697917,49.0916609 L8.48524306,49.2214187 C8.50572917,48.7951211 8.52204861,48.5281661 8.52864583,48.4212457 L8.58289931,47.6535467 L8.07291667,47.6319204 C7.84861111,47.6194637 7.17447917,47.566955 6.0546875,47.4697232 C5.44045139,47.417128 4.88506944,47.3586505 4.38368056,47.2967128 L4.37282986,46.9723183 C4.37387153,46.8719723 4.37777778,46.7730969 4.38368056,46.6803633 C4.38888889,46.5855536 4.39887153,46.5050173 4.41623264,46.4316609 C4.43359375,46.3579585 4.46631944,46.2853806 4.51388889,46.2262111 C4.56180556,46.1673875 4.62786458,46.1318339 4.69835069,46.1072664 C4.76883681,46.083045 4.84921875,46.0696367 4.93706597,46.0748443 C5.11901042,46.0848789 5.26354167,46.1568512 5.38194444,46.2911073 C5.50069444,46.4246713 5.54878472,46.6165398 5.53385417,46.8750173 C5.52690972,46.9982007 5.50876736,47.1207785 5.47960069,47.2318512 C5.59696181,47.2027855 5.78151042,47.1659343 6.02213542,47.1237197 C6.26310764,47.0815052 6.44383681,47.0507093 6.56467014,47.0372145 C6.60737847,46.8569377 6.63263889,46.6998443 6.640625,46.561436 C6.66284722,46.1846194 6.61440972,45.8449135 6.48871528,45.5341869 C6.36302083,45.2231142 6.16059028,44.9711246 5.88107639,44.7880796 C5.6015625,44.6046886 5.28671875,44.5057266 4.93706597,44.4853114 C4.85234375,44.4804671 4.76050347,44.4791522 4.67664931,44.4853114 L4.67664931,44.4852941 Z M96.5603299,44.8096886 L96.0611979,44.8637543 C94.9337674,44.95891 93.3147569,45.0188581 91.2109375,45.0475779 C91.2574653,45.5226644 91.2957465,45.8350346 91.3085938,45.9883218 L91.3628472,46.7776817 C91.8107639,46.7399654 92.3553819,46.6964533 92.9904514,46.658737 C93.6255208,46.6210208 94.3092882,46.5866782 95.0412326,46.5614187 C95.5665799,46.5458478 96.1219618,46.5425606 96.7122396,46.5397924 C96.6653646,46.0588235 96.6421875,45.7767301 96.6362847,45.7071799 C96.6234375,45.5563149 96.5943576,45.2584775 96.5603299,44.8096886 Z M93.8042535,47.7076125 C93.5247951,47.7224913 93.2646701,47.7733564 93.0230035,47.8589965 C92.700434,47.9724913 92.4019965,48.1776817 92.1332465,48.4645329 C91.8638021,48.7513841 91.665625,49.0858131 91.5364583,49.4809689 C91.4083333,49.8761246 91.3434896,50.2902249 91.3302951,50.724481 C91.3167535,51.1635813 91.3640451,51.5907439 91.4713542,52.0004325 C91.5776042,52.4101211 91.7551215,52.759083 92.0030382,53.0601211 C92.2492188,53.3601211 92.552691,53.5972318 92.9144965,53.7629758 C93.2769965,53.9294118 93.6803819,54.0201557 94.1189236,54.0333045 C94.5373264,54.0457612 94.9,53.9823529 95.2256944,53.849481 C95.5513889,53.7183391 95.8490451,53.5217993 96.1046007,53.2439446 C96.3601563,52.9657439 96.5448785,52.6371107 96.6688368,52.2599481 C96.7927951,51.8831315 96.8625,51.4815744 96.875,51.0705017 C96.8944444,50.4286332 96.7881076,49.849654 96.5603299,49.3295848 C96.3335938,48.8098616 96.0080729,48.4138408 95.5837674,48.1401384 C95.1594618,47.866782 94.6690972,47.7245675 94.0972222,47.7076125 C93.9998264,47.7048443 93.8974063,47.7026644 93.8042535,47.7076125 Z M94.0646701,49.3728374 C94.3639757,49.3811419 94.6411458,49.4531142 94.9001736,49.5891003 C95.1581597,49.7250865 95.3570312,49.9192907 95.4969618,50.1621972 C95.6368924,50.4047578 95.7013021,50.6780277 95.6922743,50.9731834 C95.683941,51.2527682 95.612066,51.5006055 95.4752604,51.7192907 C95.3374132,51.9390138 95.1502604,52.0979239 94.9110243,52.2058824 C94.671441,52.3148789 94.408941,52.3652249 94.1297743,52.3572664 C93.8429687,52.3482699 93.5739583,52.2836505 93.3159722,52.1518166 C93.0569444,52.0199827 92.856684,51.8307093 92.719184,51.5895329 C92.5813368,51.3483564 92.5155382,51.0846021 92.5238715,50.800173 C92.5322049,50.533045 92.6040799,50.2778547 92.7408854,50.0432526 C92.877691,49.8086505 93.071441,49.6447232 93.3051215,49.5350346 C93.5377604,49.425 93.787934,49.3645329 94.0646701,49.3728374 Z M7.29166667,50.1405709 C7.32847222,50.4166955 7.34635417,50.6176471 7.35677083,50.7352941 L7.43272569,51.5354671 C7.46744792,51.9458478 7.48914931,52.2153114 7.49782986,52.3464533 L7.53038194,52.7897924 L6.57552083,52.8005882 C6.52760417,52.362526 6.490625,51.9651211 6.46701389,51.6111419 C6.45104167,51.3720415 6.42621528,51.0281834 6.40190972,50.5838927 C5.93836806,50.5908131 5.54409722,50.5988754 5.20833333,50.5946886 C5.26666667,51.2147578 5.29626736,51.5976298 5.30598958,51.7408824 C5.33307292,52.1446886 5.35894097,52.4971107 5.37109375,52.8005709 L4.47048611,52.8113668 C4.44201389,52.5376644 4.41545139,52.3352422 4.40538194,52.2058304 C4.39600694,52.0757266 4.38697917,51.8285813 4.36197917,51.4597232 C4.33975694,51.123391 4.31987847,50.7022837 4.30772569,50.2053979 C4.21432292,50.2116263 4.11692708,50.2155017 4.02560764,50.2161938 L3.60243056,50.2269896 C3.40625,50.2290657 3.28680556,50.2276817 3.25520833,50.2269896 L3.125,50.2269896 C3.17048611,50.8321799 3.22413194,51.5320069 3.27690972,52.3247405 C3.33489583,53.1849481 3.38255208,53.9135813 3.41796875,54.5198097 L3.76519097,54.4981834 C4.01032986,54.4826125 4.50772569,54.4631488 5.26258681,54.4441176 C6.01710069,54.4247405 6.61875,54.4116955 7.07465278,54.4116955 C7.53090278,54.4116955 8.10043403,54.4230104 8.77821181,54.4441176 L8.73480903,53.9034602 L8.61545139,52.2057958 C8.56545139,51.458391 8.53255208,50.767474 8.49609375,50.1404844 C8.08359375,50.1463668 7.67916667,50.1467128 7.29166667,50.1404844 L7.29166667,50.1405709 Z M91.2326389,54.5847751 C91.1625,54.966782 91.1081597,55.2357266 91.0807292,55.3741349 C91.0484375,55.5378028 91.0070312,55.7760381 90.9396701,56.0878028 L92.4587674,56.4121972 L94.2708333,56.8447232 C93.9975694,56.9201557 93.7421875,56.9956747 93.5112847,57.0717993 C93.1477431,57.1856401 92.7726562,57.3101211 92.3719618,57.4502595 L91.1458333,57.8827855 C91.0211806,57.924308 90.8159722,57.98391 90.5381944,58.066609 C90.4597222,58.4863322 90.4009549,58.8132353 90.3537326,59.0506055 C90.296441,59.3357266 90.2282118,59.6430796 90.1584201,59.9697232 L91.0807292,60.1643599 L94.2274306,60.9537197 L95.3559028,61.267301 C95.4326389,60.8572664 95.4802951,60.6073529 95.4969618,60.5211938 C95.5341146,60.3346886 95.5815104,60.0847751 95.6488715,59.7750865 C95.3513021,59.7179931 94.8148437,59.5961073 94.0429688,59.4182526 C93.2710937,59.2400519 92.6786458,59.0961073 92.2526042,58.9857266 L92.7300347,58.8559689 L96.0394965,57.8070934 C96.1110243,57.4181661 96.1700521,57.1133218 96.2131076,56.8987889 C96.2731771,56.5984429 96.3467882,56.250346 96.4301215,55.8607266 L95.8333333,55.7525952 L94.7374132,55.4930796 L92.0247396,54.8226644 L91.2326389,54.5847751 Z M6.81423611,55.5579585 C6.534375,55.5524221 6.24626736,55.5755017 5.95703125,55.6336505 C5.66258681,55.6942042 5.38298611,55.7910035 5.12152778,55.9256055 C4.86006944,56.0605536 4.64618056,56.2215398 4.47048611,56.4121972 C4.29444444,56.6032007 4.16180556,56.8257785 4.07986111,57.0717993 C3.99826389,57.3181661 3.97005208,57.566782 3.98220486,57.8287197 C3.99505208,58.0916955 4.03072917,58.399308 4.1015625,58.7370242 C4.16371528,59.0314879 4.23663194,59.3452422 4.31857639,59.6777682 C4.40086806,60.0102941 4.47048611,60.2821799 4.51388889,60.4887543 C4.55902778,60.7025952 4.60043403,60.9487889 4.65494792,61.2456747 L5.11067708,61.1591696 C5.38463542,61.1038062 5.83862847,61.0166955 6.47786458,60.9104671 C7.31397569,60.7710208 7.99982639,60.6621972 8.52864583,60.5860727 C8.88350694,60.5355536 9.35460069,60.4868512 9.95008681,60.4238754 C9.87439236,60.1027682 9.81684028,59.8653114 9.78732639,59.7210208 L9.48350694,58.1963668 C9.4109375,57.8513841 9.33229167,57.5429931 9.24479167,57.2772491 C9.16493056,57.0388408 9.08177083,56.8576125 9.00607639,56.7257785 C8.93003472,56.5949827 8.83541667,56.4694637 8.72395833,56.3473183 C8.575,56.1833045 8.41024306,56.0384083 8.22482639,55.9256055 C8.03940972,55.8121107 7.83333333,55.7307958 7.59548611,55.66609 C7.35763889,55.6010381 7.09479167,55.5638408 6.81423611,55.5579585 Z M6.72743056,57.2123702 C6.85282118,57.2059343 6.98081597,57.2113322 7.10720486,57.2231661 C7.35963542,57.2480796 7.57491319,57.3176298 7.75824653,57.4394291 C7.94192708,57.5605363 8.08203125,57.7242042 8.17057292,57.9152076 C8.25911458,58.1072491 8.32256944,58.3295675 8.37673611,58.5856228 C8.40833333,58.7357958 8.43706597,58.8773183 8.45269097,59.0181488 L5.46875,59.4939273 C5.39895833,59.2517128 5.34418403,59.0480796 5.30598958,58.8667647 C5.24105903,58.5574221 5.22934028,58.2955709 5.2734375,58.0990311 C5.31788194,57.9028374 5.43454861,57.730173 5.62065972,57.58 C5.80711806,57.4287889 6.05329861,57.3287024 6.35850694,57.2664187 C6.48298611,57.2411592 6.60203993,57.2187958 6.72743056,57.2123529 L6.72743056,57.2123702 Z M9.97178819,67.9282007 C9.18880937,67.9282007 8.55034722,68.5531453 8.55034722,69.3230969 C8.55034722,70.0930484 9.18880937,70.7179931 9.97178819,70.7179931 C10.754767,70.7179931 11.3823785,70.0930484 11.3823785,69.3230969 C11.3823785,68.5531453 10.754767,67.9282007 9.97178819,67.9282007 Z M89.9197049,67.9282007 C89.1367257,67.9282007 88.4982639,68.5531453 88.4982639,69.3230969 C88.4982639,70.0930484 89.1367257,70.7179931 89.9197049,70.7179931 C90.702684,70.7179931 91.3411458,70.0930484 91.3411458,69.3230969 C91.3411458,68.5531453 90.702684,67.9282007 89.9197049,67.9282007 Z M84.1796875,74.8486159 C83.8779514,75.2309689 83.7036458,75.4542388 83.6588542,75.508218 C83.5637153,75.6272491 83.3733507,75.8608997 83.0837674,76.2110727 L83.4852431,76.5138408 C84.3723958,77.2055363 85.5915799,78.250692 87.1419271,79.649654 C87.440191,79.2714533 87.6299479,79.025 87.7278646,78.9035467 L88.2378472,78.2871972 C87.8861111,78.0128028 87.4684028,77.6819204 86.9791667,77.2815744 C86.4909722,76.8801903 85.9666667,76.4384948 85.4166667,75.9623702 C85.0229167,75.6191176 84.6116319,75.2451557 84.1796875,74.8486159 Z M16.4930556,76.5138408 C16.3190972,76.517301 16.1568576,76.5432526 16.0047743,76.600346 C15.8523437,76.6584775 15.7125868,76.7452422 15.5924479,76.8490484 C15.4924479,76.9352076 15.4085069,77.0267301 15.3428819,77.1301903 C15.2769097,77.2339965 15.2263889,77.3454152 15.1909722,77.4762111 C15.1555556,77.609083 15.1342014,77.7728374 15.1258681,77.9628028 C15.1217014,78.0551903 15.1220486,78.2153979 15.1258681,78.4385813 L15.1367187,79.4009516 C15.1363715,79.4902249 15.1289062,79.567474 15.1150174,79.6280277 C15.1007812,79.6878893 15.0826389,79.7322664 15.0607639,79.7685986 C15.0388889,79.8038927 15.0076389,79.8368512 14.9739583,79.865917 C14.8753472,79.9513841 14.7554687,79.9652249 14.6158854,79.9091696 C14.4763021,79.8527682 14.3325521,79.742128 14.1818576,79.5739619 C14.0679687,79.4459343 13.9586806,79.2789792 13.8454861,79.0765571 C13.7329861,78.8734429 13.6256076,78.6213668 13.530816,78.3196367 C13.3085937,78.5691176 13.0043403,78.8846886 12.6085069,79.2711938 C12.9418403,79.8275952 13.2418403,80.266436 13.5199653,80.5795848 C13.7008681,80.7820069 13.8908854,80.9508651 14.0950521,81.0986159 C14.2999132,81.2453287 14.528559,81.3589965 14.7677951,81.4230104 C15.0073785,81.4866782 15.2390625,81.4884948 15.4730903,81.4338062 C15.7074653,81.3784429 15.9144965,81.2728201 16.0915799,81.1202249 C16.1603299,81.0607093 16.2176215,81.0014533 16.265191,80.9364014 C16.3131076,80.8710035 16.3617187,80.7990311 16.3953993,80.7201384 C16.4290799,80.6412457 16.4582465,80.5416782 16.4822049,80.4281834 C16.5061632,80.3146886 16.5169271,80.1951384 16.5256076,80.0605363 C16.5346354,79.9262803 16.540625,79.7991176 16.5364583,79.6928893 L16.5147569,79.3468685 C16.5001736,79.0956574 16.4951389,78.9067301 16.4930556,78.7845848 C16.4909722,78.6638235 16.4917708,78.5571626 16.5039062,78.4710035 C16.516059,78.3855363 16.5345486,78.3237716 16.5581597,78.2763668 C16.5817708,78.2286159 16.6162326,78.1808651 16.655816,78.146609 C16.7405382,78.0735986 16.8572049,78.0636505 17.0030382,78.1141869 C17.1492187,78.1643599 17.2806424,78.2657439 17.4153646,78.416955 C17.5101562,78.5238754 17.6167535,78.6670415 17.719184,78.8386678 C17.8216146,79.0113322 17.9155382,79.2138408 18.0013021,79.4550173 C18.2582465,79.1823529 18.4375868,78.9874567 18.5438368,78.8819204 C18.6500868,78.7770761 18.7717014,78.6692042 18.9019097,78.5467128 C18.6352431,78.0955017 18.3577257,77.7055363 18.0664062,77.3788927 C17.9184896,77.2121107 17.7552951,77.0593426 17.5889757,76.9247405 C17.4226562,76.7915225 17.2415799,76.6967128 17.046441,76.6219723 C16.8513021,76.5472318 16.6677083,76.5103806 16.4930556,76.5138408 Z M82.3784722,77.032872 C82.0527778,77.3937716 81.872309,77.6088235 81.8250868,77.6600346 C81.7212674,77.7717993 81.5068576,77.9905709 81.1957465,78.3196367 L81.5755208,78.6440311 C82.4140625,79.392128 83.5634549,80.5184256 85.015191,82.0177336 C85.3374132,81.6602941 85.5498264,81.4294118 85.6553819,81.3148789 L86.1979167,80.7309689 C85.8645833,80.433391 85.4647569,80.0717128 85.0043403,79.6388408 C84.5432292,79.2066609 84.0565104,78.733045 83.5394965,78.2223183 C83.1690104,77.8531142 82.7822917,77.4560554 82.3784722,77.032872 Z M19.4986979,79.1198097 C19.3087674,79.3180796 19.1305556,79.4978374 18.9670139,79.6604671 L18.6631944,79.9632353 L19.921875,81.0445502 C18.8763889,82.1383218 17.8777778,83.1040657 16.9270833,83.942474 C17.2927083,84.2618512 17.5157986,84.4516436 17.5998264,84.5263841 C17.6925347,84.6094291 17.9040799,84.8018166 18.218316,85.0886678 C18.4377604,84.8519896 18.7302083,84.5442907 19.0972222,84.1695502 C19.4635417,83.7951557 19.8386285,83.4133218 20.2365451,83.0233564 C20.5150174,82.7520761 20.8301215,82.457526 21.1697049,82.1474913 L21.3758681,82.3313149 C21.6453125,82.5717993 21.9776042,82.8820934 22.3741319,83.2720588 C22.4203125,83.2222318 22.4865451,83.1512976 22.5802951,83.0557958 C22.6733507,82.9606401 22.7925347,82.8415225 22.9383681,82.6989619 L23.2096354,82.4394464 L22.8298611,82.1042388 L22.1354167,81.4770761 L21.4192708,80.8391003 C20.6869792,80.1854671 20.0452257,79.6149654 19.4986979,79.1198097 Z M79.2534722,80.2443772 C79.0215278,80.4523356 78.7706597,80.674308 78.4939236,80.9147924 C78.3355903,81.0521626 78.0826389,81.2684256 77.734375,81.5635813 C77.8052083,81.8096021 77.8508681,82.0038062 77.8862847,82.1366782 L78.0164931,82.5908304 L79.0147569,86.7322664 L79.1449653,87.3594291 C79.4734375,87.0684256 79.7135417,86.850173 79.8611111,86.7214533 C79.94375,86.650173 80.1651042,86.4601211 80.5338542,86.1483564 C80.3491319,85.5815744 80.1897569,85.0564879 80.0564236,84.5696367 L81.5429688,83.282872 C82.090191,83.5724913 82.5501736,83.8401384 82.9210069,84.083045 C83.2383681,83.8017301 83.4823785,83.5876298 83.6480035,83.4450692 C83.7205729,83.3820934 83.9234375,83.2065744 84.2664931,82.9152249 L83.7239583,82.6448962 L80.7617188,81.0769896 L79.2534722,80.2443772 Z M79.1992188,81.8230969 C79.2828993,81.8739619 79.7425347,82.1429931 80.5772569,82.6232699 L79.6657986,83.4126298 L79.4921875,82.8070934 C79.4206597,82.5482699 79.3221354,82.2179066 79.1992188,81.8230969 Z M75.6184896,83.4775087 C75.3730035,83.6245675 75.1457465,83.7599481 74.9457465,83.8775952 C74.7690104,83.9820934 74.5455729,84.1094291 74.2730035,84.2668685 L74.4791667,85.0237889 L74.8372396,86.5376298 C74.9080729,86.8435121 74.9529514,87.04109 74.9782986,87.1431661 C75.0036458,87.2448962 75.0278646,87.3480104 75.0542535,87.4459343 L75.2278646,88.008218 L73.8498264,86.407872 L72.797309,85.1427336 C72.5125868,85.31609 72.2469618,85.4717128 72.016059,85.607699 C71.8021701,85.7339965 71.5452257,85.8860727 71.234809,86.0618512 L71.6796875,87.4026817 L72.2113715,89.1652249 L72.3741319,89.6950692 C72.0522569,89.324481 71.7716146,89.0180796 71.5386285,88.7651384 L70.453559,87.5973183 C70.3157118,87.4506055 70.1037326,87.207872 69.8242187,86.8836505 C69.5662326,87.041436 69.3378472,87.1786332 69.140625,87.2945502 C68.9652778,87.3973183 68.73125,87.532699 68.4461806,87.6946367 L69.1514757,88.4083045 L71.2131076,90.5601211 C71.4256076,90.7857266 71.5868056,90.9629758 71.7013889,91.0899654 L72.1896701,91.6306228 C72.5125868,91.433737 72.7873264,91.2733564 73.0251736,91.133218 C73.2494792,91.0013841 73.5302083,90.8306228 73.8715278,90.6358131 L73.2421875,88.3866782 C73.2022569,88.250692 73.1634549,88.1184256 73.1228299,87.9865917 L72.9275174,87.4026817 C73.0792535,87.6012976 73.1902778,87.7522491 73.2638889,87.8460208 C73.3371528,87.9387543 73.4072917,88.0200692 73.4809028,88.1055363 L74.7395833,89.5112457 L75.0976562,89.9221453 C75.4153646,89.7280277 75.7007812,89.5483564 75.9657118,89.392301 C76.2171007,89.2448962 76.5162326,89.0782007 76.8554687,88.884083 L76.6493056,88.0947232 L75.6184896,83.4775087 Z M25.3472222,83.9208478 C25.1222222,84.0506055 24.9377604,84.1449827 24.8155382,84.2128028 L24.4032118,84.4398789 L20.5729167,86.4294983 L19.9869792,86.699827 C20.3550347,86.9396194 20.6256944,87.1196367 20.7899306,87.2296713 C20.8805556,87.2902249 21.1186632,87.4544118 21.5169271,87.7270761 C22.030816,87.4111592 22.5131944,87.1317474 22.9600694,86.8836505 L24.5985243,87.9757785 C24.449566,88.5695502 24.3012153,89.0757785 24.1536458,89.4896194 C24.5085069,89.7207612 24.775,89.8973183 24.9565972,90.0194637 C25.0368056,90.0724048 25.2690104,90.2307958 25.640191,90.4844291 L25.7703993,89.8897059 L26.5733507,86.6890138 L27.0182292,85.0454152 C26.7557292,84.8765571 26.4767361,84.6872837 26.171875,84.4831315 C25.996875,84.3661765 25.7246528,84.1796713 25.3472222,83.9208478 Z M25.4557292,85.3806228 C25.4265625,85.4726644 25.278559,85.9775087 25.0108507,86.8944637 L24.0017361,86.2132353 L24.5551215,85.899654 C24.7929688,85.7657439 25.0967014,85.5968858 25.4557292,85.3806228 Z M29.0256076,86.2781142 C28.8985243,86.5210208 28.7796875,86.7471453 28.6675347,86.9485294 L28.4613715,87.3161765 L29.9804688,88.008218 C29.283941,89.3438581 28.5945312,90.5442907 27.9188368,91.6089965 C28.359809,91.816263 28.6315972,91.9393599 28.7326389,91.9874567 C28.8454861,92.041436 29.0990451,92.1644464 29.4813368,92.3551038 C29.625434,92.0672145 29.8207465,91.7008651 30.0672743,91.2413495 C30.3141493,90.7821799 30.5647569,90.307526 30.8376736,89.824827 C31.0286458,89.4881488 31.2505208,89.1240484 31.4887153,88.732699 L31.7382812,88.8516436 C32.0653646,89.0094291 32.4639757,89.2204152 32.953559,89.4896194 C32.9837674,89.4294118 33.0317708,89.3470588 33.0946181,89.2301038 C33.1578125,89.1124567 33.2438368,88.9642734 33.344184,88.7867647 L33.5286458,88.4515571 L33.0729167,88.2352941 L32.2265625,87.8243945 L31.3585069,87.4134948 C30.4706597,86.9851211 29.690191,86.6054498 29.0256076,86.2781142 Z M66.0481771,88.5488754 C65.7554687,88.6599481 65.4391493,88.7807958 65.093316,88.9057093 C64.8947049,88.9787197 64.5819444,89.0883218 64.1493056,89.240917 C64.1246528,89.4962803 64.0994792,89.6878028 64.0842014,89.824827 L64.0299479,90.3006055 L63.4548611,94.5069204 L63.3463542,95.1448962 C63.7578125,94.9898789 64.0611979,94.8782007 64.2469618,94.8096886 C64.3497396,94.7726644 64.6255208,94.6678201 65.0824653,94.5069204 C65.1189236,93.9138408 65.1686632,93.374827 65.2235243,92.8741349 L67.0789931,92.1929066 C67.4852431,92.6555363 67.8199653,93.0681661 68.0772569,93.4256055 C68.4744792,93.2754325 68.7730035,93.1658304 68.9778646,93.0903979 C69.0688368,93.057872 69.3232639,92.958391 69.7482639,92.8092561 L69.3359375,92.365917 L67.1549479,89.8572664 L66.0481771,88.5488754 Z M34.2230903,88.7002595 L34.1145833,89.0138408 C34.0350694,89.2425606 33.8663194,89.7062284 33.59375,90.3979239 C33.3211806,91.0892734 33.0963542,91.6395329 32.9210069,92.0523356 C32.7456597,92.4658304 32.5169271,92.9819204 32.2374132,93.5878028 L32.7690972,93.7608131 L34.3967014,94.3014706 C35.1161458,94.5436851 35.7806424,94.7750865 36.3823785,94.982699 C36.5361979,94.6062284 36.6832465,94.2400519 36.8381076,93.8905709 C36.5655382,93.8179066 36.3772569,93.7643599 36.2630208,93.7283737 L35.4817708,93.4904844 C35.0838542,93.3648789 34.8262153,93.2731834 34.7005208,93.2309689 L34.2773438,93.0903979 L34.624566,92.2145329 C35.0540799,92.3387543 35.4442708,92.4679931 35.7855903,92.5821799 C36.0157986,92.6600346 36.3466146,92.7689446 36.7730035,92.9173875 C36.9445312,92.4969723 37.0957465,92.1378028 37.2287326,91.8360727 C36.6238715,91.6502595 36.2496528,91.5367647 36.1111111,91.4900519 C35.7225694,91.3592561 35.3807292,91.2387543 35.0911458,91.133218 L35.4275174,90.3114187 C35.6959201,90.3913495 35.8993056,90.4435986 36.0243056,90.4844291 C36.1496528,90.5256055 36.3845486,90.6127163 36.7404514,90.7331315 C37.0644097,90.842128 37.4635417,90.9853806 37.9340278,91.1656574 C37.9642361,91.0784602 37.9969618,90.9898789 38.031684,90.9061419 L38.1944444,90.5168685 C38.2680556,90.3386678 38.3121528,90.242128 38.3246528,90.2141003 L38.3680556,90.0951557 C37.7819444,89.9031142 37.1144097,89.6717128 36.3498264,89.4139273 C35.5206597,89.1343426 34.8053819,88.9016436 34.2230903,88.7002595 Z M65.4188368,90.0086505 C65.4789062,90.0847751 65.8125868,90.4970588 66.4171007,91.2413495 L65.2669271,91.6522491 L65.3320312,91.0250865 C65.359809,90.7579585 65.3903646,90.4204152 65.4188368,90.0086505 Z M61.2087674,90.2357266 C60.7650174,90.3270761 60.4901042,90.3795848 60.3949653,90.3979239 L59.4835069,90.5709343 C59.5223958,90.7391003 59.5459201,90.8596021 59.5594618,90.9277682 C59.5855035,91.0561419 59.6306424,91.2972318 59.6896701,91.6522491 C59.7486979,92.0062284 59.7914062,92.2859862 59.8198785,92.4956747 L57.7256944,92.9065744 C57.6319444,92.3487889 57.5486111,91.6951557 57.4652778,90.9602076 C57.0777778,91.0397924 56.7972222,91.1024221 56.640625,91.133218 C56.440625,91.1723183 56.1438368,91.2224048 55.7400174,91.2954152 L55.8159722,91.6630623 C55.8524306,91.842301 55.8897569,92.0305363 55.9244792,92.225346 L56.0329861,92.8957612 L56.2717014,94.4096021 L56.5321181,96.5073529 C56.9671875,96.4177336 57.2439236,96.3564879 57.3567708,96.3343426 L58.2465278,96.1721453 L57.8993056,94.0635813 L59.9934896,93.6526817 C60.1309896,94.4544118 60.2291667,95.1592561 60.2864583,95.7720588 C60.7604167,95.675173 61.0606771,95.6229239 61.187066,95.5990484 L62.0225694,95.4368512 C61.8454861,94.5544983 61.7116319,93.8020761 61.6102431,93.16609 C61.5092014,92.5290657 61.3764757,91.5492215 61.2087674,90.2357266 Z M43.4895833,91.1007785 C43.1905799,91.1216782 42.9068576,91.1785467 42.6323785,91.2629758 C42.0837674,91.4311419 41.650434,91.708391 41.3302951,92.0955882 C41.0101563,92.4827855 40.8095486,92.9539792 40.7335069,93.5121107 C40.6821181,93.8920415 40.6946181,94.2451557 40.7769097,94.5717993 C40.8585069,94.8987889 41.0359375,95.2096886 41.2977431,95.5017301 C41.5595486,95.7941176 41.8773438,96.0280277 42.2634549,96.1937716 C42.6488715,96.3598616 43.0632812,96.4711938 43.500434,96.5289792 C43.9431424,96.5871107 44.3778646,96.5804498 44.8025174,96.5181834 C45.2275174,96.4558997 45.6018229,96.3180104 45.9309896,96.1072837 C46.259809,95.8969031 46.5283854,95.6225087 46.733941,95.2854844 C46.9391493,94.9484602 47.0774306,94.5669723 47.1354167,94.1392907 C47.1909722,93.7313322 47.1699653,93.3688754 47.0703125,93.0363495 C46.9706597,92.7048616 46.7931424,92.3961246 46.5386285,92.1172318 C46.2841146,91.8390311 45.9633681,91.6178374 45.5946181,91.4576298 C45.2262153,91.2977682 44.8373264,91.1879066 44.4227431,91.1332353 C44.0991319,91.0908478 43.7885868,91.0799031 43.4895833,91.1008131 L43.4895833,91.1007785 Z M52.734375,91.5549308 C52.103125,91.5705017 51.4537326,91.5756228 50.7703993,91.5873529 C50.0919271,91.5977336 49.35625,91.6121972 48.5677083,91.6197751 L48.5677083,92.0414879 C48.5725694,92.3238408 48.5711806,92.8775606 48.556875,93.6958997 C48.5419444,94.5149308 48.5251736,95.1528201 48.5026215,95.6206401 C48.4873437,95.9372491 48.4606076,96.3629412 48.415816,96.8857785 C48.962691,96.8715917 49.2609549,96.8655363 49.3272743,96.8641522 L50.1736285,96.8533564 L50.1736285,96.680346 L50.1736285,96.172128 L50.1844618,94.7772318 C50.5917535,94.7575087 50.9677951,94.7499654 51.312934,94.7448097 C51.5167535,94.7420415 51.8263021,94.7385813 52.2460938,94.7448097 C52.2419271,94.4700692 52.2462674,94.0942042 52.2677951,93.6094291 C51.8907118,93.6225779 51.6149306,93.6286332 51.4322917,93.6310554 L50.7921007,93.6418512 L50.2278646,93.6310554 L50.249566,92.7443772 C50.6815104,92.7319204 50.9422743,92.724481 51.030816,92.7227509 L51.8012153,92.711955 L52.0724826,92.711955 L52.3546007,92.7011592 L52.6909722,92.711955 C52.6885417,92.5299481 52.7020833,92.1459516 52.734375,91.5549308 L52.734375,91.5549308 Z M43.9778646,92.2577737 C44.050066,92.2580727 44.1203993,92.2697232 44.1948785,92.2794118 C44.4775174,92.316782 44.7243924,92.4149654 44.9327257,92.5713668 C45.141059,92.7288062 45.2921875,92.9305363 45.3776042,93.1769031 C45.4626736,93.4232699 45.4798611,93.6827855 45.4427083,93.9554498 C45.4052083,94.2367647 45.3105035,94.4945502 45.1497396,94.7339965 C44.9893229,94.9741349 44.7797743,95.1426471 44.5203993,95.2530277 C44.2613715,95.3627163 43.9832465,95.3992215 43.6957465,95.3611592 C43.4256076,95.325173 43.1818576,95.2276817 42.9578993,95.0692042 C42.7346354,94.9117647 42.578125,94.7142734 42.4913194,94.474481 C42.4038194,94.2343426 42.3782118,93.9769896 42.4153646,93.7067474 C42.4549479,93.4133218 42.5546007,93.1561419 42.719184,92.9173875 C42.8834201,92.6779412 43.0986111,92.499654 43.359375,92.3875433 C43.5546875,92.3032007 43.7612639,92.2569273 43.9778646,92.2577737 Z" id="path6" fill="#005288" fill-rule="nonzero"></path>
            <path d="M48.7635417,36.1794983 C51.1149306,34.558391 54.2513889,34.2905709 56.8361111,35.7656574 C57.8704861,36.3570069 58.7041667,37.1621972 59.3131944,38.0974913 C60.3572917,39.6988754 80.390625,73.1511246 80.390625,73.1511246 L82.5677083,70.9217128 L62.5513889,37.3511246 L61.9510417,36.6455882 C61.08125,35.2621972 59.8746528,34.0632353 58.3548611,33.1957612 C56.1211806,31.9203287 53.5989583,31.5812284 51.2201389,32.0213668 L63.0222222,12.04109 L61.3631944,11.6895329 L59.5222222,11.2051038 L40.8302083,43.5379758 L40.6006944,44.1615052 L40.0708333,45.0836505 L40.1440972,45.1597751 C39.5947917,46.4006055 39.2836806,47.7615052 39.2836806,49.1933391 C39.2836806,51.3224048 39.9684028,53.291955 41.1197917,54.9362457 C41.5565972,55.6217128 42.0777778,56.258737 42.6809028,56.8324394 L39.2430556,56.8324394 C36.6350694,55.6473183 34.8243056,53.1151384 34.8243056,50.1774221 C34.8243056,49.0009516 35.1142361,47.8878028 35.6305556,46.9002595 C36.5142361,45.208564 55.8756944,11.374308 55.8756944,11.374308 L52.8208333,10.6438581 L33.3482639,44.5224048 L33.0295139,45.3881488 C32.2493056,46.8217128 31.8013889,48.4497405 31.8013889,50.1777682 C31.8013889,52.7165225 32.7697917,55.0317474 34.3517361,56.8327855 L10.8506944,56.8327855 L11.7142361,59.8047578 L49.3659722,59.8047578 L50.1006944,59.6815744 C52.1274306,59.6348616 54.1177083,59.0137543 55.8263889,57.8846886 C58.1229167,56.4608131 59.8184028,54.2234429 60.4711806,51.5940311 C61.4274306,52.8220588 61.9975694,54.34109 61.9975694,55.9864187 C61.9975694,60.0504325 58.5402778,63.3566609 54.2888889,63.3646194 L50.834375,63.625173 L13.3697917,63.6258651 L14.2333333,66.5978374 L53.6121528,66.5978374 L56.203125,66.1608131 C60.3284722,65.4369377 63.6350694,62.4393599 64.6743056,58.5708478 L76.4388889,78.4192907 L78.6159722,76.1895329 L59.6586806,44.2071799 L59.0572917,43.5006055 C58.1878472,42.1172145 56.9815972,40.9192907 55.4621528,40.0511246 C52.8222222,38.5435121 49.7756944,38.3296713 47.0434028,39.1860727 C47.5607639,38.2794983 48.1052083,37.3265571 48.6673611,36.3428201 L48.7635417,36.1794983 Z M57.0027778,46.0466263 C57.9229167,48.1684256 57.8454861,50.7071799 56.5548611,52.8905709 C55.9243056,53.9594291 55.0697917,54.8182526 54.0930556,55.4552768 C52.9097222,56.158391 51.51875,56.5725779 50.0260417,56.5725779 C47.4534722,56.5725779 45.178125,55.359083 43.7739583,53.5061419 C42.2194444,51.2009516 42.0357639,48.0857266 43.5756944,45.4794983 C44.3104167,44.2365917 45.3444444,43.2770761 46.5260417,42.625173 C47.5784722,42.1109862 48.7663194,41.8151384 50.0263889,41.8151384 C53.10625,41.8151384 55.7631944,43.5500865 57.0027778,46.0466263 L57.0027778,46.0466263 Z" id="path88" fill="#005288" fill-rule="nonzero"></path>
            <rect id="_x3C_Slice_x3E__2_" x="0" y="0.0756920415" width="100" height="99.6539792"></rect>
        </g>
    </g>
</svg>