<svg viewBox="0 0 21 21" xmlns="http://www.w3.org/2000/svg">
  <g fill="#000" fill-rule="nonzero">
    <path d="M16 0c2.7614237 0 5 2.23857625 5 5v11c0 2.7614237-2.2385763 5-5 5H5c-2.76142375 0-5-2.2385763-5-5V5c0-2.76142375 2.23857625-5 5-5h11Zm0 1H5C2.85780461 1 1.10892112 2.68396847 1.00489531 4.80035966L1 5v11c0 2.1421954 1.68396847 3.8910789 3.80035966 3.9951047L5 20h11c2.1421954 0 3.8910789-1.6839685 3.9951047-3.8003597L20 16V5c0-2.14219539-1.6839685-3.89107888-3.8003597-3.99510469L16 1Z"/>
    <path d="M4.954 5.782c.636 0 .954-.3.954-.9 0-.588-.318-.882-.954-.882C4.318 4 4 4.294 4 4.882c0 .6.318.9.954.9Zm0 10.944c.492 0 .738-.264.738-.792V8.572c0-.516-.246-.774-.738-.774-.48 0-.72.258-.72.774v7.362c0 .528.24.792.72.792Zm11.5637143.036c.48 0 .72-.252.72-.756v-4.824c0-2.304-1.038-3.456-3.114-3.456-.66 0-1.254.138-1.782.414-.528.276-.936.69-1.224 1.242V8.5c0-.492-.24-.738-.72-.738-.46800001 0-.70200001.246-.70200001.738v7.506c0 .504.24.756.72000001.756.492 0 .738-.252.738-.756V11.65c0-.828.237-1.491.711-1.989s1.113-.747 1.917-.747c.696 0 1.203.189 1.521.567.318.378.477.975.477 1.791v4.734c0 .504.246.756.738.756Z"/>
  </g>
</svg>
