<svg width="30" height="22" xmlns="http://www.w3.org/2000/svg">
  <path
    d="M29.9346405 2.32026144V17.0261438c0 1.5359477-.7843137 3.2026144-2.2875817 3.2026144H3.7254902c-1.53594772 0-3.20261438-1.6993464-3.20261438-3.2026144V2.15686275c-.06535948-.29411765.32679738-.94771242.39215686-1.0130719C1.50326797.39215686 2.64705882.03267974 3.7254902.03267974h23.9215686c1.1764706 0 1.8954249.49019608 2.1568628 1.37254902 0 .03267974.1633987.45751634.1307189.68627451v.22875817Zm-27.09150325-.4248366L15.2287582 11.7647059l12.4183006-9.9019608h.0326798-.0326798s-24.5098039 0-24.80392155.03267974ZM28.1045752 17.0261438V3.85620915h.0326797-.0326797l-12.254902 9.80392155c-.1633987.130719-.3921569.2287582-.5882353.2287582-.2287582 0-.4248366-.0653595-.5882353-.2287582L2.41830065 3.85620915V17.0261438c0 .4901961.88235294 1.372549 1.37254902 1.372549H27.6470588c.4901961 0 .4575164-.8823529.4575164-1.372549Z"
    fill="#000" fill-rule="nonzero" />
</svg>