<svg width="100" height="100" xmlns="http://www.w3.org/2000/svg">
<title>National Oceanic and Atmospheric Administration logo</title>
  <g fill="none" fill-rule="evenodd">
    <path d="M88.3563485 30.9181554c.0235631-.0096888 5.2844117 10.4086965 4.3509241 21.48461-.5077156 18.6021969-16.9481077 39.7043987-41.4485599 40.3897624l-3.4161854-.0711015C22.5947802 91.4666294 7.0796402 70.0441601 7.15049794 50.6859166c.062587-3.5987335.04809576-7.6216761 1.56602968-12.5972881l1.54795898.4625728c6.4705062 2.4455831 13.4512295 21.3511585 36.1459075 22.4272655.985198.0467056 2.8776109.0902833 2.8733364.0982067-1.4690387 1.4655991-9.8215329 4.9107665-13.6113635 5.8181907.9910353-.2372818-.077462-.0243958 0 0 9.1276202 5.6580571 18.2552405-5.2310338 30.1051313-6.8323707l3.629697-.2135116c-.6939127-2.1884937-3.8179779-2.003755-4.110098-1.9749821-8.1987189.8071335-6.1505493-.1332355-6.4053476-.0533779 12.5971835-3.9499644 19.8565774-14.0383868 28.9228985-26.3067539l.5417003-.5957126Z" fill="#007EC6" fill-rule="nonzero"/>
    <path d="M70.04773 12.0757652c-.8803168-.4682034-8.2735739-4.91076648-19.625133-5.08872754C25.8144495 7.0756533 14.9795689 25.1355233 14.9795689 25.1355233c5.4445454 2.6688948 11.0941584 10.7063334 11.1737022 10.8179893 6.0931103 8.5489078 14.5843657 21.7995542 25.586259 22.05289 3.5225227.0811088 5.8655219-2.026067 8.5400449-4.6161461 9.766906-9.4591461 11.1342961-26.947184 23.6464081-29.4112209 0 0-4.643877-6.992504-13.8782531-11.9032704ZM42.7829241 23.6431307h2.9245493c1.1798159 0 2.1296307.9498148 2.1296307 2.1296307v7.0391311c0 1.1798159-.9498148 2.1296307-2.1296307 2.1296307h-2.9245493c-1.1798159 0-2.1296308-.9498148-2.1296308-2.1296307v-7.0391311c0-1.1798159.9498149-2.1296307 2.1296308-2.1296307Zm.779187 1.9386851h1.3661774c.2720201 0 .4910126.2189903.4910126.4910105v6.4390013c0 .2720201-.2189925.4910104-.4910126.4910104h-1.3661774c-.2720202 0-.4910104-.2189903-.4910104-.4910104v-6.4390013c0-.2720202.2189902-.4910105.4910104-.4910105Zm8.4712045-1.9362874c-1.1798159 0-2.1284436.9486277-2.1284436 2.1284436v9.1676537h2.4153498v-4.5371212h2.3486275v4.5371212h2.4153498V25.773972c0-1.1798159-.9486299-2.1284436-2.1284437-2.1284436h-2.9224398Zm.7806518 1.9349487h1.3611363c.272018 0 .4937456.2217254.4937456.4937456v2.3953331h-2.3486275v-2.3953331c0-.2720202.2217254-.4937456.4937456-.4937456Zm8.4664432-1.9349487c-1.1798159 0-2.1284436.9486277-2.1284436 2.1284436v9.1676537h2.4153498v-4.5371212h2.3486274v4.5371212h2.4153498V25.773972c0-1.1798159-.9486298-2.1284436-2.1284436-2.1284436h-2.9224398Zm.7806517 1.9349487h1.3611364c.272018 0 .4937455.2217254.4937455.4937456v2.3953331h-2.3486274v-2.3953331c0-.2720202.2217253-.4937456.4937455-.4937456Zm-30.6615362-1.9349487v11.2960973h2.4220221v-8.867403c-.0000021-.2720202.2150531-.4937456.4870733-.4937456h1.3678086c.2720201 0 .4937455.2217254.4937455.4937456v8.867403h2.4153498V25.773972c0-1.1798159-.9486277-2.1284436-2.1284436-2.1284436h-5.0575557Z" fill="#263F78"/>
    <path d="m7.21785201 65.1214968-4.30937713 1.346466-.2001876-.6407013 2.50146906-2.9908831c.05424945-.0661865.10642421-.1253036.15652428-.1773534.05010412-.0520456.09843844-.0960482.14500297-.13201L2.0181428 63.61845l-.17459282-.5587855 4.30937713-1.3464681.19835931.6348511-2.53164124 3.0484778c-.03900579.0464431-.08072702.0910542-.12516433.1338376-.04442963.0427856-.09224576.0850204-.1434484.1267064l3.4931407-1.0914328.17367886.5558603Zm-3.29664513-4.7398611L3.63043057 59.00515l-1.80483213 1.0955194 2.09560844.2809663Zm2.10518366.8898202-4.76387023-.7072422-.14000341-.6627506 4.0695547-2.5795296.13746944.6507577-1.2206799.7465646.36742974 1.7393487 1.41896533.1920835.13113433.6207679Zm-1.00501035-5.4011641-3.93556038.4919328.17677642 1.4142452-.54440904.0680504-.4299659-3.4398147.54440905-.0680482.17677642 1.4142473 3.9355602-.4919328.07641323.61132Zm-.26580591-2.5821665-4.50463755.3032271-.04117126-.6116275 4.50463759-.303227.04117122.6116274ZM2.37363947 51.23942c.57827328.0018424 1.0307955-.1300331 1.35756815-.3956457.32677435-.2656084.49092035-.634422.49244849-1.1064406.00150159-.4699688-.16027507-.8377874-.48534069-1.1034556-.32506392-.2656596-.77673188-.3994204-1.35500495-.4013039-.58031193-.0018423-1.03334171.1290083-1.35909063.3925756-.32574173.2635736-.4893702.6303438-.49089646 1.1003148-.00150351.4720186.15975568.8418783.48378865 1.1095813.32404017.2677051.77621557.4024886 1.35652744.4043741Zm-.00204054.6344679c-.74582415-.0024226-1.32808301-.1938186-1.74677835-.574213-.41868733-.3803923-.62695516-.9057012-.6248206-1.5759248.0021702-.6681759.21329543-1.1900922.63339281-1.5657487.42010533-.3756481 1.00409088-.5622721 1.75195843-.5598951.74582863.002427 1.32809074.1928003 1.74678824.5711471.41869835.3783554.62697271.9016189.62484018 1.569797-.00217229.6702235-.2138148 1.1941809-.63494505 1.5718723-.42112897.3776934-1.00460702.5653402-1.75043566.5629652Zm2.32574946-5.0388449-4.48966136-.4760732.07078065-.6675055 3.48369015-1.7511815c.07607588-.03919.14744064-.0727199.21409404-.1005874.06665512-.0278611.12849127-.0490436.18550869-.0635496l-3.63927743-.3858987.06173107-.5821628 4.48966145.476071-.07013429.6614098-3.53425772 1.792054c-.05424373.0271266-.1102533.0514947-.16802888.0731085-.05776886.0216159-.11842744.0413828-.18197592.0593007l3.63927762.3859008-.06140807.5791139Zm-1.14404845-5.6586121.27921615-1.3788771-2.09135236.2895282 1.81213621 1.0893489Zm1.5793595 1.6520288L1.0403868 40.2891771l.1344374-.6639036 4.75898473-.7531963-.13200397.651885-1.41669548.2009806-.35282213 1.7423698 1.22629311.739301-.12592102.6218461Zm.94445313-4.3994724-4.33714498-1.2541457.17198726-.594775 3.78948109 1.0957799.62494372-2.1612112.54766383.1583637-.79693092 2.7559883Zm-.3596291-6.1426045c.53015696.230947.99788163.2892655 1.40317551.1749557.40529431-.1143056.70219669-.387831.8907082-.8205763.18769419-.4308642.18498281-.8326781-.00813415-1.2054416-.19311781-.372757-.55475413-.674609-1.08491001-.9055602-.53202796-.2317583-.99981284-.291217-1.40335614-.1783783-.40353946.1128473-.69915756.384703-.88685496.8155673-.18850809.4327453-.1870812.8362288.0042807 1.2104505.19136744.3742282.55306418.6772225 1.08509085.9089829Zm-.25338807.5816718c-.68376701-.2978615-1.14244733-.7043961-1.37604224-1.2196038-.23358808-.5152035-.21654922-1.0800356.05111659-1.6944942.26685618-.6125775.66758198-1.0080373 1.20217826-1.1863814.53460056-.1783334 1.14472102-.1181615 1.8303633.1805113.68376935.29787 1.14285748.7034673 1.3772663 1.2167961.23440625.5133352.21818364 1.0762927-.04866826 1.6888724-.26767008.6144585-.66968037 1.011588-1.20603172 1.1913903-.53635113.1798045-1.14641117.120775-1.83018223-.1770907Zm4.23065583-7.2815052.29237743-.5177741c.46556714.2934076.75459604.6719231.86708764 1.1355421.1124888.4636276.0330949.9356441-.2381814 1.4160516-.3124729.5533601-.74598105.8805623-1.30052615.9816024-.55454488.1010422-1.16543441-.0368244-1.83267028-.4135997-.6156329-.3476353-1.01155555-.7882698-1.18776879-1.3219058-.17620727-.5336273-.10656961-1.0797921.2089134-1.6384943.25118591-.4448193.57166894-.7443227.96145035-.8985144.38978526-.1541809.79562701-.1414898 1.21752654.0380798l-.29539157.523112c-.28790799-.096866-.55444816-.0913254-.79962117.016624-.24516937.10796-.45215241.3113959-.62094976.6103143-.22505765.3985642-.25995548.7865873-.10469349 1.1640694.15526669.3774885.48733742.709909.99621325.9972593.48041003.2712792.93018072.3744843 1.34931293.3096152.41913264-.0648648.73520067-.2859048.94820454-.6631157.1818557-.3220502.2307221-.6423453.1465994-.9608897-.0841249-.3185379-.286752-.5778627-.60788287-.7779764Zm2.15729777-.2959207-3.70708933-2.5770528 1.83700201-2.6425272.46055472.3201632-1.49059567 2.1442228 1.10734497.7697904 1.3768768-1.9806368.4328713.3009177-1.3768769 1.980638 1.2432466.864265 1.5203379-2.1870055.4630716.3219135-1.866744 2.6853117Zm1.3981939-5.0861841.9012813-1.0802559-1.9774696-.7397265 1.0761883 1.8199824Zm.6038581 2.2042987-2.3926279-4.1797107.4339502-.5201232 4.5447068 1.600276-.4260959.5107092-1.3418573-.4968273-1.1388738 1.3650293.727258 1.2334731-.4064601.4871736Zm2.9045388-3.4306469-3.1821367-3.202766.476175-.473108 3.8074605.8402238c.0837452.0176124.1602629.0366433.2295532.0570924.0692868.0204555.1306217.0430495.1840045.067782l-2.5794102-2.5961324.4152941-.412619 3.1821367 3.202766-.4718264.4687873-3.8724799-.8404339c-.0591963-.013192-.1180224-.0296371-.1764784-.0493353-.0584527-.0196915-.1179803-.0426408-.1785828-.0688481l2.5794102 2.5961325-.4131198.4104587Zm3.2791389-3.142133-2.9597221-3.409362.462914-.4018631 2.9597222 3.4093621-.4629141.401863Zm2.7087378-4.3080098.474047-.3589623c.3106444.4542482.4254688.9164449.3444732 1.3865918-.0810021.4701517-.34142.8717552-.7812539 1.2048113-.5066288.3836342-1.0344615.5116342-1.5834943.3840006-.5490353-.1276317-1.0548427-.4968906-1.5174237-1.1077773-.4268058-.5636411-.6150376-1.1253192-.5646961-1.6850358.050345-.5597093.3312737-1.0332325.8427871-1.42057113.4072575-.3083814.8203644-.45587777 1.239322-.44248952.4189552.01339934.7863382.18631341 1.1021453.51874265l-.4789343.3626628c-.2257116-.2032937-.472506-.3041212-.740387-.3024825-.2678813.0016488-.5386601.1060886-.8123371.3133198-.3649013.276319-.5511114.6185262-.5586304 1.0266226-.0075169.4081037.1651211.8451045.5179148 1.3110038.333058.4398394.7047857.7132684 1.115184.8202874.4103975.107022.7882724.0297765 1.1336274-.2317369.2948531-.2232702.4669691-.4977762.51635-.8235189.0493746-.3257373-.0335213-.6442266-.248694-.9554684Zm3.3140115-2.36803373 1.2228962-.69554772-1.5924313-1.38626859.3695351 2.08181631Zm-.2075781 2.27606893-.7747652-4.75335546.5888009-.33489335 3.6947967 3.09252657-.5781446.32883197-1.082382-.93587935-1.5452709.8789057.2484677 1.41018552-.5515026.3136784Zm3.9232925-2.19404333-1.8529496-4.11707151.6121099-.27548952 3.2689777 2.12521105c.0722054.04593125.137147.09064912.1948251.13415381.0576716.04350939.1071465.08622516.1484247.12814709l-1.5019836-3.33725952.5338495-.24026736 1.8529517 4.11707151-.6065202.27297371-3.329773-2.14826731c-.0507773-.03316219-.1000665-.06923946-.1478653-.10823201-.0477988-.0389853-.0954567-.08139809-.1429759-.12723881l1.5019857 3.33725952-.5310567.23900935Zm4.4643714-6.13053743-.9997104.33510792 1.0939715 3.26358864.9997103-.33510772c.4281676-.14352355.7051199-.39098882.830859-.74239665.1257306-.35140398.0973528-.79931435-.0851356-1.34373302-.1746994-.52116299-.4198833-.88292912-.7355538-1.08529989-.3156748-.20236201-.6837218-.23308163-1.104141-.09215928Zm-.311618 4.31663097-1.4349239-4.28073562 1.6303403-.5464987c.5967244-.20002043 1.1132196-.17488158 1.5494856.07541677.4362619.25030796.7670703.71160209.9924275 1.38388346.233144.69553769.2503018 1.29160182.0514734 1.78819454-.1988348.49659613-.5927381.84360712-1.1817119 1.04103424l-1.607091.53870531Zm6.3237135-3.76745911 1.3811125-.26793376-1.0654698-1.82273269-.3156427 2.09066645Zm-.9245735 2.09015437L40.1141979.9992336l.6649797-.1290052 2.5117588 4.11172816-.652944.12667023-.7262404-1.23287995-1.7451968.33856575-.2155634 1.41558864-.622856.12083304Zm5.4171199-.91554088L44.318145.89207156l-1.4169654.15348235-.0590808-.54545501 3.4464207-.37330872.059083.54545502-1.4169633.15348237.4271107 3.9431218-.6124942.06634402ZM47.8362202.71175883l.045621 3.8463783-.5639311.00668868-.0535465-4.51451404.8765462-.01039667 1.1596348 3.4408099c.0338543.09768817.0587647.17351361.0747333.22747653.0159642.05396462.0282753.10133025.0369353.14209708.0154476-.07579255.0309934-.14341274.0466395-.2028612.0156397-.05944653.0323406-.11584135.0501026-.16918444l1.117541-3.46781933.8796101-.01043302.0535466 4.51451417-.5945785.00705229-.0456232-3.84637835c-.0135302.0655568-.0290952.13164473-.0466928.19826402-.0176041.06662667-.036233.13275098-.0558867.19837308l-1.1206433 3.46479083-.5792548.00687059-1.1749244-3.43756326c-.021112-.05696452-.0402277-.11804323-.0573492-.18323626-.0171215-.06518573-.0332822-.1354953-.0484799-.2109289Zm5.3509035 1.6543266c-.0565507.57550425.0319285 1.03847166.2654397 1.38890332.2335091.35043315.5851413.54872904 1.054901.5948879.4677185.04595965.8491911-.08029979 1.1444135-.37877873.2952161-.29847788.4711027-.73546799.5276555-1.31097203.0567471-.57753395-.0306667-1.04090973-.2622392-1.39012879-.2315811-.34921255-.5812298-.54680014-1.0489483-.59276335-.4697596-.04615536-.8532157.07939592-1.1503662.37665418-.2971569.2972652-.4741068.73466394-.530856 1.3121975Zm-.6314264-.06204519c.0729356-.74225323.3185487-1.30379733.7368413-1.684634.4182906-.38082884.9609452-.53847419 1.6279597-.4729365.6649775.06534661 1.1645818.32489302 1.4988171.77864005.3342268.4537542.4647763 1.05277402.3916443 1.79706129-.0729398.74225723-.3175365 1.30390116-.7337923 1.68493372-.4162622.38103256-.9568799.53887783-1.6218575.47353603-.6670166-.06554251-1.1686044-.32579712-1.5047677-.7807649-.3361676-.45496671-.4677804-1.05357804-.3948449-1.79583569Zm4.8860739 1.30389006.5801878.11542222c-.0577805.32185292-.001896.59860578.1676536.83025945.1695474.23165451.4276744.38196859.7743873.45094266.3426968.06817681.6271027.04975332.8532158-.05527047.2261066-.10502336.3638792-.28178938.4133221-.53029787.0673757-.33869193-.2521508-.66997693-.9585795-.99385586-.042098-.0187903-.0745732-.0335843-.0974253-.04438265-.5729242-.26189758-.9386396-.49976337-1.0971485-.71359821-.1585089-.21383014-.2056693-.48207628-.1414792-.80473911.0785424-.39480401.2859305-.68324642.6221664-.8653281.3362316-.18207362.743838-.22546849 1.2228214-.13018471.488997.09728555.8487641.29959196 1.0793053.60691983.2305349.30733494.3041494.68084792.2208479 1.12054023l-.5747711-.1112199c.0389616-.30059079-.0164916-.54809017-.1663639-.74249896-.1498766-.19440226-.3821345-.32290252-.6967759-.38550117-.2946054-.0586044-.542945-.04081884-.7450188.05335674-.202078.09418278-.3244458.24849157-.3671054.46292685-.0681785.34270369.2457348.67078858.9417377.98425519.1030364.0475849.1822193.08417182.2375487.10976054.0116236.00439834.0316702.01359492.0601398.02758954.4542459.20912477.7463746.3953705.8763839.55873761.0983029.12372932.1642673.26341949.1978911.41907093.0336174.15565358.0328851.32166012-.002197.49802005-.0849264.42687328-.3053173.73616723-.6611728.92788313-.355864.19171504-.7943271.23574241-1.3153915.13208232-.5370991-.10685038-.9284423-.3258554-1.1740319-.65701571-.2455895-.33115968-.3289722-.75245091-.250148-1.26387457Zm5.1640595.15766101.9881957.28996581c.3431195.10068416.5989256.11611849.7674161.04630276.1684842-.06981252.291849-.23804748.3700989-.5047053.0753632-.25685017.0618009-.46100503-.0406911-.61246567-.1024983-.15145508-.3115817-.27349788-.6272522-.36612902l-1.0323114-.3029106-.425456 1.44994202Zm-1.2777451 2.17730723 1.2711903-4.33217972 1.594054.46774257c.2588102.07594716.4521215.14651209.5799338.21169547.1278059.06519043.23602.14272823.3246422.23261383.1482667.1478572.2418446.32970608.2807314.54554665.0388784.21584612.0212103.45023316-.0530021.70316198-.0707705.24116859-.1802507.44009712-.3284406.59678601-.1481984.15669189-.3285986.26347159-.5411985.32033976-.1223314.03225114-.2574736.04104312-.4054264.02637552-.1479614-.01466547-.3827174-.06917562-.7042701-.16353088l-.8940819-.26235001-.5359205 1.82639753-.5882116-.17259871Zm3.7923223 1.14643231 1.6738305-4.19308933.5693265.22726835-.687486 1.72221242 2.1748269.86816458.6874859-1.72221242.5721727.22840466-1.6738305 4.19308912-.5721726-.22840466.7840743-1.96417613-2.1748269-.86816458-.7840743 1.96417613-.5693265-.22726814Zm4.1916893 1.73634731 2.062729-4.01607392 2.8627826 1.47037785-.2562652.49894199-2.3229441-1.19310658-.6161581 1.19964195 2.1457231 1.10208318-.2408624.46895087-2.1457231-1.10208318-.6917776 1.34687079 2.3692932 1.2169127-.2576657.50166829-2.9091317-1.49418394Zm6.1885223-1.17643709-.8185202 1.29200899.8855052.56098931c.31933.20230671.5778285.29350391.7754933.27359161.1976583-.01991081.3730367-.15069563.5261374-.39235487.1432513-.22612179.182262-.42515644.1170385-.59710436-.0652342-.17194451-.2652839-.36399157-.6001491-.57614137l-.8855051-.56098931Zm-.2237089-.76943362 1.4784311.93662237c.2399293.1520053.4098632.27417727.509808.3665157.0999341.0923429.1794736.19111144.2386184.2963054.1047531.18973429.1492361.38965779.1334447.59977112-.0157998.2101159-.0909516.42133031-.2254511.63364346-.1301375.2054101-.2854223.3531584-.4658545.4432451-.1804429.0900874-.3840753.1213342-.6108994.0937402.122197.135472.1836349.2723598.1843096.4106639.0006683.1383036-.0655907.3297532-.1987729.5743496l-.3545808.6570601c-.0766699.1401044-.1226752.2518602-.1380203.3352678-.0153493.0834043-.0050154.155866.0310019.2173862l-.067254.1061569-.5981036-.3789137c.0019686-.1100229.0760229-.3013707.2221631-.5740442.0043727-.0069056.0076522-.0120839.0098429-.0155351l.28387-.5168095c.1445815-.2664033.195188-.4665583.1518217-.6004659-.0433706-.1339076-.2480257-.3167771-.6139632-.54860928l-.8388977-.53146343-1.0350423 1.63378301-.5126605-.3247832 2.4161889-3.81388655Zm1.0757077 6.11158355 2.6538358-3.65251426.4959298.36033069-2.6538359 3.65251427-.4959297-.3603307Zm4.80792 1.6672569.4566372.3808626c-.372473.4050994-.7968572.621218-1.2731589.6483566-.4763059.0271345-.9262986-.1359858-1.3499825-.4893613-.4880234-.4070398-.7317832-.8923963-.7312801-1.4560709.0005026-.5636749.2461541-1.1397377.7369574-1.7281899.4528453-.5429422.9575909-.8530159 1.514237-.9302223.5566418-.0772011 1.0813273.0896793 1.5740629.5006417.3922955.3272033.6291717.6963945.7106285 1.1075749.0814461.4111821-.0041443.8080989-.2567733 1.1907513l-.4613452-.3847888c.1471437-.26575.1897051-.5289284.1276842-.789536-.0620294-.260606-.2248554-.5008488-.4884761-.7207297-.3515062-.2931706-.7268959-.3973929-1.1261711-.3126676-.3992816.0847293-.7860813.3514887-1.160397.8002794-.3533788.4236856-.5359141.8475084-.5476039 1.2714698-.0116961.4239612.1487941.7746751.4814665 1.0521428.2840238.2368924.5902784.342655.9187639.3172883.3284811-.0253699.6200632-.17797.8747505-.4578009Zm3.0543494 2.6929982.9541 1.0339033.9902006-1.8646932-1.9443006.8307899Zm-2.2640405.3125611 4.4549705-1.8297217.4593808.4978054-2.1767741 4.2984759-.4510667-.4887955.6668372-1.2659964-1.2056145-1.3064576-1.317454.5609601-.4302792-.4662702Zm7.2123637 2.2296782-.6404771-.8375594-2.7342422 2.0908619.6404771.8375598c.2743112.3587209.5980609.5407309.9712471.5460346.3731841.0053015.7878322-.166443 1.2439484-.515227.4366312-.3338937.6996326-.682921.7890107-1.0470826.0893674-.3641619-.0006213-.7223575-.269964-1.0745873Zm-4.1853481 1.101483 3.5864097-2.7425109 1.0445008 1.3659037c.3822946.4999391.5255844.9967965.4298671 1.4905732-.0957279.4937763-.4252104.9560182-.9884476 1.3867288-.5827244.4456008-1.1411917.6546521-1.6754019.6271518-.5342146-.0275046-.9899892-.287978-1.3673239-.7814204l-1.0296042-1.3464262Zm6.2523644 2.0283651-3.2858686 1.9999438-.2932175-.4817525 3.8566405-2.3473464.455764.7488129-2.3690797 2.7516156c-.0667865.0789224-.1193231.1390046-.1576079.1802507-.038289.0412419-.0727626.0759803-.1034207.1042108.0730807-.025346.1391796-.0464409.198301-.0632849.0591149-.016846.116146-.031226.1710911-.0431357l3.5531103-.8062795.4573589.7514284-3.8566405 2.3473463-.3091563-.5079355 3.2858686-1.9999438c-.0632976.0217761-.1280877.0420746-.1943724.0608935-.0662953.0188168-.1326782.0364977-.1991529.0530406l-3.5520855.8020669-.3011859-.494843 2.3584917-2.7631153c.0382463-.047201.081049-.0947821.128408-.1427432.0473526-.047959.0996032-.0977029.1567538-.1492297Zm-.95448 6.0321934 4.0224194-2.0503283.2783871.5461541-4.0224195 2.0503283-.278387-.5461541Zm.7424566 1.4193418 4.15251-1.7721078.2634711.6173795-2.1887136 3.2268048c-.0473356.0712937-.0933131.1353493-.1379371.1921647-.0446303.056809-.0883041.1054406-.1310256.1458925l3.3659866-1.4364547.2297833.5384463-4.1525099 1.7721077-.2610628-.6117427 2.2129537-3.2871347c.034149-.0501218.0711826-.0986957.1111029-.1457216.0399117-.0470281.0832481-.0938469.1300093-.1404629l-3.3659867 1.4364547-.2285812-.5356258Zm1.7056779 4.2090563 4.2635915-1.4850862.2016424.5789003-4.2635936 1.4850863-.2016403-.5789004Zm1.9120005.9150039.1589743.5697941c-.3132663.0937658-.5349704.2685869-.6651142.5244635-.1301439.2558765-.1477159.5540647-.0527139.8945644.0939003.3365604.2387508.582007.4345537.7363395.1957987.1543283.4157263.197447.659785.129356.3326254-.0928049.4839496-.5274867.4539726-1.3040433-.0022419-.0460481-.0037044-.0817045-.0043877-.1069672-.025-.6294514.0221134-1.063166.1413426-1.301146.1192248-.2379821.3372778-.4011776.654161-.4895885.3877328-.1081777.7387373-.0533693 1.0530178.1644296.3142699.217801.5370286.5619005.6682785 1.0323007.1339828.480241.1159133.8925938-.0542127 1.2370605-.1701368.3444625-.4701696.5787915-.900103.7029912l-.160281-.5630663c.2858002-.1009547.4815968-.2621837.5873917-.4836871.1057865-.2215054.115576-.4867594.0293664-.7957662-.0807287-.2893274-.2087246-.5028817-.3839942-.6406628-.1752759-.1377833-.3682114-.1772958-.5788064-.1185374-.3365647.0939003-.4875686.5221276-.4530096 1.2846821.0040631.1134195.0071718.200592.0093219.2615154.0013237.0123559.0021693.0343946.0025365.066116.0185029.4997303-.0157785.8444789-.1028443 1.0342437-.0660135.143578-.1608703.2655081-.2845725.3657881-.1237043.1002736-.2721568.1745735-.4453574.2229018-.4192279.1169616-.7947093.0599647-1.1264444-.1709907-.3317372-.2309641-.5689934-.6023098-.7117686-1.1140394-.1471693-.5274804-.128455-.9755452.0561407-1.3441985.1845957-.3686555.5228514-.6332733 1.0147672-.7938532Zm-.149219 5.5017302 3.8968298-.7384746-.2653714-1.4003307.5390506-.1021525.6454519 3.4059625-.5390505.1021524-.2653715-1.4003285-3.8968298.7384747-.1147091-.6053033Zm4.4775472 2.7382327-1.5215562.1553169.1064484 1.0428312c.0383851.3760686.1265013.6356325.2643465.7786938.1378388.143057.3490573.2000625.6336533.1710142.2662938-.0271864.4468584-.11956.5416939-.2771252.094829-.1575715.1221158-.4335374.0818646-.8278997l-.1064505-1.0428312Zm.4665079-.6514921.177727 1.7410994c.028839.2825591.0378599.4916595.0270626.6273013-.010808.1356354-.0392733.2592138-.0853961.3707309-.0843798.1996312-.2140283.3581849-.3889455.4756632-.1749258.1174698-.387404.1889684-.6374367.2144959-.2419065.0246883-.4540367-.0060339-.6363884-.0921687-.1823581-.0861434-.3328026-.2268902-.4513314-.4222405-.0309464.1797981-.100564.3127133-.2088592.3987414-.1082974.0860217-.2997425.1522914-.5743355.1988113l-.735667.1274707c-.1575224.0263473-.2738072.0592708-.3488523.0987705-.0750472.0394932-.1256174.0924121-.1517085.1587522l-.1250196.0127616-.0719-.7043683c.0876999-.0664661.283885-.1265462.5885575-.1802358.0081305-.0008348.0142284-.0014561.0182937-.0018682l.5817144-.0963514c.2987796-.0510421.4873936-.134997.5658399-.2518625.0784441-.116872.0956724-.3907839.0516826-.8217357l-.1008458-.9879458-1.9240554.1964029-.061628-.6037446 4.4914917-.4584798Zm-2.2298488 5.3903199.0176296 1.4067509 1.9833753-.7237445-2.0010049-.6830064Zm-1.8920308-1.2821093 4.5354878 1.6198825.0084871.6773249-4.4933919 1.7391586-.0083334-.6650651 1.3425267-.4950117-.0222756-1.7775928-1.3545496-.4642788-.0079511-.6344176Zm-.0614145 5.4936509 3.9564935.277121.099584-1.4217694.5473049.038336-.2422161 3.4581084-.5473049-.0383339.099586-1.4217694-3.9564935-.2771231.0430461-.6145696Zm-.2373971 2.5849527 4.4784524.5719954-.0776648.6080725-4.4784503-.5719954.0776627-.6080725Zm1.9413989 2.4726499c-.566901-.1141368-1.0364194-.0726579-1.4085551.1244303-.3721379.1970862-.6047866.5269979-.6979502.9897351-.092758.460726-.0054979.8529617.2617802 1.1767029.2672802.3237327.6843686.5426696 1.2512697.6568065.5688994.114534 1.0387167.074159 1.4094518-.121123.3707287-.1952926.6024742-.5232998.6952365-.9840279.0931593-.4627373.0068024-.8568732-.2590686-1.1824101-.2658774-.3255411-.6832648-.5455797-1.2521643-.6601138Zm.1252245-.621987c.7311577.1472035 1.2651565.4480392 1.602001.9025071.3368358.4544658.4391164 1.0102215.3068375 1.667265-.131884.6550365-.4403527 1.1260089-.9254084 1.4129236-.4850641.2869041-1.0941742.3565558-1.8273346.2089531-.7311619-.1472098-1.2653636-.4470441-1.6026073-.8995029-.3372437-.4524695-.4399257-1.0062204-.3080481-1.6612568.1322833-.6570435.4416573-1.1299183.9281221-1.4186286.4864648-.2887125 1.095276-.359466 1.8264378-.2122605Zm-3.2617374 4.4908511 4.3093769 1.346466-.2001885.6407013-3.7592686 1.0347134c-.0822788.0235269-.1588291.0424248-.2296509.0566916-.0708218.0142626-.1356097.0229205-.1943639.0259737l3.4931392 1.0914349-.1745927.5587855-4.3093769-1.3464681.1983587-.6348511 3.8168655-1.0648848c.0585064-.0159728.1182043-.0288966.1790956-.0387715.060885-.0098771.1242403-.0173777.190068-.0224977l-3.4931413-1.091435.1736789-.5558582ZM7.58494206 72.9626521l2.40836926-1.4310699.31314398.5269957-2.41363936 1.4342c-.36362838.2160695-.58464148.4561397-.66303973.7202109-.07840081.2640711-.01739458.5647445.18301893.9020224.1983228.3337613.434555.5303158.70869683.5896613.27413756.0593413.5903858-.0174546.94874556-.2303918l2.41363937-1.4342.3147097.5296326-2.40836929 1.4310678c-.51997202.3089662-.9930522.4088341-1.41924225.299608-.42619432-.1092326-.79377458-.4238312-1.10274207-.9437981-.28809332-.4848379-.37241374-.9267492-.25296148-1.3257383.11945055-.3989912.44267378-.7550581.96967055-1.0682006Zm1.00043757 4.8709957.56370752-.3865457.35534434.5182076-.56370752.3865435-.35534434-.5182054Zm2.07290237.4235493.3635836.4666339c-.2541309.2057781-.3927659.4517371-.4159052.7378746-.0231419.2861376.0739233.5686326.2911956.8474852.2147572.2756242.4420166.4476099.6817786.515955.2397575.0683408.4595724.0246478.6594455-.1310833.2724006-.2122476.2471826-.6718249-.0756544-1.3787297-.0195735-.0417415-.0344764-.0741654-.0447087-.0972759-.2623312-.5727256-.3835738-.9918062-.3637285-1.2572438.0198405-.2654333.1595164-.499252.419028-.7014517.3175327-.2474108.6630335-.3301039 1.0365039-.2480791.3734623.082029.7102756.3156598 1.0104406.7008923.3064348.3932926.4464237.7815763.4199673 1.164853-.0264671.3832747-.2149404.7140447-.5654201.9923122l-.3622335-.4599125c.2259911-.2019926.3458277-.4255328.3595101-.6706228.0136729-.2450878-.0780765-.494164-.2752484-.7472265-.1846218-.2369423-.3841725-.3858325-.5986524-.4466705-.2144877-.0608358-.407964-.0240649-.5804293.110315-.2756304.2147607-.2525682.6682465.069187 1.3604574.0468611.1033653.0828623.1828172.1080039.2383516.0059201.0109275.0150774.0309912.0274722.0601931.2070248.4552089.306328.787119.2979095.9957348-.0064985.1578918-.0479031.3067222-.1242142.446489-.0763185.1397626-.1853975.2649039-.3272375.375426-.3433286.2675044-.7123003.3574739-1.1069167.2699128-.3946208-.0875675-.7551971-.3408905-1.0817299-.759971-.3365825-.4319788-.48954836-.8535403-.4588983-1.2646868.0306485-.4111486.2429655-.7844586.6369513-1.1199323Zm1.6454313 4.4105601.5126753-.4520468.4155597.4712927-.5126752.4520489-.4155598-.4712948Zm6.4456281.9191225-.7741059-.7158744-2.3370003 2.5270953.7741059.7158766c.3315432.3066026.6816197.4306529 1.0502313.3721464.3686053-.0585107.7478326-.2985425 1.1376832-.7200998.3731941-.4035561.5727273-.7923714.5986005-1.1664458.0258632-.3740745-.1239747-.7116406-.4495147-1.0126983Zm-3.9357539 1.8000713 3.0653619-3.3147054 1.2624229 1.16746c.4620581.4273071.6880947.8923952.67811 1.395264-.0099951.5028711-.2556959 1.01459-.737103 1.5351633-.4980649.5385723-1.0126257.8399247-1.5436843.9040614-.5310648.0641325-1.0246267-.1146792-1.480687-.5364329l-1.2444205-1.1508104Zm3.4188451 3.0816277 2.7646622-3.5693628 2.544351 1.9707354-.3434719.4434443-2.0645583-1.5991121-.8258325 1.0662064 1.9070504 1.4771137-.3228252.4167896-1.9070507-1.4771159-.9271847 1.197057 2.1057541 1.6310193-.3453481.4458677-2.5855463-2.0026426Zm5.1771505.7983582.8635391.5611704c.2998365.1948507.5404726.2829947.7219083.2644277.1814272-.0185627.3478552-.1443552.4992862-.3773753.1458561-.2244498.1914067-.4239187.1366559-.5984089-.0547614-.1744881-.2200664-.3513632-.4959148-.5306276l-.9020907-.5862238-.823384 1.2670375Zm-1.8484594 1.7194451 2.4601296-3.7856927 1.3929709.9052208c.22616.1469771.3911169.2700131.4948686.3691124.1037432.0991014.1851765.204416.2443.3159395.0996416.1841665.1371385.3852133.1124971.6031382-.0246542.2179313-.1087927.4374062-.2524219.6584313-.1369571.2107444-.2988842.3699216-.4857837.4775336-.1869102.107612-.3903526.1581758-.6103314.1516871-.1264416-.0041826-.2584302-.0345141-.3959637-.0909943-.1375399-.0564802-.3468047-.1760211-.6277945-.3586248l-.7812965-.5077262-1.0371646 1.5960055-.5140099-.3340304Zm5.0790477.9368995 1.2391081.6662373.3279687-2.0856708-1.5670768 1.4194335Zm-2.0383396 1.0338061 3.6147277-3.182514.5966069.3207798-.6559845 4.7733568-.5858096-.3149766.2175235-1.4142495-1.5657573-.8418676-1.0624913.959931-.5588154-.3004599ZM30.8632 91.7073829l-.6068149 1.4039369.9622156.4158928c.3469969.1499812.6165595.1997123.8086943.1491891.1921284-.050519.344943-.2070764.4584457-.46967.1061985-.2457113.113665-.4483957.0223995-.6080532-.0912741-.1596554-.3188475-.3181216-.6827225-.4754028l-.9622177-.4158928Zm-.3410677-.7250832 1.6065082.6943717c.2607147.1126914.4476355.2068393.5607689.2824459.1131227.075613.2071041.160755.2819442.2554282.133086.171057.2082272.3615862.2254277.5715897.0171919.2100058-.0240692.4303625-.1237812.6610661-.0964795.2232071-.2267985.3933823-.390959.5105297-.1641669.1171474-.3604267.1797959-.5887795.1879457.1418464.114739.2238968.2403585.2461532.3768607.0222479.1365044-.0133146.3359498-.1066853.5983364l-.2476735.7043533c-.0538625.1503549-.0818603.2679229-.0839954.3527019-.0021437.0847791.019374.1547404.0645531.2098841l-.0498592.1153539-.6499186-.2809108c-.0152298-.1089827.0280511-.3095448.1298385-.6016863.003239-.0075028.0056709-.013131.0072957-.0168803l.199723-.5547863c.1012237-.2857042.1199679-.4913051.0562325-.616803-.0637417-.1254957-.2944324-.2741787-.69207-.4460513l-.9115749-.3940036-.767335 1.7753189-.5570731-.2407812 1.7912597-4.1442834Zm3.1519669 6.1294052 1.2723006-3.7565784-1.3499291-.457203.1759976-.5196509 3.2833769 1.1120345-.1759976.5196509-1.3499292-.457203-1.2723027 3.7565805-.5835165-.1976306Zm4.0521873-2.7419692-.894005 3.7413187-.5485284-.1310748 1.0493006-4.3912031.852603.2037328.2852877 3.619743c.0089996.1029959.0146619.1826079.0169849.2388362.0023187.0562283.0027052.1051652.0011594.1468127.0334679-.069735.0650377-.1315188.0947137-.1853558.0296674-.0538348.059621-.104452.0898585-.1518516l1.9296921-3.0904627.8555836.2044459-1.0493006 4.3912031-.5783388-.1381954.8940072-3.7413187c-.0291145.0602765-.0603299.12057-.0936462.1808849-.0333249.0603191-.0675209.1199017-.102588.1787476l-1.9319596 3.086769-.5634336-.134634-.3009062-3.6203238c-.0065783-.0603938-.0102186-.1242915-.0109189-.1916907-.0007046-.0673928.000775-.1395212.0044346-.2163833Zm3.8039053 4.7779516.6233449-4.4715945 3.1874889.444339-.0774407.5555336-2.5864217-.3605484-.1861991 1.3357092 2.3891006.3330439-.0727861.5221405-2.3891006-.3330418-.2090514 1.4996371 2.6380275.3677438-.0778634.5585698-3.2390989-.4515322Zm4.1334818.537082.2263863-4.5091512.6704051.033658 1.9416572 3.3812271c.0433493.0737853.0807843.1431809.112305.2081866.0315143.0650079.0560938.1255726.0737384.1816984l.1835068-3.6550771.5846908.0293557-.2263885 4.5091533-.6642794-.0333526-1.9852713-3.4294487c-.0300944-.0526563-.0575307-.1072277-.0823151-.1637165-.0247844-.0564823-.0478842-.1159517-.0692994-.1784081l-.1835068 3.6550771-.5816291-.029202Zm5.6868192.1355756-.1310193-3.964022-1.4244745.0470815-.018125-.5483447 3.4646887-.114517.018125.5483469-1.4244745.0470814.1310192 3.964022-.6157396.0203519Zm4.6981815-2.5936277c.0909431.5710794.2937129.9965824.6083116 1.2765067.3145965.2799265.7049683.3827729 1.1711153.3085392.4641251-.0739113.8012214-.2926048 1.0112933-.6560848.2100634-.3634757.2696267-.8307522.1786879-1.4018338-.0912677-.5730928-.2931109-.9992598-.6055253-1.2785009-.3124229-.2792348-.7006959-.3818975-1.164821-.3079905-.466147.074238-.8053422.2927479-1.0175876.6555339-.2122476.3627946-.2727376.8307373-.1814742 1.4038302Zm-.6265711.0997803c-.1172947-.7365466-.0217953-1.3419715.2864941-1.8162726.3082915-.4742946.7933792-.7641472 1.4552651-.8695558.6598661-.1050776 1.208894.0195769 1.647086.3739592.4381834.354395.7160858.9008715.8337051 1.6394358.1172904.7365531.0228009 1.3418157-.2834665 1.8157922-.3062781.4739787-.7893481.7635068-1.4492121.8685908-.661888.1054043-1.2130148-.0194317-1.6533803-.37451-.4403676-.3550762-.7191967-.9008887-.8364914-1.6374396Zm5.4919877 1.3289239-1.1038869-4.377801 2.9393371-.7411691.1386416.5498243-2.3449316.5912883.3312398 1.3136365 2.0477298-.5163458.1348945.5349661-2.0477298.5163457.4991111 1.979372-.5944056.149883Zm7.8312783-4.2574039.5542995-.2152411c.174202.5220102.1579089.9979767-.0488813 1.4279036-.2067967.4299291-.5673409.7447476-1.0816348.9444536-.5923964.2300352-1.1350959.2084172-1.6281005-.0648521-.4930047-.273267-.8781945-.767051-1.1555653-1.481354-.2559214-.659059-.2829498-1.2508213-.0810832-1.7752891.2018688-.5244591.6018572-.9028187 1.199965-1.1350766.4761992-.1849096.913915-.2134946 1.3131497-.085757.3992303.1277504.7051284.3947616.9176941.8010357l-.560011.2174594c-.1613272-.2573861-.3710233-.422012-.6290884-.49388-.2580693-.0718574-.5471063-.0456573-.8671132.0786-.4266752.1656892-.6995729.4437304-.8186889.83413-.1191159.3904038-.0729035.857992.1386395 1.4027625.1997081.5142982.4822266.879166.8475599 1.0946013.365329.2154375.7499039.2447505 1.1537248.0879433.3447657-.1338781.585547-.3506778.7223438-.650399.1367905-.299719.1443872-.6287318.0227903-.9870405Zm1.3488893-1.2256441c.26064.516207.5834289.8596831.9683668 1.0304262.3849358.1707473.7880798.1497442 1.2094364-.0630073.4195268-.211827.6739493-.5228429.7632676-.9330478.0893141-.4102027.0036489-.8734054-.2569889-1.3896145-.2615645-.5180239-.5836702-.862416-.9663214-1.033174-.3826534-.1707495-.7837434-.1502118-1.2032745.0616109-.4213523.2127557-.6778309.524235-.7694295.9344441-.0916008.4102177-.0066189.8743364.2549435 1.3923624Zm-.5663673.2859689c-.3361611-.665774-.4296942-1.2715042-.280599-1.8171928.1490973-.5456823.5227874-.9695668 1.1210746-1.2716579.5964617-.3011603 1.157363-.3497384 1.682704-.1457388.5253367.2040103.956549.6398131 1.2936368 1.3074083.3361591.6657804.4306038 1.2710516.2833363 1.8158136-.147276.5447662-.5191428.9677305-1.1156023 1.268895-.5982894.3020869-1.1612447.3511305-1.6888681.147133-.5276256-.2039954-.9595189-.6388822-1.2956823-1.3046604Zm4.0430319-3.9254169 2.0812619 3.2349738-.4742904.3051401-2.4427903-3.7969043.7372128-.4742946 2.8098402 2.2997226c.0805622.0647986.1419361.1158194.1841239.1530643.0421856.0372492.0777715.0708453.1067579.1007903-.0271608-.0724253-.0498977-.1379776-.0682084-.1966591-.0183172-.0586773-.0341149-.1153326-.0473911-.1699659l-.8946327-3.531898.7397899-.4759536 2.4427903 3.7969043-.5000676.3217256-2.081264-3.2349738c.0233475.0627361.0452559.127001.0657231.1927946.020463.0658043.0397943.1317281.0579898.1977694l.8903967 3.5309777-.4871801.3134329-2.8210688-2.2888528c-.0481404-.037057-.0967741-.0786598-.145901-.1248103-.0491247-.046142-.1001561-.097135-.1530921-.1529832Zm4.1188349-2.7681008 2.415431 2.993727-.43892.3541346-2.8350047-3.5137516.6822357-.5504499 3.0397623 1.9858947c.0870316.0558077.1535127.0999683.1994433.1324861.0459284.0325221.084905.062119.1169296.0887888-.0347533-.0691031-.0643738-.1318477-.0888593-.1882318-.0244897-.056382-.0462572-.1110218-.0653046-.1639193L79.44809 84.4875975l.6846228-.5523736 2.8350047 3.5137516-.4627757.3733805-2.415431-2.9937249c.0299258.059875.0585833.1214283.0859726.1846555.0273871.0632378.0536576.1267127.0788157.1904288l1.2630705 3.4154445-.4508468.3637597-3.0497654-1.9738869c-.0518278-.0316936-.1046334-.067854-.158417-.1084809-.0537793-.0406228-.1099734-.0858637-.1685824-.1357272Zm6.1073068-.0909005-3.1553853-3.2291278 2.3018215-2.2492549.3920137.4011755-1.8677631 1.8251098.9425448.9645728 1.7252696-1.6858704.3684484.3770593-1.7252696 1.6858704 1.0582232 1.0829521 1.9050293-1.8615264.3941552.4033661-2.3390877 2.2856735Zm.3311266-6.0079299 1.1575018.9997253.6851821-.7933172c.2470927-.2860863.3753342-.5283494.3847266-.7267934.0093902-.1984356-.0941651-.3911511-.3106658-.5781446-.2025798-.1749642-.393709-.2428395-.5733811-.203626-.1796721.0392221-.399066.2088357-.6581815.5088387l-.6851821.7933172Zm-.793977.1080519 1.1439758-1.324517c.1856548-.2149485.3315024-.3650557.4375429-.4503237.1060427-.0852595.2154396-.1493983.3281908-.1924209.2030837-.0756942.4073758-.0902749.6128786-.0437379.2055049.0465477.4033618.1519584.5935707.3162384.1840257.1589445.3073158.3342802.3698726.526005.0625546.1917334.0634962.3977486.0028269.6180435.1519775-.1009333.296416-.1415582.4333132-.1218767.1368972.0196922.3165138.1133981.5388499.2811243l.597732.4474071c.1272956.0964496.2310665.1584.3113085.185849.0802376.0274555.1534315.0278975.2195817.001326l.0951045.0821421-.4627992.5358372c-.1085344-.0181378-.2869019-.119543-.5351028-.3042155-.0061875-.00534-.0108271-.0093476-.0139188-.0120207l-.4694137-.3568291c-.2422268-.1822065-.4327581-.2617161-.5715876-.2385266-.1388338.0231959-.3498259.1987152-.6329807.5265537l-.6491222.751565 1.4636945 1.2641808-.3966832.459289-3.4168344-2.951093Zm6.6968955-3.8991358.3469712-.4828949c.4308835.3423167.6770196.7500278.7384064 1.2231353.0613824.4731118-.0688917.9336904-.3908202 1.3817338-.3708184.5160831-.8373519.7941798-1.3995962.8342901-.5622464.0401146-1.1545126-.1633919-1.7767986-.6105214-.5741582-.4125471-.9197951-.8936378-1.0369083-1.4432764-.1171068-.5496301.0115339-1.0849783.3859265-1.6060427.2980878-.4148509.6492503-.6777135 1.0534939-.7885858.4042457-.1108595.8062966-.054091 1.2061568.1703096l-.3505476.4878719c-.2756605-.1276138-.541222-.1511022-.7966843-.0704653-.2554581.0806455-.4833454.2603582-.6836598.5391382-.2670817.3717151-.3439864.7536382-.2307121 1.1457714.1132786.3921397.4072136.7587113.8818093 1.0997192.4480455.3219328.8839187.4734556 1.3076196.4545705.4237031-.0188851.7619417-.204226 1.0147181-.5560269.2158133-.3003532.2992344-.6134316.2502655-.9392375-.0489732-.3257973-.2221844-.6056277-.5196402-.8394891Zm2.1776793-.2602856L88.3248534 74.31272l1.6408685-2.7685876.4825255.2859795-1.3314475 2.2465113 1.1601707.6876012 1.2298694-2.0751212.4535221.2687897-1.2298694 2.0751234 1.3025552.7719874 1.3580126-2.2913358.4851624.2875424-1.6674337 2.8134144Z" fill="#263F78" fill-rule="nonzero"/>
  </g>
</svg>
