<?xml version="1.0" encoding="UTF-8"?>
<svg width="100px" height="30px" viewBox="0 0 100 30" version="1.1" xmlns="http://www.w3.org/2000/svg" xmlns:xlink="http://www.w3.org/1999/xlink">
    <title>Promundo</title>
    <g id="Promundo" stroke="none" stroke-width="1" fill="none" fill-rule="evenodd">
        <g id="promundo-logo" transform="translate(0.000000, 0.000000)" fill-rule="nonzero">
            <path d="M9.22394678,2.2172949 C9.46784922,2.3059867 9.49002217,2.3059867 9.64523282,2.2172949 C9.93348115,2.06208426 10.1773836,1.88470067 10.5986696,1.97339246 C10.8203991,2.03991131 11.0199557,2.172949 11.1529933,2.32815965 C11.2195122,2.39467849 11.1751663,2.32815965 11.2195122,2.39467849 C10.886918,2.63858093 10.6651885,2.94900222 10.7095344,3.17073171 C10.7760532,3.59201774 11.0199557,4.05764967 11.2195122,3.65853659 C11.308204,3.48115299 11.5521064,2.90465632 11.5521064,2.86031042 C12.0399113,3.2594235 12.6829268,3.48115299 13.3259424,3.45898004 C13.4368071,3.45898004 13.8137472,3.41463415 13.7250554,3.23725055 C13.5476718,2.97117517 13.45898,2.79379157 13.2372506,2.79379157 C12.7050998,2.81596452 12.3946785,2.97117517 11.8625277,2.46119734 C11.7738359,2.37250554 11.7960089,2.35033259 11.8403548,2.28381375 C12.172949,1.79600887 12.5498891,1.30820399 12.9490022,0.88691796 C13.0820399,0.753880266 13.2372506,0.643015521 12.9046563,0.554323725 C12.5720621,0.465631929 12.2616408,0.532150776 12.1064302,0.776053215 C12.0177384,0.931263858 11.9068736,1.0864745 11.8403548,1.24168514 C11.7960089,1.30820399 11.7738359,1.28603104 11.751663,1.26385809 C11.6407982,1.10864745 11.5299335,0.953436807 11.4412417,0.798226164 C11.3525499,0.598669623 11.3525499,0.376940133 11.4412417,0.177383592 C11.5077605,0.110864745 11.5299335,0.022172949 11.4190687,0 C11.308204,0 11.1973392,0 11.0864745,0.044345898 C10.9534368,0.088691796 10.864745,0.199556541 10.8425721,0.332594235 C10.8203991,0.421286031 10.8203991,0.532150776 10.8425721,0.620842572 C10.9090909,0.842572062 11.0199557,1.06430155 11.1529933,1.26385809 C11.2416851,1.39689579 11.308204,1.52993348 11.3525499,1.70731707 C11.3525499,1.79600887 11.3303769,1.75166297 11.2416851,1.68514412 C10.9756098,1.50776053 10.6651885,1.41906874 10.3547672,1.44124169 C9.73392461,1.50776053 8.66962306,2.01773836 9.22394678,2.2172949 M18.6474501,18.248337 C18.4922395,18.0044346 18.3370288,17.7383592 18.1596452,17.6718404 C18.0487805,17.6496674 17.9157428,17.6718404 17.804878,17.6940133 C17.1175166,17.7827051 16.4966741,17.9822616 15.6984479,17.5166297 C15.0997783,17.1396896 14.5454545,16.6962306 14.0576497,16.2084257 L13.9689579,16.1197339 C14.1019956,15.4101996 14.7006652,13.9911308 14.7006652,12.9933481 C14.7006652,12.0842572 13.4146341,12.7494457 13.059867,13.2815965 C12.2172949,14.5011086 13.3702882,15.3658537 13.037694,15.4323725 C12.9046563,15.4545455 12.3725055,15.0554324 11.6186253,14.9223947 C11.1086475,14.8558758 10.5764967,14.8780488 10.0665188,14.9889135 C9.02439024,15.232816 8.33702882,15.9423503 7.62749446,16.6962306 C7.53880266,16.8292683 7.33924612,16.8736142 7.20620843,16.7627494 C6.67405765,16.4745011 6.31929047,15.7206208 6.23059867,15.3215078 C6.14190687,14.8337029 6.11973392,14.345898 6.14190687,13.8580931 C6.16407982,13.6141907 6.16407982,13.45898 6.36363636,13.481153 C6.85144124,13.5254989 7.7383592,13.8137472 8.31485588,13.2815965 C8.8248337,12.8159645 8.66962306,11.6407982 8.02660754,11.9512195 C7.53880266,12.195122 6.80709534,12.594235 6.25277162,12.8159645 C5.5210643,11.1308204 5.18847007,10.2439024 3.83592018,10.2882483 C3.3037694,10.3104213 2.94900222,10.7317073 2.86031042,10.421286 C2.41685144,9.44567627 3.56984479,8.71396896 4.14634146,8.35920177 C4.4789357,8.64745011 4.83370288,8.89135255 5.21064302,9.09090909 C5.74279379,9.31263858 6.89578714,8.38137472 6.36363636,8.22616408 C5.69844789,8.04878049 4.70066519,7.7827051 4.67849224,7.7827051 C5.5210643,7.05099778 5.49889135,6.18625277 5.03325942,5.5210643 C4.85587583,5.32150776 4.65631929,5.14412417 4.41241685,5.03325942 C4.23503326,4.92239468 4.25720621,4.81152993 4.30155211,4.72283814 C4.5232816,4.345898 5.23281596,3.96895787 5.74279379,3.92461197 C5.89800443,3.90243902 5.94235033,3.92461197 5.98669623,4.01330377 C6.00886918,4.05764967 6.29711752,4.5232816 6.6075388,5.16629712 C6.6962306,5.41019956 6.6962306,5.67627494 6.6518847,5.94235033 C6.5631929,6.29711752 6.89578714,6.36363636 7.11751663,6.38580931 C7.47228381,6.45232816 7.53880266,6.31929047 7.51662971,6.09756098 C7.51662971,5.85365854 7.49445676,5.63192905 7.45011086,5.38802661 C7.31707317,5.14412417 7.18403548,5.01108647 7.07317073,4.78935698 C7.22838137,4.78935698 8.33702882,5.14412417 8.47006652,5.18847007 C8.60310421,5.21064302 8.71396896,5.18847007 8.80266075,5.07760532 C8.89135255,4.96674058 8.9578714,4.83370288 9.02439024,4.72283814 C9.11308204,4.56762749 9.00221729,4.50110865 8.89135255,4.4789357 C8.11529933,4.345898 7.36141907,4.19068736 6.6075388,3.96895787 C6.51884701,3.92461197 6.58536585,3.92461197 6.71840355,3.90243902 C6.89578714,3.85809313 7.51662971,3.70288248 7.80487805,3.37028825 C7.93791574,3.19290466 8.02660754,2.97117517 8.07095344,2.74944568 C8.09312639,2.66075388 8.02660754,2.59423503 7.93791574,2.57206208 C7.93791574,2.57206208 7.93791574,2.57206208 7.93791574,2.57206208 C7.8713969,2.57206208 7.76053215,2.54988914 7.67184035,2.54988914 C7.58314856,2.54988914 7.51662971,2.61640798 7.49445676,2.70509978 C7.47228381,2.92682927 7.33924612,3.12638581 7.13968958,3.23725055 C6.91796009,3.37028825 6.6518847,3.4368071 6.38580931,3.4368071 C6.31929047,3.4368071 6.23059867,3.4368071 6.16407982,3.4368071 C6.20842572,2.94900222 6.20842572,2.50554324 5.98669623,2.37250554 C5.5654102,2.10643016 4.83370288,1.99556541 5.07760532,2.46119734 C5.18847007,2.66075388 5.5654102,3.3481153 5.58758315,3.37028825 C3.94678492,3.63636364 3.52549889,4.85587583 3.45898004,4.98891353 C3.3924612,5.12195122 3.4368071,5.29933481 3.56984479,5.36585366 C3.59201774,5.38802661 3.61419069,5.38802661 3.65853659,5.38802661 C3.96895787,5.4767184 4.36807095,5.654102 4.4789357,5.98669623 C4.63414634,6.51884701 4.4345898,7.09534368 3.96895787,7.38359202 C3.83592018,7.47228381 2.19512195,6.18625277 1.52993348,5.6097561 C1.41906874,5.49889135 1.24168514,5.49889135 1.10864745,5.6097561 C0.864745011,5.87583149 0.753880266,5.98669623 0.643015521,6.09756098 C0.532150776,6.20842572 0.620842572,6.31929047 0.798226164,6.43015521 C1.24168514,6.6962306 2.06208426,7.11751663 2.35033259,7.36141907 C2.46119734,7.45011086 2.48337029,7.42793792 2.23946785,7.45011086 C1.79600887,7.47228381 0.953436807,7.47228381 0.576496674,7.45011086 C0.421286031,7.42793792 0.266075388,7.56097561 0.266075388,7.71618625 C0.266075388,7.7383592 0.266075388,7.7383592 0.266075388,7.76053215 C0.243902439,7.89356984 0.243902439,8.20399113 0.22172949,8.38137472 C0.199556541,8.49223947 0.310421286,8.60310421 0.421286031,8.62527716 C0.44345898,8.62527716 0.465631929,8.62527716 0.509977827,8.62527716 C1.39689579,8.38137472 2.32815965,8.22616408 3.2594235,8.15964523 C2.81596452,8.49223947 2.43902439,8.8691796 2.10643016,9.31263858 C1.57427938,10.2439024 2.06208426,10.9090909 2.32815965,11.3303769 C2.43902439,11.4855876 2.70509978,11.6186253 2.88248337,11.5077605 C3.32594235,11.1308204 3.96895787,11.1308204 4.3902439,11.5077605 C4.78935698,11.9512195 5.05543237,12.5055432 5.14412417,13.1042129 C4.345898,13.3259424 2.72727273,13.5033259 2.2616408,13.4146341 C1.84035477,13.3259424 1.52993348,13.037694 1.2195122,12.8381375 C0.909090909,12.6385809 0.554323725,13.1485588 0.354767184,13.3481153 C0.155210643,13.5476718 0.22172949,13.7915743 0.509977827,13.9689579 C0.842572062,14.1906874 1.2195122,14.345898 1.59645233,14.4789357 C1.99556541,14.5454545 2.59423503,14.5454545 2.97117517,14.6341463 C3.2594235,14.7006652 3.2594235,14.7228381 3.08203991,14.9223947 C2.66075388,15.2993348 1.81818182,16.1197339 1.35254989,16.6075388 C1.0421286,16.962306 1.30820399,17.2727273 1.44124169,17.4279379 C1.72949002,17.804878 2.2616408,17.8713969 2.43902439,17.5831486 C3.03769401,16.6740576 4.27937916,14.9002217 5.09977827,14.1906874 C5.03325942,14.767184 5.09977827,15.3658537 5.27716186,15.9201774 C5.94235033,17.4944568 6.78492239,17.9600887 7.36141907,18.248337 C7.62749446,18.3592018 7.93791574,18.2926829 8.13747228,18.0709534 C8.69179601,17.2727273 9.82261641,16.2527716 10.3991131,16.2084257 C11.1308204,16.097561 11.8625277,16.2971175 12.4390244,16.7405765 C12.8603104,17.0066519 10.9312639,20.3991131 10.0665188,21.4634146 C9.64523282,21.9955654 9.33481153,22.6829268 10.1773836,22.7494457 C11.0643016,22.8159645 12.3281596,22.9711752 12.4611973,22.3059867 C12.594235,21.72949 12.8824834,20.4878049 13.1707317,19.6452328 C13.3924612,20.1773836 13.902439,21.8847007 14.1241685,22.4833703 C14.2350333,22.7937916 14.5676275,22.9490022 14.8780488,22.8381375 C14.8780488,22.8381375 14.9002217,22.8381375 14.9002217,22.8381375 C15.1884701,22.7050998 15.4323725,22.616408 15.7206208,22.4611973 C15.9423503,22.3503326 16.0088692,22.1064302 15.9201774,21.8847007 C15.8980044,21.8403548 15.8758315,21.7960089 15.8314856,21.7738359 C15.5654102,21.4634146 14.4124169,19.7117517 14.0354767,18.1818182 C14.2572062,18.3813747 14.5232816,18.5809313 14.789357,18.7361419 C15.5875831,19.1574279 16.4966741,19.4456763 17.405765,19.2904656 C18.0931264,19.1574279 19.135255,18.9800443 18.6474501,18.248337" id="Shape" fill="#F15A22"></path>
            <path d="M35.7206208,17.2505543 C35.7206208,18.0266075 35.2771619,18.4035477 34.368071,18.4035477 L32.8603104,18.4035477 C32.7272727,18.4035477 32.6385809,18.3148559 32.6385809,18.1818182 L32.6385809,16.2971175 C32.6385809,16.1640798 32.7272727,16.075388 32.8603104,16.075388 L34.368071,16.075388 C35.0110865,16.075388 35.6984479,16.4523282 35.7206208,17.2505543 M38.2261641,22.1286031 C38.2039911,22.0620843 37.4722838,20.0221729 37.0953437,19.2461197 C37.5831486,18.6696231 37.8713969,17.9600887 37.9157428,17.2062084 C37.9157428,15.5875831 36.6518847,14.2572062 35.1219512,14.2572062 L31.72949,14.2572062 C31.0199557,14.3015521 30.4656319,14.8558758 30.443459,15.5432373 L30.443459,22.3281596 C30.443459,22.616408 30.6873614,22.8603104 30.9756098,22.8603104 C30.9756098,22.8603104 30.9756098,22.8603104 30.9756098,22.8603104 L32.1064302,22.8603104 C32.3946785,22.8603104 32.6385809,22.616408 32.6385809,22.3281596 L32.6385809,20.443459 C32.6385809,20.3104213 32.7272727,20.2217295 32.8603104,20.2217295 L34.5676275,20.2217295 C35.2549889,20.2217295 35.3215078,20.2882483 35.5432373,20.864745 L36.097561,22.3725055 C36.1419069,22.5277162 36.2749446,22.8603104 36.6297118,22.8603104 L37.7605322,22.8603104 C37.9379157,22.8603104 38.1152993,22.7494457 38.2039911,22.594235 C38.248337,22.5277162 38.27051,22.4390244 38.27051,22.3503326 C38.2926829,22.2838137 38.27051,22.195122 38.2261641,22.1286031" id="Shape" fill="#006288"></path>
            <path d="M77.6053215,14.2572062 L74.6119734,14.2572062 C73.3037694,14.2128603 72.2172949,15.232816 72.172949,16.518847 C72.172949,16.5853659 72.172949,16.6297118 72.172949,16.6962306 L72.172949,22.3503326 C72.172949,22.6385809 72.4168514,22.8824834 72.7050998,22.8824834 L73.8359202,22.8824834 C74.1241685,22.8824834 74.368071,22.6385809 74.368071,22.3503326 C74.368071,22.3503326 74.368071,22.3503326 74.368071,22.3503326 L74.368071,17.4501109 C74.368071,16.5853659 74.8337029,16.1197339 75.7427938,16.1197339 L76.8514412,16.1197339 C77.6940133,16.1197339 78.2039911,16.6297118 78.2039911,17.4722838 L78.2039911,22.3503326 C78.2039911,22.6385809 78.4478936,22.8824834 78.7361419,22.8824834 L79.8669623,22.8824834 C80.1552106,22.8824834 80.3991131,22.6385809 80.3991131,22.3503326 L80.3991131,17.0509978 C80.443459,15.5432373 79.2461197,14.2793792 77.7161863,14.2572062 C77.6940133,14.2572062 77.6496674,14.2572062 77.6053215,14.2572062" id="Path" fill="#006288"></path>
            <path d="M70.3991131,14.4124169 L69.2682927,14.4124169 C68.9800443,14.4124169 68.7361419,14.6563193 68.7361419,14.9445676 L68.7361419,19.8447894 C68.7361419,20.7095344 68.27051,21.1751663 67.3614191,21.1751663 L66.2527716,21.1751663 C65.4101996,21.1751663 64.9002217,20.6651885 64.9002217,19.8226164 L64.9002217,14.9445676 C64.9002217,14.6563193 64.6563193,14.4124169 64.368071,14.4124169 L63.2150776,14.4124169 C62.9268293,14.4124169 62.6829268,14.6563193 62.6829268,14.9445676 L62.6829268,14.9445676 L62.6829268,20.2217295 C62.6385809,21.72949 63.8359202,22.9933481 65.3658537,23.0155211 C65.4101996,23.0155211 65.4545455,23.0155211 65.4988914,23.0155211 L68.4922395,23.0155211 C69.8004435,23.059867 70.886918,22.0620843 70.9312639,20.7538803 C70.9312639,20.6873614 70.9312639,20.6430155 70.9312639,20.5764967 L70.9312639,14.9445676 C70.9312639,14.6563193 70.6873614,14.4124169 70.3991131,14.4124169 L70.3991131,14.4124169" id="Path" fill="#006288"></path>
            <path d="M58.27051,14.2572062 L57.3392461,14.2572062 C56.54102,14.2572062 55.7649667,14.6341463 55.2771619,15.2771619 C54.767184,14.6341463 54.0133038,14.2572062 53.1929047,14.2572062 L52.2394678,14.2572062 C50.2439024,14.2572062 49.0687361,15.4323725 49.0687361,17.4279379 L49.0687361,22.3281596 C49.0687361,22.616408 49.3126386,22.8603104 49.6008869,22.8603104 L50.7317073,22.8603104 C51.0199557,22.8603104 51.2638581,22.616408 51.2638581,22.3281596 L51.2638581,17.4501109 C51.2638581,16.5853659 51.751663,16.097561 52.616408,16.097561 L52.9933481,16.097561 C53.7250554,16.097561 54.1463415,16.6075388 54.1463415,17.4722838 L54.1463415,22.3503326 C54.1463415,22.4833703 54.2128603,22.6385809 54.3015521,22.7272727 C54.4124169,22.8381375 54.5454545,22.8824834 54.6784922,22.8824834 L55.8093126,22.8824834 C56.097561,22.8824834 56.3414634,22.6385809 56.3414634,22.3503326 L56.3414634,17.4722838 C56.3414634,16.518847 56.6962306,16.097561 57.4944568,16.097561 L57.8713969,16.097561 C58.7361419,16.097561 59.2239468,16.5853659 59.2239468,17.4501109 L59.2239468,22.3503326 C59.2239468,22.6385809 59.4678492,22.8824834 59.7560976,22.8824834 L60.886918,22.8824834 C61.1751663,22.8824834 61.4190687,22.6385809 61.4190687,22.3503326 L61.4190687,17.4501109 C61.4634146,15.4767184 60.2439024,14.2572062 58.27051,14.2572062" id="Path" fill="#006288"></path>
            <path d="M95.2993348,21.0864745 C93.9467849,21.0864745 93.037694,20.0886918 93.037694,18.6031042 C93.037694,17.1175166 93.9467849,16.1197339 95.2993348,16.1197339 C96.6518847,16.1197339 97.6496674,17.1396896 97.6496674,18.6031042 C97.6496674,20.0665188 96.6962306,21.0864745 95.2993348,21.0864745 M95.3215078,14.1019956 C92.7050998,14.1019956 90.864745,15.9645233 90.864745,18.6252772 C90.864745,21.2195122 92.6829268,23.037694 95.2993348,23.037694 C97.9600887,23.037694 99.8004435,21.2195122 99.8004435,18.6252772 C99.8004435,15.9423503 97.9600887,14.1019956 95.3215078,14.1019956" id="Shape" fill="#006288"></path>
            <path d="M43.4368071,21.0864745 C42.0842572,21.0864745 41.1751663,20.0886918 41.1751663,18.6031042 C41.1751663,17.1175166 42.0842572,16.1197339 43.4368071,16.1197339 C44.8337029,16.1197339 45.7871397,17.1396896 45.7871397,18.6031042 C45.7871397,20.0665188 44.8337029,21.0864745 43.4368071,21.0864745 M43.45898,14.1019956 C40.8203991,14.1019956 39.0022173,15.9645233 39.0022173,18.6252772 C39.0022173,21.2195122 40.8203991,23.037694 43.4368071,23.037694 C46.075388,23.037694 47.9379157,21.2195122 47.9379157,18.6252772 C47.9379157,15.9423503 46.097561,14.1019956 43.45898,14.1019956" id="Shape" fill="#006288"></path>
            <path d="M26.9844789,17.4501109 C26.9844789,17.8492239 26.8514412,18.8026608 25.631929,18.8026608 L23.7472284,18.8026608 C23.6141907,18.8026608 23.5254989,18.713969 23.5254989,18.5809313 L23.5254989,16.3192905 C23.5254989,16.1862528 23.6141907,16.097561 23.7472284,16.097561 L25.631929,16.097561 C26.8514412,16.097561 26.9844789,17.0288248 26.9844789,17.4501109 M26.3858093,14.2572062 L22.616408,14.2572062 C21.9068736,14.2793792 21.3303769,14.8558758 21.308204,15.5654102 L21.308204,22.3503326 C21.308204,22.6385809 21.5521064,22.8824834 21.8403548,22.8824834 L22.9711752,22.8824834 C23.2594235,22.8824834 23.5033259,22.6385809 23.5033259,22.3503326 L23.5033259,20.8425721 C23.5033259,20.7095344 23.5920177,20.6208426 23.7250554,20.6208426 L26.3858093,20.6208426 C28.0487805,20.6208426 29.1796009,18.9356984 29.1796009,17.4501109 C29.1796009,15.9645233 28.0266075,14.2572062 26.3858093,14.2572062" id="Shape" fill="#006288"></path>
            <path d="M87.6940133,18.5365854 C87.6940133,19.7560976 87.1396896,21.0421286 85.5875831,21.0421286 L84.0798226,21.0421286 C83.9467849,21.0421286 83.8580931,20.9534368 83.8580931,20.8203991 L83.8580931,16.3192905 C83.8580931,16.1862528 83.9467849,16.097561 84.0798226,16.097561 L85.5875831,16.097561 C86.9179601,16.097561 87.6940133,17.0066519 87.6940133,18.5365854 M86.3414634,14.2572062 L82.9711752,14.2572062 C82.2616408,14.3015521 81.7073171,14.8558758 81.6629712,15.5432373 L81.6629712,21.5742794 C81.7073171,22.2616408 82.2616408,22.8159645 82.9490022,22.8603104 L86.3414634,22.8603104 C88.5144124,22.8603104 89.8891353,21.1751663 89.8891353,18.5587583 C89.9113082,16.1862528 88.2926829,14.2572062 86.3414634,14.2572062" id="Shape" fill="#006288"></path>
            <polygon id="Path" fill="#F15A22" points="23.7694013 28.5144124 23.2815965 28.5144124 23.2815965 27.2283814 21.8181818 27.2283814 21.8181818 28.5144124 21.308204 28.5144124 21.308204 25.5875831 21.7960089 25.5875831 21.7960089 26.7405765 23.2594235 26.7405765 23.2594235 25.5875831 23.7472284 25.5875831"></polygon>
            <path d="M26.3858093,27.5609756 L24.9889135,27.5609756 C24.9889135,27.7383592 25.0776053,27.8935698 25.210643,28.0266075 C25.3436807,28.1152993 25.4988914,28.1818182 25.654102,28.1818182 C25.8758315,28.1818182 26.097561,28.1374723 26.2749446,28.0266075 L26.2971175,28.4257206 C26.075388,28.5365854 25.8536585,28.5809313 25.6097561,28.5809313 C25.4545455,28.5809313 25.2771619,28.5587583 25.1441242,28.4922395 C25.0110865,28.4478936 24.9002217,28.3592018 24.789357,28.27051 C24.7006652,28.1818182 24.6119734,28.0487805 24.5676275,27.9379157 C24.4789357,27.6718404 24.4789357,27.3614191 24.5676275,27.0953437 C24.6119734,26.962306 24.6784922,26.8514412 24.767184,26.7627494 C24.8558758,26.6740576 24.9667406,26.5853659 25.0776053,26.54102 C25.3215078,26.4301552 25.6097561,26.4301552 25.8536585,26.518847 C25.9645233,26.5631929 26.0532151,26.6297118 26.1419069,26.6962306 C26.2305987,26.7849224 26.2971175,26.8736142 26.3414634,26.9844789 C26.3858093,27.0953437 26.4079823,27.2283814 26.4079823,27.3392461 C26.4079823,27.383592 26.4079823,27.405765 26.4079823,27.4501109 C26.4079823,27.4722838 26.3858093,27.5166297 26.3858093,27.5609756 Z M25.5210643,26.8070953 C25.2549889,26.7849224 25.0554324,26.9844789 25.0110865,27.2283814 L25.9201774,27.2283814 C25.9201774,27.1175166 25.8980044,27.0066519 25.8314856,26.9179601 C25.7427938,26.8514412 25.631929,26.8070953 25.5210643,26.8070953 Z" id="Shape" fill="#F15A22"></path>
            <path d="M28.8691796,28.1818182 L28.8248337,28.5809313 L28.691796,28.5809313 C28.4922395,28.6031042 28.2926829,28.4922395 28.2039911,28.3148559 C28.0487805,28.4922395 27.804878,28.5809313 27.5609756,28.5809313 C27.4722838,28.5809313 27.383592,28.5587583 27.3170732,28.5365854 C27.2505543,28.5144124 27.1840355,28.4700665 27.1175166,28.4035477 C27.0509978,28.3592018 27.0066519,28.2926829 26.9844789,28.2039911 C26.962306,28.1152993 26.940133,28.0266075 26.940133,27.9600887 C26.940133,27.827051 26.9844789,27.6940133 27.0731707,27.6053215 C27.1618625,27.5166297 27.2505543,27.4279379 27.383592,27.383592 C27.5166297,27.3170732 27.6274945,27.2949002 27.7605322,27.2505543 C27.8935698,27.2283814 28.0044346,27.2062084 28.1374723,27.2062084 C28.1374723,27.0953437 28.1152993,26.9844789 28.0487805,26.8957871 C27.9600887,26.8292683 27.8492239,26.8070953 27.7383592,26.8070953 C27.5388027,26.8070953 27.3392461,26.8736142 27.1840355,26.9844789 L27.1396896,26.6075388 C27.3614191,26.4745011 27.6274945,26.4079823 27.8713969,26.4079823 C28.0709534,26.3858093 28.2926829,26.4745011 28.4257206,26.6075388 C28.5587583,26.8070953 28.6252772,27.0509978 28.6031042,27.2949002 L28.6031042,27.804878 C28.6031042,27.8935698 28.6031042,27.9379157 28.6031042,28.0044346 C28.6031042,28.0487805 28.6252772,28.0709534 28.6252772,28.1152993 C28.6474501,28.1374723 28.6696231,28.1596452 28.691796,28.1596452 C28.7361419,28.1596452 28.7583149,28.1818182 28.8026608,28.1818182 L28.8691796,28.1818182 Z M28.1374723,28.0044346 L28.1374723,27.5166297 C27.9600887,27.5166297 27.7827051,27.5609756 27.6274945,27.6274945 C27.5166297,27.6718404 27.4279379,27.7827051 27.4279379,27.9157428 C27.4279379,28.0931264 27.5166297,28.1818182 27.7161863,28.1818182 C27.7827051,28.1818182 27.8713969,28.1596452 27.9379157,28.1374723 C28.0266075,28.1152993 28.0931264,28.0709534 28.1374723,28.0044346 L28.1374723,28.0044346 Z" id="Shape" fill="#F15A22"></path>
            <path d="M30.2439024,28.1818182 L30.1995565,28.5809313 L30.0221729,28.5809313 C29.8669623,28.5809313 29.7339246,28.5365854 29.6230599,28.4257206 C29.5343681,28.3148559 29.4900222,28.1818182 29.4900222,28.0487805 L29.4900222,25.4101996 L29.9556541,25.4101996 L29.9556541,27.8492239 C29.9556541,27.9157428 29.9556541,27.9822616 29.9556541,28.0487805 C29.9556541,28.0931264 29.9778271,28.1152993 30,28.1596452 C30.0221729,28.1818182 30.0443459,28.2039911 30.0886918,28.2039911 C30.1552106,28.1818182 30.1995565,28.1818182 30.2439024,28.1818182 Z" id="Path" fill="#F15A22"></path>
            <path d="M31.9733925,28.1818182 L31.9290466,28.5809313 L31.5742794,28.5809313 C31.4855876,28.5809313 31.4190687,28.5587583 31.3303769,28.5365854 C31.2638581,28.5144124 31.1973392,28.4700665 31.1529933,28.4257206 C31.1086475,28.3813747 31.0643016,28.3148559 31.0421286,28.248337 C31.0199557,28.1818182 30.9977827,28.1152993 31.0199557,28.0487805 L31.0199557,26.8292683 L30.7095344,26.8292683 L30.7538803,26.4523282 L31.0199557,26.4523282 L31.0199557,25.9866962 L31.4855876,25.9423503 L31.4855876,26.4745011 L31.9733925,26.4745011 L31.9733925,26.8514412 L31.4855876,26.8514412 L31.4855876,27.827051 C31.4855876,27.8935698 31.4855876,27.9600887 31.4855876,28.0266075 C31.4855876,28.0709534 31.5077605,28.0931264 31.5299335,28.1374723 C31.5521064,28.1596452 31.5964523,28.1818182 31.6407982,28.1818182 C31.6851441,28.1818182 31.751663,28.1818182 31.8403548,28.1818182 L31.9733925,28.1818182 Z" id="Path" fill="#F15A22"></path>
            <path d="M34.4789357,28.5144124 L34.0133038,28.5144124 L34.0133038,27.405765 C34.0354767,27.2505543 33.9911308,27.0953437 33.924612,26.940133 C33.8359202,26.8292683 33.7250554,26.7849224 33.5920177,26.8070953 C33.4146341,26.8070953 33.2594235,26.8736142 33.1485588,27.0066519 L33.1485588,28.5144124 L32.6829268,28.5144124 L32.6829268,25.3658537 L33.1485588,25.3658537 L33.1485588,26.5631929 C33.2815965,26.4523282 33.45898,26.3858093 33.6363636,26.3858093 C34.2128603,26.3858093 34.5011086,26.7184035 34.5011086,27.383592 L34.4789357,28.5144124 Z" id="Path" fill="#F15A22"></path>
            <polygon id="Path" fill="#F15A22" points="37.1618625 26.4523282 35.8758315 29.5343681 35.3880266 29.5343681 35.8536585 28.4035477 34.9889135 26.4523282 35.4988914 26.4523282 36.075388 27.8492239 36.6297118 26.4523282"></polygon>
            <polygon id="Path" fill="#F15A22" points="42.0620843 28.5144124 41.5521064 28.5144124 41.286031 26.4745011 40.5321508 27.8713969 39.7560976 26.4745011 39.4900222 28.5144124 38.9800443 28.5144124 39.3791574 25.5875831 39.8004435 25.5875831 40.5321508 26.962306 41.2638581 25.5875831 41.6629712 25.5875831"></polygon>
            <path d="M44.5676275,28.1818182 L44.5232816,28.5809313 L44.368071,28.5809313 C44.1685144,28.6031042 43.9689579,28.4922395 43.8802661,28.3148559 C43.7250554,28.4922395 43.481153,28.5809313 43.2372506,28.5809313 C43.1485588,28.5809313 43.059867,28.5587583 42.9933481,28.5365854 C42.9268293,28.5144124 42.8603104,28.4700665 42.7937916,28.4035477 C42.7494457,28.3370288 42.7050998,28.27051 42.6607539,28.2039911 C42.6385809,28.1152993 42.616408,28.0487805 42.616408,27.9600887 C42.616408,27.827051 42.6607539,27.6940133 42.7494457,27.6053215 C42.8381375,27.5166297 42.9268293,27.4279379 43.059867,27.383592 C43.1929047,27.3170732 43.3037694,27.2949002 43.45898,27.2505543 C43.5920177,27.2283814 43.7028825,27.2062084 43.8359202,27.2062084 C43.8359202,27.0953437 43.8137472,26.9844789 43.7472284,26.8957871 C43.6585366,26.8292683 43.5476718,26.8070953 43.4368071,26.8070953 C43.2372506,26.8070953 43.037694,26.8736142 42.8824834,26.9844789 L42.8381375,26.5853659 C43.059867,26.4523282 43.3259424,26.3858093 43.5698448,26.3858093 C43.7694013,26.3636364 43.9911308,26.4523282 44.1241685,26.5853659 C44.2572062,26.7849224 44.3237251,27.0288248 44.3015521,27.2727273 L44.3015521,27.7827051 C44.3015521,27.8713969 44.3015521,27.9157428 44.3015521,27.9822616 C44.3015521,28.0266075 44.3237251,28.0487805 44.3237251,28.0931264 C44.345898,28.1152993 44.368071,28.1374723 44.3902439,28.1374723 C44.4345898,28.1374723 44.4567627,28.1596452 44.5011086,28.1596452 L44.5676275,28.1818182 Z M43.8359202,28.0044346 L43.8359202,27.5166297 C43.6585366,27.5166297 43.481153,27.5609756 43.3259424,27.6274945 C43.2150776,27.6718404 43.1263858,27.7827051 43.1263858,27.9157428 C43.1263858,28.0931264 43.2150776,28.1818182 43.4146341,28.1818182 C43.481153,28.1818182 43.5698448,28.1596452 43.6363636,28.1374723 C43.7250554,28.1152993 43.7915743,28.0709534 43.8359202,28.0044346 Z" id="Shape" fill="#F15A22"></path>
            <path d="M45.7871397,28.5587583 C45.5432373,28.5809313 45.2993348,28.5144124 45.0776053,28.4035477 L45.1219512,27.9822616 C45.1662971,28.0044346 45.210643,28.0266075 45.2549889,28.0487805 C45.2993348,28.0709534 45.3658537,28.0931264 45.4101996,28.1152993 C45.4767184,28.1374723 45.5210643,28.1596452 45.5875831,28.1596452 C45.654102,28.1818182 45.6984479,28.1818182 45.7649667,28.1818182 C45.8536585,28.1818182 45.9423503,28.1596452 46.0310421,28.1152993 C46.075388,28.0709534 46.1197339,28.0044346 46.1197339,27.9379157 C46.1197339,27.8713969 46.075388,27.804878 46.0310421,27.7605322 C45.9645233,27.7161863 45.8980044,27.6718404 45.8093126,27.6496674 C45.7206208,27.6274945 45.631929,27.5831486 45.5432373,27.5609756 C45.4767184,27.5388027 45.3880266,27.4944568 45.3215078,27.4722838 C45.1884701,27.383592 45.0997783,27.2283814 45.1219512,27.0509978 C45.1219512,26.962306 45.1441242,26.8957871 45.1662971,26.8070953 C45.1884701,26.7184035 45.232816,26.6518847 45.2993348,26.6075388 C45.3658537,26.54102 45.4545455,26.4966741 45.5432373,26.4745011 C45.654102,26.4301552 45.7649667,26.4079823 45.8980044,26.4301552 C46.1197339,26.4301552 46.3414634,26.4745011 46.518847,26.5853659 L46.4745011,27.0066519 C46.3192905,26.8736142 46.1197339,26.7849224 45.9201774,26.7849224 C45.8314856,26.7849224 45.7427938,26.8070953 45.654102,26.8514412 C45.5875831,26.8957871 45.5432373,26.962306 45.5432373,27.0288248 C45.5432373,27.0731707 45.5654102,27.1175166 45.5875831,27.1618625 C45.6097561,27.2062084 45.654102,27.2283814 45.6984479,27.2505543 C45.7427938,27.2727273 45.8093126,27.2949002 45.8536585,27.2949002 L46.0310421,27.3392461 C46.4079823,27.4279379 46.6075388,27.6496674 46.6075388,27.9822616 C46.6075388,28.0487805 46.6075388,28.1152993 46.5853659,28.1818182 C46.5631929,28.248337 46.518847,28.3148559 46.4745011,28.3813747 C46.4079823,28.4478936 46.3192905,28.4922395 46.2305987,28.5365854 C46.075388,28.5365854 45.9423503,28.5587583 45.7871397,28.5587583 Z" id="Path" fill="#F15A22"></path>
            <path d="M48.1818182,28.5587583 C48.0266075,28.5587583 47.8935698,28.5365854 47.7605322,28.4700665 C47.6496674,28.4257206 47.5388027,28.3370288 47.4501109,28.248337 C47.3614191,28.1596452 47.2949002,28.0266075 47.2505543,27.9157428 C47.1618625,27.6274945 47.1618625,27.3392461 47.2505543,27.0509978 C47.2949002,26.9179601 47.3614191,26.8070953 47.4501109,26.7184035 C47.5388027,26.6297118 47.6496674,26.54102 47.7605322,26.4966741 C47.8935698,26.4301552 48.0487805,26.4079823 48.1818182,26.4079823 C48.4035477,26.4079823 48.6252772,26.4523282 48.8026608,26.5631929 L48.7583149,26.9844789 C48.6031042,26.8736142 48.4035477,26.8292683 48.2261641,26.8292683 C48.0709534,26.8292683 47.9157428,26.8957871 47.804878,27.0066519 C47.6940133,27.1396896 47.6496674,27.3170732 47.6496674,27.4944568 C47.6496674,27.6718404 47.6940133,27.8492239 47.804878,27.9822616 C47.9157428,28.1152993 48.0709534,28.1818182 48.2261641,28.1596452 C48.4257206,28.1596452 48.6031042,28.1152993 48.7583149,28.0044346 L48.8026608,28.4035477 C48.6252772,28.5365854 48.4035477,28.5809313 48.1818182,28.5587583 Z" id="Path" fill="#F15A22"></path>
            <path d="M51.286031,28.5144124 L50.8425721,28.5144124 L50.8203991,28.3592018 C50.6873614,28.4922395 50.5099778,28.5587583 50.3325942,28.5587583 C49.7782705,28.5587583 49.4900222,28.2261641 49.4900222,27.5831486 L49.4900222,26.4301552 L49.9556541,26.4301552 L49.9556541,27.5388027 C49.9334812,27.6940133 49.9778271,27.8492239 50.0665188,28.0044346 C50.1552106,28.1152993 50.2660754,28.1596452 50.3991131,28.1596452 C50.5543237,28.1596452 50.7095344,28.0931264 50.8203991,27.9600887 L50.8203991,26.4301552 L51.286031,26.4301552 L51.286031,28.5144124 Z" id="Path" fill="#F15A22"></path>
            <path d="M52.8603104,28.1818182 L52.8159645,28.5809313 L52.6385809,28.5809313 C52.4833703,28.6031042 52.3503326,28.5365854 52.2394678,28.4257206 C52.1507761,28.3148559 52.1064302,28.1818182 52.1064302,28.0487805 L52.1064302,25.4101996 L52.5720621,25.4101996 L52.5720621,27.8492239 C52.5720621,27.9157428 52.5720621,27.9822616 52.5720621,28.0487805 C52.5720621,28.0931264 52.594235,28.1152993 52.616408,28.1596452 C52.6385809,28.1818182 52.6607539,28.2039911 52.7050998,28.2039911 C52.7494457,28.1818182 52.8159645,28.1818182 52.8603104,28.1818182 Z" id="Path" fill="#F15A22"></path>
            <path d="M54.5476718,26.075388 L53.5476718,26.075388 L53.5476718,25.5875831 L54.5476718,25.5875831 L54.5476718,26.075388 Z M54.5476718,28.5144124 L53.5476718,28.5144124 L53.5476718,26.4301552 L54.5476718,26.4301552 L54.5476718,28.5144124 Z" id="Shape" fill="#F15A22"></path>
            <path d="M56.6962306,28.5144124 L56.2305987,28.5144124 L56.2305987,27.383592 C56.2527716,27.2283814 56.2084257,27.0731707 56.1197339,26.940133 C56.0310421,26.8292683 55.8980044,26.7849224 55.7649667,26.8070953 C55.5875831,26.8070953 55.4323725,26.8736142 55.3215078,27.0066519 L55.3215078,28.5144124 L54.8558758,28.5144124 L54.8558758,26.4301552 L55.2771619,26.4301552 L55.2993348,26.5853659 C55.4545455,26.4523282 55.631929,26.3858093 55.8314856,26.3858093 C56.4079823,26.3858093 56.6962306,26.7184035 56.6962306,27.383592 L56.6962306,28.5144124 Z" id="Path" fill="#F15A22"></path>
            <path d="M58.4944568,26.075388 L57.4944568,26.075388 L57.4944568,25.5875831 L58.4944568,25.5875831 L58.4944568,26.075388 Z M58.4944568,28.5144124 L57.4944568,28.5144124 L57.4944568,26.4301552 L58.4944568,26.4301552 L58.4944568,28.5144124 Z" id="Shape" fill="#F15A22"></path>
            <path d="M59.8891353,28.1818182 L59.8447894,28.5809313 L59.4900222,28.5809313 C59.4013304,28.5809313 59.3348115,28.5587583 59.2461197,28.5365854 C59.1796009,28.5144124 59.113082,28.4700665 59.0687361,28.4257206 C59.0243902,28.3813747 58.9800443,28.3148559 58.9578714,28.248337 C58.9356984,28.1818182 58.9135255,28.1152993 58.9356984,28.0487805 L58.9356984,26.8292683 L58.6252772,26.8292683 L58.6696231,26.4523282 L58.9356984,26.4523282 L58.9356984,25.9866962 L59.4013304,25.9423503 L59.4013304,26.4745011 L59.8891353,26.4745011 L59.8891353,26.8514412 L59.4235033,26.8514412 L59.4235033,27.827051 C59.4235033,27.8935698 59.4235033,27.9600887 59.4235033,28.0266075 C59.4235033,28.1152993 59.4900222,28.1818182 59.556541,28.1818182 C59.556541,28.1818182 59.556541,28.1818182 59.556541,28.1818182 C59.6008869,28.1818182 59.6674058,28.1818182 59.7560976,28.1818182 L59.8891353,28.1818182 Z" id="Path" fill="#F15A22"></path>
            <polygon id="Path" fill="#F15A22" points="62.5055432 26.4523282 61.2195122 29.5343681 60.7317073 29.5343681 61.1973392 28.4035477 60.3325942 26.4523282 60.864745 26.4523282 61.4412417 27.8492239 61.9955654 26.4523282"></polygon>
            <polygon id="Path" fill="#F15A22" points="63.4368071 28.5144124 62.9711752 28.5144124 62.9711752 28.0266075 63.45898 28.0266075 63.45898 28.5144124"></polygon>
            <path d="M66.8736142,28.5809313 C66.6740576,28.5809313 66.4745011,28.5365854 66.2971175,28.4700665 C66.1197339,28.4035477 65.9645233,28.2926829 65.8536585,28.1596452 C65.7206208,28.0266075 65.631929,27.8492239 65.5654102,27.6718404 C65.4323725,27.2727273 65.4323725,26.8292683 65.5654102,26.4301552 C65.631929,26.2527716 65.7427938,26.097561 65.8758315,25.9645233 C66.0088692,25.8314856 66.1640798,25.7206208 66.3414634,25.654102 C66.518847,25.5875831 66.7405765,25.5432373 66.940133,25.5432373 C67.0066519,25.5432373 67.0953437,25.5432373 67.1618625,25.5654102 C67.2505543,25.5654102 67.3170732,25.5875831 67.405765,25.6097561 C67.4944568,25.631929 67.5609756,25.631929 67.6274945,25.654102 C67.6940133,25.6762749 67.7605322,25.6984479 67.804878,25.7206208 L67.7605322,26.1862528 C67.4944568,26.075388 67.2283814,26.0310421 66.940133,26.0310421 C66.8070953,26.0310421 66.6518847,26.0532151 66.54102,26.1197339 C66.4301552,26.1640798 66.3192905,26.2527716 66.2527716,26.3414634 C66.1640798,26.4301552 66.1197339,26.54102 66.075388,26.6740576 C65.9866962,26.962306 65.9866962,27.2505543 66.075388,27.5388027 C66.1197339,27.6718404 66.1640798,27.7827051 66.2527716,27.8713969 C66.3414634,27.9600887 66.4301552,28.0487805 66.5631929,28.0931264 C66.6962306,28.1374723 66.8292683,28.1818182 66.9844789,28.1818182 C67.1396896,28.1818182 67.2727273,28.1596452 67.405765,28.1152993 L67.405765,27.5166297 L67.0509978,27.5166297 L67.0509978,27.0953437 L67.9379157,27.0953437 L67.9379157,28.4035477 C67.8713969,28.4478936 67.804878,28.4700665 67.7383592,28.4922395 C67.6496674,28.5144124 67.5609756,28.5365854 67.4722838,28.5587583 C67.383592,28.5809313 67.2949002,28.6031042 67.1840355,28.6031042 C67.0509978,28.5809313 66.962306,28.5809313 66.8736142,28.5809313 Z" id="Path" fill="#F15A22"></path>
            <path d="M70.3991131,27.5609756 L69.0022173,27.5609756 C69.0022173,27.7383592 69.0909091,27.8935698 69.2239468,28.0266075 C69.3569845,28.1152993 69.5121951,28.1818182 69.6674058,28.1818182 C69.8891353,28.1818182 70.0886918,28.1374723 70.2882483,28.0266075 L70.3104213,28.4257206 C70.0886918,28.5365854 69.8669623,28.5809313 69.6230599,28.5809313 C69.4678492,28.5809313 69.2904656,28.5587583 69.1574279,28.4922395 C69.0243902,28.4478936 68.9135255,28.3592018 68.8026608,28.27051 C68.713969,28.1818182 68.6252772,28.0487805 68.5809313,27.9379157 C68.5365854,27.804878 68.5144124,27.6496674 68.5144124,27.5166297 C68.5144124,27.383592 68.5365854,27.2283814 68.5809313,27.0953437 C68.6252772,26.962306 68.691796,26.8514412 68.7804878,26.7627494 C68.8691796,26.6740576 68.9800443,26.5853659 69.0909091,26.54102 C69.2239468,26.4745011 69.3569845,26.4523282 69.5121951,26.4523282 C69.6452328,26.4523282 69.7560976,26.4745011 69.8669623,26.518847 C69.9778271,26.5631929 70.0665188,26.6297118 70.1552106,26.6962306 C70.2439024,26.7849224 70.3104213,26.8736142 70.3547672,26.9844789 C70.3991131,27.0953437 70.421286,27.2283814 70.421286,27.3392461 C70.421286,27.383592 70.421286,27.405765 70.421286,27.4501109 C70.421286,27.4722838 70.421286,27.5166297 70.3991131,27.5609756 Z M69.5343681,26.8070953 C69.2682927,26.7849224 69.0465632,26.9844789 69.0243902,27.2283814 L69.9334812,27.2283814 C69.9334812,27.1175166 69.9113082,27.0066519 69.8226164,26.9179601 C69.7782705,26.8514412 69.6674058,26.8070953 69.5343681,26.8070953 Z" id="Shape" fill="#F15A22"></path>
            <path d="M72.9711752,28.5144124 L72.5055432,28.5144124 L72.5055432,27.383592 C72.5277162,27.2283814 72.4833703,27.0731707 72.3946785,26.940133 C72.3059867,26.8292683 72.172949,26.7849224 72.0620843,26.8070953 C71.8847007,26.8070953 71.72949,26.8736142 71.6186253,27.0066519 L71.6186253,28.5144124 L71.1529933,28.5144124 L71.1529933,26.4301552 L71.5742794,26.4301552 L71.5964523,26.5853659 C71.751663,26.4523282 71.9290466,26.3858093 72.1286031,26.3858093 C72.7050998,26.3858093 72.9933481,26.7184035 72.9933481,27.383592 L72.9711752,28.5144124 Z" id="Path" fill="#F15A22"></path>
            <path d="M75.6762749,28.5144124 L75.232816,28.5144124 L75.210643,28.3592018 C75.0554324,28.4922395 74.8558758,28.5587583 74.6563193,28.5587583 C74.5232816,28.5587583 74.368071,28.5365854 74.2350333,28.4700665 C74.1241685,28.4257206 74.0133038,28.3370288 73.924612,28.248337 C73.8359202,28.1374723 73.7694013,28.0266075 73.7250554,27.9157428 C73.6807095,27.7827051 73.6585366,27.6274945 73.6585366,27.4944568 C73.6585366,27.3392461 73.6807095,27.2062084 73.7250554,27.0731707 C73.7694013,26.940133 73.8359202,26.8292683 73.924612,26.7405765 C74.0133038,26.6518847 74.1241685,26.5631929 74.2350333,26.518847 C74.368071,26.4523282 74.5011086,26.4301552 74.6563193,26.4301552 C74.8558758,26.4079823 75.0332594,26.4745011 75.1884701,26.6075388 L75.1884701,25.4101996 L75.654102,25.4101996 L75.6762749,28.5144124 Z M74.7006652,26.8070953 C74.5454545,26.8070953 74.3902439,26.8736142 74.3015521,26.9844789 C74.1906874,27.1175166 74.1463415,27.2949002 74.1463415,27.4722838 C74.1463415,27.6496674 74.1906874,27.827051 74.3015521,27.9600887 C74.3902439,28.0931264 74.5454545,28.1596452 74.7006652,28.1596452 C74.8558758,28.1596452 74.9889135,28.0931264 75.0776053,27.9822616 C75.2771619,27.6718404 75.2771619,27.2949002 75.0776053,26.9844789 C74.9889135,26.8736142 74.8558758,26.8070953 74.7006652,26.8070953 Z" id="Shape" fill="#F15A22"></path>
            <path d="M78.248337,27.5609756 L76.8514412,27.5609756 C76.8514412,27.7383592 76.940133,27.8935698 77.0731707,28.0266075 C77.2062084,28.1152993 77.3614191,28.1818182 77.5166297,28.1818182 C77.7383592,28.1818182 77.9600887,28.1374723 78.1374723,28.0266075 L78.1818182,28.4257206 C77.9600887,28.5365854 77.7383592,28.5809313 77.4944568,28.5809313 C77.3392461,28.5809313 77.1618625,28.5587583 77.0066519,28.4922395 C76.8736142,28.4478936 76.7627494,28.3592018 76.6518847,28.27051 C76.5631929,28.1818182 76.4745011,28.0487805 76.4301552,27.9379157 C76.3858093,27.804878 76.3636364,27.6496674 76.3636364,27.5166297 C76.3636364,27.383592 76.3858093,27.2283814 76.4301552,27.0953437 C76.4745011,26.962306 76.54102,26.8514412 76.6297118,26.7627494 C76.7184035,26.6740576 76.8292683,26.5853659 76.940133,26.54102 C77.1840355,26.4301552 77.4722838,26.4301552 77.7161863,26.518847 C77.827051,26.5631929 77.9157428,26.6297118 78.0044346,26.6962306 C78.0931264,26.7849224 78.1596452,26.8736142 78.2039911,26.9844789 C78.248337,27.0953437 78.27051,27.2283814 78.27051,27.3392461 C78.27051,27.383592 78.27051,27.405765 78.27051,27.4501109 C78.27051,27.4722838 78.27051,27.5166297 78.248337,27.5609756 Z M77.383592,26.8070953 C77.1175166,26.7849224 76.9179601,26.9844789 76.8736142,27.2283814 L77.7827051,27.2283814 C77.7827051,27.1175166 77.7605322,27.0066519 77.6718404,26.9179601 C77.6274945,26.8514412 77.4944568,26.8070953 77.383592,26.8070953 Z" id="Shape" fill="#F15A22"></path>
            <path d="M80.1552106,26.4079823 L80.0665188,26.8736142 L79.8891353,26.8736142 C79.8004435,26.8736142 79.7117517,26.8957871 79.6452328,26.940133 C79.578714,26.9844789 79.5121951,27.0288248 79.4900222,27.0953437 L79.4900222,28.5365854 L79.0022173,28.5365854 L79.0022173,26.4523282 L79.4235033,26.4523282 L79.4456763,26.7184035 C79.578714,26.54102 79.8004435,26.4301552 80.0443459,26.4079823 L80.1552106,26.4079823 Z" id="Path" fill="#F15A22"></path>
            <polygon id="Path" fill="#F15A22" points="83.9689579 28.5144124 82.0842572 28.5144124 82.0842572 25.5875831 83.924612 25.5875831 83.924612 26.0532151 82.594235 26.0532151 82.594235 26.7405765 83.6141907 26.7405765 83.6141907 27.2062084 82.5720621 27.2062084 82.5720621 28.0266075 83.9467849 28.0266075"></polygon>
            <path d="M85.5210643,28.5587583 C85.3658537,28.5587583 85.232816,28.5365854 85.0997783,28.4700665 C84.9889135,28.4257206 84.8780488,28.3370288 84.789357,28.248337 C84.7006652,28.1374723 84.6341463,28.0266075 84.5898004,27.8935698 C84.5454545,27.7605322 84.5232816,27.6053215 84.5232816,27.4722838 C84.5232816,27.3170732 84.5454545,27.1840355 84.5898004,27.0509978 C84.6341463,26.9179601 84.7006652,26.8070953 84.789357,26.7184035 C84.8780488,26.6297118 84.9889135,26.54102 85.0997783,26.4966741 C85.232816,26.4301552 85.3658537,26.4079823 85.4988914,26.4079823 C85.6984479,26.4079823 85.9201774,26.4966741 86.075388,26.6297118 L86.1197339,26.4523282 L86.518847,26.4523282 L86.518847,29.5343681 L86.0532151,29.5343681 L86.0532151,28.3592018 C85.9201774,28.4922395 85.7206208,28.5809313 85.5210643,28.5587583 Z M85.5654102,26.8070953 C85.4101996,26.8070953 85.2549889,26.8736142 85.1662971,26.9844789 C85.0554324,27.1175166 85.0110865,27.2949002 85.0110865,27.4722838 C85.0110865,27.6496674 85.0554324,27.827051 85.1662971,27.9600887 C85.2549889,28.0931264 85.4101996,28.1596452 85.5654102,28.1596452 C85.7206208,28.1596452 85.8536585,28.0931264 85.9423503,27.9822616 C86.0532151,27.827051 86.097561,27.6496674 86.075388,27.4722838 C86.075388,27.2949002 86.0310421,27.1175166 85.9423503,26.9844789 C85.8536585,26.8736142 85.6984479,26.8070953 85.5654102,26.8070953 L85.5654102,26.8070953 Z" id="Shape" fill="#F15A22"></path>
            <path d="M89.135255,28.5144124 L88.691796,28.5144124 L88.6696231,28.3592018 C88.5365854,28.4922395 88.3592018,28.5587583 88.1818182,28.5587583 C87.6274945,28.5587583 87.3392461,28.2261641 87.3392461,27.5831486 L87.3392461,26.4301552 L87.804878,26.4301552 L87.804878,27.5388027 C87.7827051,27.6940133 87.827051,27.8492239 87.9157428,28.0044346 C88.0044346,28.1152993 88.1152993,28.1596452 88.248337,28.1596452 C88.4035477,28.1596452 88.5587583,28.0931264 88.6696231,27.9600887 L88.6696231,26.4301552 L89.135255,26.4301552 L89.135255,28.5144124 Z" id="Path" fill="#F15A22"></path>
            <path d="M91.72949,28.1818182 L91.6851441,28.5809313 L91.5521064,28.5809313 C91.3525499,28.6031042 91.1529933,28.4922395 91.0643016,28.3148559 C90.9090909,28.4922395 90.6651885,28.5809313 90.421286,28.5809313 C90.3325942,28.5809313 90.2439024,28.5587583 90.1773836,28.5365854 C90.1108647,28.5144124 90.0443459,28.4700665 89.9778271,28.4035477 C89.9334812,28.3370288 89.8891353,28.27051 89.8447894,28.2039911 C89.8226164,28.1152993 89.8004435,28.0487805 89.8004435,27.9600887 C89.8004435,27.827051 89.8447894,27.6940133 89.9334812,27.6053215 C90.0221729,27.5166297 90.1108647,27.4279379 90.2439024,27.383592 C90.3769401,27.3170732 90.4878049,27.2949002 90.6208426,27.2505543 C90.7538803,27.2283814 90.864745,27.2062084 90.9977827,27.2062084 C90.9977827,27.0953437 90.9756098,26.9844789 90.9090909,26.8957871 C90.8203991,26.8292683 90.7095344,26.8070953 90.5986696,26.8070953 C90.3991131,26.8070953 90.1995565,26.8736142 90.0443459,26.9844789 L90,26.6075388 C90.2217295,26.4745011 90.4878049,26.4079823 90.7317073,26.4079823 C90.9312639,26.3858093 91.1529933,26.4745011 91.286031,26.6075388 C91.4190687,26.8070953 91.4855876,27.0509978 91.4634146,27.2949002 L91.4634146,27.804878 C91.4634146,27.8935698 91.4634146,27.9379157 91.4634146,28.0044346 C91.4634146,28.0487805 91.4855876,28.0709534 91.4855876,28.1152993 C91.5077605,28.1374723 91.5299335,28.1596452 91.5521064,28.1596452 C91.5964523,28.1596452 91.6186253,28.1818182 91.6629712,28.1818182 L91.72949,28.1818182 Z M90.9977827,28.0044346 L90.9977827,27.5166297 C90.8203991,27.5166297 90.6430155,27.5609756 90.4878049,27.6274945 C90.3769401,27.6718404 90.2882483,27.7827051 90.2882483,27.9157428 C90.2882483,28.0931264 90.3769401,28.1818182 90.5764967,28.1818182 C90.6430155,28.1818182 90.7317073,28.1596452 90.7982262,28.1374723 C90.886918,28.1152993 90.9534368,28.0709534 90.9977827,28.0044346 L90.9977827,28.0044346 Z" id="Shape" fill="#F15A22"></path>
            <path d="M93.1042129,28.1818182 L93.059867,28.5809313 L92.9046563,28.5809313 C92.7494457,28.5809313 92.616408,28.5365854 92.5055432,28.4257206 C92.4168514,28.3148559 92.3725055,28.1818182 92.3725055,28.0487805 L92.3725055,25.4101996 L92.8381375,25.4101996 L92.8381375,27.8492239 C92.8381375,27.9379157 92.8381375,28.0044346 92.8381375,28.0487805 C92.8381375,28.0931264 92.8603104,28.1152993 92.8824834,28.1596452 C92.9046563,28.1818182 92.9268293,28.2039911 92.9711752,28.2039911 C93.0155211,28.1818182 93.059867,28.1818182 93.1042129,28.1818182 Z" id="Path" fill="#F15A22"></path>
            <path d="M94.7461197,26.075388 L93.7915743,26.075388 L93.7915743,25.5875831 L94.7915743,25.5875831 L94.7915743,26.075388 L94.7461197,26.075388 Z M94.7461197,28.5144124 L93.7915743,28.5144124 L93.7915743,26.4301552 L94.7915743,26.4301552 L94.7915743,28.5144124 L94.7461197,28.5144124 Z" id="Shape" fill="#F15A22"></path>
            <path d="M96.1862528,28.1818182 L96.1419069,28.5809313 L95.7871397,28.5809313 C95.6984479,28.5809313 95.631929,28.5587583 95.5432373,28.5365854 C95.4767184,28.5144124 95.4101996,28.4700665 95.3658537,28.4257206 C95.3215078,28.3813747 95.2771619,28.3148559 95.2549889,28.248337 C95.232816,28.1818182 95.210643,28.1152993 95.210643,28.0487805 L95.210643,26.8292683 L94.9002217,26.8292683 L94.9445676,26.4523282 L95.210643,26.4523282 L95.210643,25.9866962 L95.6762749,25.9423503 L95.6762749,26.4745011 L96.1640798,26.4745011 L96.1640798,26.8514412 L95.6762749,26.8514412 L95.6762749,27.827051 C95.6762749,27.9157428 95.6762749,27.9822616 95.6762749,28.0266075 C95.6762749,28.1152993 95.7427938,28.1818182 95.8093126,28.1818182 C95.8093126,28.1818182 95.8093126,28.1818182 95.8093126,28.1818182 C95.8536585,28.1818182 95.9201774,28.1818182 96.0088692,28.1818182 L96.1862528,28.1818182 Z" id="Path" fill="#F15A22"></path>
            <polygon id="Path" fill="#F15A22" points="98.8026608 26.4523282 97.5166297 29.5343681 97.0288248 29.5343681 97.4944568 28.4035477 96.6297118 26.4523282 97.1618625 26.4523282 97.7383592 27.8492239 98.2926829 26.4523282"></polygon>
            <polygon id="Path" fill="#F15A22" points="99.7339246 28.5144124 99.2682927 28.5144124 99.2682927 28.0266075 99.7339246 28.0266075"></polygon>
        </g>
    </g>
</svg>