<?xml version="1.0" encoding="UTF-8"?>
<svg width="100px" height="51px" viewBox="0 0 100 51" version="1.1" xmlns="http://www.w3.org/2000/svg"
  xmlns:xlink="http://www.w3.org/1999/xlink">
  <title>Tresemme</title>
  <g id="Tresemme" stroke="none" stroke-width="1" fill="none" fill-rule="evenodd">
    <g id="tresemme-logo-svg-vector" fill="#ffffff" fill-rule="nonzero">
      <path
        d="M3.64023714,27.9395205 L3.64023714,50.6217864 L6.33688948,50.6217864 L6.33688948,27.9665187 L7.81703082,27.8669956 L9.3516981,28.0761 L9.3516981,26.8225325 L0.479849538,26.8225325 L0.479849538,28.1216265 L2.34167252,27.8669956 L3.64023714,27.9395205 Z M19.5761079,35.6123275 C19.1404296,36.4476862 18.2505449,37.2189902 16.9154532,37.9098287 L22.6544418,50.5953175 L19.8032111,50.5953175 L14.8995812,37.7917774 C16.7614042,36.6832595 17.6872866,34.8129665 17.6872866,32.1618406 C17.6872866,29.5096561 16.4432479,28.1210972 13.9826982,27.9659894 L13.9826982,50.5492616 L11.4220961,50.5492616 L11.4220961,26.7854761 L13.901174,26.7854761 C16.5798275,26.8680591 18.4776482,27.7574144 19.5766372,29.5006566 C20.8201465,31.3439514 20.8201465,33.3873511 19.5761079,35.6123275 L19.5761079,35.6123275 Z M23.998533,26.5954293 L23.998533,50.2951601 L31.1080817,50.2951601 L31.1080817,49.0325932 L28.293378,49.3232218 L26.5861334,49.3232218 L26.5861334,38.0183512 L30.5183544,38.0183512 L30.5183544,36.9108921 L26.5136086,36.9108921 L26.5136086,27.7399449 L28.8566363,27.7399449 L31.1080817,27.9665187 L31.1080817,26.5954293 L23.998533,26.5954293 Z M37.1466983,25.7145441 L38.0455824,27.0491064 C35.5029791,27.54831 34.2769393,29.2285563 34.3769918,32.0887865 C34.4219889,33.3243551 35.2123505,35.0405991 36.737489,37.2015207 C38.2541574,39.3354441 38.9984631,41.1782094 38.9624654,42.7674027 C38.953466,44.7568058 38.4357341,46.4815198 37.4547964,47.9616612 C36.7560172,48.9780672 35.9386574,49.75043 35.0032461,50.2951601 L33.7412086,51.0034681 L32.5972224,49.8494237 C34.1498886,49.7499006 35.2758759,48.8690153 35.966185,47.2168261 C36.5564417,45.7091571 36.8195426,44.4656478 36.7380184,43.511179 C36.6019682,41.9860405 35.7390818,40.2883248 34.1498886,38.4540294 C32.5156982,36.5652082 31.8253891,34.4948102 32.0794906,32.2698338 C32.2790661,30.5895875 32.8693228,29.2370263 33.8502605,28.1930926 C34.9222513,27.1041617 36.0117115,26.2778024 37.1466983,25.7145441 L37.1466983,25.7145441 Z M53.1736221,34.7219134 L51.0852252,34.7219134 L51.0852252,49.9860032 L53.2556757,49.9860032 L53.2556757,37.8362451 C53.6463568,36.3111067 54.3456653,35.5398027 55.3536013,35.5398027 C56.3430091,35.5398027 56.8877392,36.2295824 56.960264,37.6096713 L56.960264,50.0315298 L59.2122387,50.0315298 L59.2122387,38.1268737 C59.7754971,36.366162 60.5203321,35.503805 61.4102168,35.5398027 C62.3181004,35.5842704 62.8628305,36.2751089 63.0264083,37.6096713 L63.0264083,50.0315298 L65.250326,50.0315298 L65.250326,38.0183512 C65.250326,37.2470472 65.0412216,36.520211 64.6330711,35.8389013 C64.0158161,34.7224428 63.0438778,34.2052403 61.746372,34.3137629 C60.6563823,34.3592894 59.6659158,35.0490691 58.8035588,36.3836315 L58.5039307,35.7944336 C57.8236798,34.7044439 56.8517415,34.2322386 55.6161729,34.3862877 C54.5727685,34.4958689 53.7644081,34.9765443 53.1741514,35.8389013 L53.1741514,34.7219134 L53.1736221,34.7219134 L53.1736221,34.7219134 Z M79.7976378,37.6096713 L79.7976378,50.0315298 L82.0215554,50.0315298 L82.0215554,38.0183512 C82.0215554,37.2470472 81.8219799,36.520211 81.4312988,35.8389013 C80.7510479,34.7224428 79.7791096,34.2052403 78.4990732,34.3137629 C77.4360818,34.3592894 76.4652023,35.0490691 75.6017865,36.3836315 L75.2751602,35.7944336 C74.6028499,34.7044439 73.6404404,34.2322386 72.3789323,34.3862877 C71.3344692,34.4958689 70.5356375,34.9765443 69.9718498,35.8389013 L69.9718498,34.7224428 L67.8564547,34.7224428 L67.8564547,49.9865326 L70.0359045,49.9865326 L70.0359045,37.8367745 C70.4175862,36.311636 71.1068366,35.5403321 72.1243014,35.5403321 C73.1407074,35.5403321 73.6679681,36.2301118 73.7404929,37.6102007 L73.7404929,50.0320591 L75.9654693,50.0320591 L75.9654693,38.1274031 C76.5467265,36.3666914 77.2815034,35.5043343 78.1893869,35.5403321 C79.1163281,35.5842704 79.64253,36.2751089 79.7976378,37.6096713 L79.7976378,37.6096713 Z M45.355236,35.4582784 C46.7628526,35.4582784 47.3621086,37.3650986 47.1715325,41.1697394 L43.0037383,41.1697394 C42.8401604,37.3645692 43.6119938,35.4582784 45.355236,35.4582784 L45.355236,35.4582784 Z M48.7241986,47.625506 C47.8798405,48.7970199 46.8989027,49.3687483 45.7909143,49.3687483 C45.0005527,49.3687483 44.4012966,48.9870667 43.9746178,48.2157627 L43.2753093,45.8727349 C43.0492576,44.7279754 42.9577605,43.5607205 43.0026795,42.3947204 L49.2683994,42.3947204 C49.7406047,37.0379429 48.5325637,34.3682888 45.6363358,34.3856731 C42.1313231,34.4042865 40.4060796,37.3365121 40.4516062,43.1760826 C40.4786044,45.4000003 40.9508098,47.1617708 41.8592227,48.4418072 C42.7761056,49.7313723 44.0021455,50.3671555 45.5368127,50.3671555 C47.1800025,50.3671555 48.2609927,50.0310004 48.7601964,49.3682189 L48.7241986,47.625506 L48.7241986,47.625506 Z M96.4783436,46.0993088 C96.8960229,46.0993088 97.113068,46.2184189 97.113068,46.4809905 C97.113068,46.7541496 96.9415495,46.889141 96.5958655,46.889141 L95.9870806,46.889141 L95.9870806,46.0993088 L96.4783436,46.0993088 Z M95.2973009,45.5371092 L95.2973009,48.8065487 L95.9870806,48.8065487 L95.9870806,47.4344005 L96.3232358,47.4344005 L97.0686002,48.8065487 L97.8854307,48.8065487 L97.0686002,47.3984028 C97.5948021,47.3528763 97.849433,47.0717765 97.849433,46.5535153 C97.849433,45.8732643 97.4132254,45.5371092 96.5238701,45.5371092 L95.2973009,45.5371092 L95.2973009,45.5371092 Z M94.3708891,44.9468526 C93.7536342,45.5281098 93.4360073,46.2628867 93.4360073,47.171829 C93.4360073,48.1157102 93.7536342,48.8695447 94.3708891,49.4412731 C94.9341475,49.9595343 95.6424555,50.2136358 96.4778142,50.2136358 C97.321643,50.2136358 98.0299509,49.9595343 98.5932093,49.4412731 C99.2104642,48.8695447 99.5196211,48.1157102 99.5196211,47.171829 C99.5196211,46.2628867 99.2104642,45.5281098 98.5932093,44.9468526 C98.0299509,44.4381201 97.321643,44.1755486 96.4778142,44.1755486 C95.6429848,44.1755486 94.9346769,44.4381201 94.3708891,44.9468526 Z M96.4783436,44.8743277 C97.0955985,44.8743277 97.6218004,45.0834321 98.0304803,45.5090522 C98.4576885,45.9452598 98.6662635,46.5090475 98.6662635,47.171829 C98.6662635,47.8706081 98.4571591,48.4423365 98.0304803,48.8880729 C97.6223298,49.3057523 97.0955985,49.5227974 96.4783436,49.5227974 C95.8515598,49.5227974 95.3523562,49.3057523 94.9616751,48.8880729 C94.534467,48.4423365 94.325892,47.8706081 94.325892,47.171829 C94.325892,46.5090475 94.5349963,45.9457891 94.9616751,45.5090522 C95.3698257,45.0834321 95.8880869,44.8743277 96.4783436,44.8743277 Z M88.7679507,35.3126994 C90.1760966,35.3126994 90.7843521,37.2195196 90.5847765,41.0336892 L86.4265111,41.0336892 C86.2899315,37.2189902 87.0612355,35.3126994 88.7679507,35.3126994 Z M92.6906428,42.2406714 C93.1898464,36.8828351 91.9823349,34.2227098 89.059638,34.2316865 C85.5816235,34.267707 83.8653796,37.2009913 83.9103767,43.0305036 C83.9289049,45.25548 84.3831114,47.0082511 85.2719373,48.2972869 C86.1983491,49.5773233 87.4243889,50.2131065 88.9860545,50.2131065 C90.6207742,50.2131065 91.6917063,49.8864801 92.2189669,49.2141699 L92.1734404,47.4793977 C91.3110834,48.6413827 90.311088,49.2141699 89.2131577,49.2141699 C88.440795,49.2141699 87.8515971,48.842017 87.4243889,48.0696543 C87.1967563,47.6249767 86.9707118,46.8446732 86.7256097,45.7361554 C86.4773955,44.5883124 86.3767059,43.4134816 86.4259817,42.240142 L92.6906428,42.240142 L92.6906428,42.2406714 L92.6906428,42.2406714 Z M85.6541484,31.3174825 L86.0167724,32.0887865 L92.1469715,29.7547582 L91.5111883,28.3021445 L85.6541484,31.3174825 L85.6541484,31.3174825 Z M44.047672,3.39490213 C43.4304171,7.26306834 44.7469805,10.1142991 47.988363,11.9120673 C51.4663775,13.8919416 53.1730927,15.9258125 53.1275662,17.9962105 L55.3244855,15.7442358 C54.9803897,14.1190449 53.2816152,12.6383742 50.2398083,11.2948124 C47.4706312,10.0327749 46.12654,7.98937517 46.1715372,5.16567207 C46.181066,3.55847998 46.634743,1.92376023 47.4971001,0.244043331 L47.2699968,0.0169401011 L44.047672,3.39490213 Z"
        id="Shape"></path>
      <path
        d="M59.3938154,11.5033874 L49.0148272,1.65165985 C48.1064143,3.25885194 47.6802649,4.80251865 47.7617891,6.28265999 C47.834314,8.59816005 49.196404,10.2964052 51.8750574,11.3678666 C54.4176607,12.3938014 56.0523805,13.3472115 56.7606885,14.2100979 L59.3938154,11.5033874 L59.3938154,11.5033874 Z M42.5950583,12.1666982 C40.5881857,11.4853885 39.0535184,10.6410304 38.0455824,9.66062202 L35.7120835,12.1396999 L45.8364408,22.0830099 C46.7448537,20.4212918 47.1805319,18.8596263 47.1710031,17.4064832 C47.126006,14.9088771 45.5913387,13.1566354 42.5950583,12.1666982 L42.5950583,12.1666982 Z"
        id="Shape"></path>
      <path
        d="M44.2747752,12.0666457 C49.587085,14.164042 50.6675459,18.0687353 47.5346859,23.7801963 L50.9857021,20.266184 C51.5293735,16.1619152 50.0407621,13.301685 46.5357493,11.7034923 C43.1302596,10.1412974 41.5685941,8.12542536 41.8592227,5.69240334 L39.752827,7.91685036 C40.1885052,9.66962144 41.7051736,11.0497103 44.2747752,12.0666457 L44.2747752,12.0666457 Z"
        id="Path"></path>
    </g>
  </g>
</svg>