<?xml version="1.0" encoding="UTF-8"?>
<svg width="100px" height="100px" viewBox="0 0 100 100" version="1.1" xmlns="http://www.w3.org/2000/svg" xmlns:xlink="http://www.w3.org/1999/xlink">
    <title>NOAA</title>
    <g id="SVG-Sheet" stroke="none" stroke-width="1" fill="none" fill-rule="evenodd">
        <g id="NOAA">
            <path d="M88.3563485,30.9181554 C88.3799116,30.9084666 93.6407602,41.3268519 92.7072726,52.4027654 L92.7072726,52.4027654 C92.199557,71.0049623 75.7591649,92.1071641 51.2587127,92.7925278 L47.8425273,92.7214263 C22.5947802,91.4666294 7.0796402,70.0441601 7.15049794,50.6859166 L7.15049794,50.6859166 C7.21308494,47.0871831 7.1985937,43.0642405 8.71652762,38.0886285 L10.2644866,38.5512013 C16.7349928,40.9967844 23.7157161,59.9023598 46.4103941,60.9784668 C47.3955921,61.0251724 49.288005,61.0687501 49.2837305,61.0766735 C47.8146918,62.5422726 39.4621976,65.98744 35.672367,66.8948642 C36.6634023,66.6575824 35.594905,66.8704684 35.672367,66.8948642 L35.672367,66.8948642 C44.7999872,72.5529213 53.9276075,61.6638304 65.7774983,60.0624935 L69.4071953,59.8489819 C68.7132826,57.6604882 65.5892174,57.8452269 65.2970973,57.8739998 C57.0983784,58.6811333 59.146548,57.7407643 58.8917497,57.8206219 C71.4889332,53.8706575 78.7483271,43.7822351 87.8146482,31.513868 L88.3563485,30.9181554 Z" id="path3758" fill="#007EC6" fill-rule="nonzero"></path>
            <path d="M70.04773,12.0757652 C69.1674132,11.6075618 61.7741561,7.16499872 50.422597,6.98703766 C25.8144495,7.0756533 14.9795689,25.1355233 14.9795689,25.1355233 C20.4241143,27.8044181 26.0737273,35.8418567 26.1532711,35.9535126 C32.2463814,44.5024204 40.7376368,57.7530668 51.7395301,58.0064026 C55.2620528,58.0875114 57.605052,55.9803356 60.279575,53.3902565 C70.046481,43.9311104 71.4138711,26.4430725 83.9259831,23.9790356 C83.9259831,23.9790356 79.2821061,16.9865316 70.04773,12.0757652 Z M42.7829241,23.6431307 L45.7074734,23.6431307 C46.8872893,23.6431307 47.8371041,24.5929455 47.8371041,25.7727614 L47.8371041,32.8118925 C47.8371041,33.9917084 46.8872893,34.9415232 45.7074734,34.9415232 L42.7829241,34.9415232 C41.6031082,34.9415232 40.6532933,33.9917084 40.6532933,32.8118925 L40.6532933,25.7727614 C40.6532933,24.5929455 41.6031082,23.6431307 42.7829241,23.6431307 Z M43.5621111,25.5818158 L44.9282885,25.5818158 C45.2003086,25.5818158 45.4193011,25.8008061 45.4193011,26.0728263 L45.4193011,32.5118276 C45.4193011,32.7838477 45.2003086,33.002838 44.9282885,33.002838 L43.5621111,33.002838 C43.2900909,33.002838 43.0711007,32.7838477 43.0711007,32.5118276 L43.0711007,26.0728263 C43.0711007,25.8008061 43.2900909,25.5818158 43.5621111,25.5818158 Z M52.0333156,23.6455284 C50.8534997,23.6455284 49.904872,24.5941561 49.904872,25.773972 L49.904872,34.9416257 L52.3202218,34.9416257 L52.3202218,30.4045045 L54.6688493,30.4045045 L54.6688493,34.9416257 L57.0841991,34.9416257 L57.0841991,25.773972 C57.0841991,24.5941561 56.1355692,23.6455284 54.9557554,23.6455284 L52.0333156,23.6455284 Z M52.8139674,25.5804771 L54.1751037,25.5804771 C54.4471217,25.5804771 54.6688493,25.8022025 54.6688493,26.0742227 L54.6688493,28.4695558 L52.3202218,28.4695558 L52.3202218,26.0742227 C52.3202218,25.8022025 52.5419472,25.5804771 52.8139674,25.5804771 Z M61.2804106,23.6455284 C60.1005947,23.6455284 59.151967,24.5941561 59.151967,25.773972 L59.151967,34.9416257 L61.5673168,34.9416257 L61.5673168,30.4045045 L63.9159442,30.4045045 L63.9159442,34.9416257 L66.331294,34.9416257 L66.331294,25.773972 C66.331294,24.5941561 65.3826642,23.6455284 64.2028504,23.6455284 L61.2804106,23.6455284 Z M62.0610623,25.5804771 L63.4221987,25.5804771 C63.6942167,25.5804771 63.9159442,25.8022025 63.9159442,26.0742227 L63.9159442,28.4695558 L61.5673168,28.4695558 L61.5673168,26.0742227 C61.5673168,25.8022025 61.7890421,25.5804771 62.0610623,25.5804771 Z M31.3995261,23.6455284 L31.3995261,34.9416257 L33.8215482,34.9416257 L33.8215482,26.0742227 C33.8215461,25.8022025 34.0366013,25.5804771 34.3086215,25.5804771 L35.6764301,25.5804771 C35.9484502,25.5804771 36.1701756,25.8022025 36.1701756,26.0742227 L36.1701756,34.9416257 L38.5855254,34.9416257 L38.5855254,25.773972 C38.5855254,24.5941561 37.6368977,23.6455284 36.4570818,23.6455284 L31.3995261,23.6455284 Z" id="path3766" fill="#263F78"></path>
            <path d="M7.21785201,65.1214968 L2.90847488,66.4679628 L2.70828728,65.8272615 L5.20975634,62.8363784 C5.26400579,62.7701919 5.31618055,62.7110748 5.36628062,62.659025 C5.41638474,62.6069794 5.46471906,62.5629768 5.51128359,62.527015 L2.0181428,63.61845 L1.84354998,63.0596645 L6.15292711,61.7131964 L6.35128642,62.3480475 L3.81964518,65.3965253 C3.78063939,65.4429684 3.73891816,65.4875795 3.69448085,65.5303629 C3.65005122,65.5731485 3.60223509,65.6153833 3.55103245,65.6570693 L7.04417315,64.5656365 L7.21785201,65.1214968 Z M3.92120688,60.3816357 L3.63043057,59.00515 L1.82559844,60.1006694 L3.92120688,60.3816357 Z M6.02639054,61.2714559 L1.26252031,60.5642137 L1.1225169,59.9014631 L5.1920716,57.3219335 L5.32954104,57.9726912 L4.10886114,58.7192558 L4.47629088,60.4586045 L5.89525621,60.650688 L6.02639054,61.2714559 Z M5.02138019,55.8702918 L1.08581981,56.3622246 L1.26259623,57.7764698 L0.71818719,57.8445202 L0.288221296,54.4047055 L0.832630339,54.3366573 L1.00940676,55.7509046 L4.94496696,55.2589718 L5.02138019,55.8702918 Z M4.75557428,53.2881253 L0.250936729,53.5913524 L0.209765469,52.9797249 L4.71440306,52.6764979 L4.75557428,53.2881253 Z M2.37363947,51.23942 C2.95191275,51.2412624 3.40443497,51.1093869 3.73120762,50.8437743 C4.05798197,50.5781659 4.22212797,50.2093523 4.22365611,49.7373337 C4.2251577,49.2673649 4.06338104,48.8995463 3.73831542,48.6338781 C3.4132515,48.3682185 2.96158354,48.2344577 2.38331047,48.2325742 C1.80299854,48.2307319 1.34996876,48.3615825 1.02421984,48.6251498 C0.698478106,48.8887234 0.534849638,49.2554936 0.533323378,49.7254646 C0.531819866,50.1974832 0.69307906,50.5673429 1.01711203,50.8350459 C1.3411522,51.102751 1.7933276,51.2375345 2.37363947,51.23942 L2.37363947,51.23942 Z M2.37159893,51.8738879 C1.62577478,51.8714653 1.04351592,51.6800693 0.62482058,51.2996749 C0.20613325,50.9192826 -0.00213458201,50.3939737 -2.60485017e-08,49.7237501 C0.0021701894,49.0555742 0.213295415,48.5336579 0.633392793,48.1580014 C1.05349812,47.7823533 1.63748367,47.5957293 2.38535122,47.5981063 C3.13117985,47.6005333 3.71344196,47.7909066 4.13213946,48.1692534 C4.55083781,48.5476088 4.75911217,49.0708723 4.75697964,49.7390504 C4.75480735,50.4092739 4.54316484,50.9332313 4.12203459,51.3109227 C3.70090562,51.6886161 3.11742757,51.8762629 2.37159893,51.8738879 L2.37159893,51.8738879 Z M4.69734839,46.835043 L0.207687025,46.3589698 L0.278467681,45.6914643 L3.76215783,43.9402828 C3.83823371,43.9010928 3.90959847,43.8675629 3.97625187,43.8396954 C4.04290699,43.8118343 4.10474314,43.7906518 4.16176056,43.7761458 L0.522483133,43.3902471 L0.5842142,42.8080843 L5.07387565,43.2841553 L5.00374136,43.9455651 L1.46948364,45.7376191 C1.41523991,45.7647457 1.35923034,45.7891138 1.30145476,45.8107276 C1.2436859,45.8323435 1.18302732,45.8521104 1.11947884,45.8700283 L4.75875646,46.2559291 L4.69734839,46.835043 Z M3.55329994,41.1764309 L3.83251609,39.7975538 L1.74116373,40.087082 L3.55329994,41.1764309 Z M5.13265944,42.8284597 L1.0403868,40.2891771 L1.1748242,39.6252735 L5.93380893,38.8720772 L5.80180496,39.5239622 L4.38510948,39.7249428 L4.03228735,41.4673126 L5.25858046,42.2066136 L5.13265944,42.8284597 Z M6.07711257,38.4289873 L1.73996759,37.1748416 L1.91195485,36.5800666 L5.70143594,37.6758465 L6.32637966,35.5146353 L6.87404349,35.672999 L6.07711257,38.4289873 Z M5.71748347,32.2863828 C6.24764043,32.5173298 6.7153651,32.5756483 7.12065898,32.4613385 C7.52595329,32.3470329 7.82285567,32.0735075 8.01136718,31.6407622 C8.19906137,31.209898 8.19634999,30.8080841 8.00323303,30.4353206 C7.81011522,30.0625636 7.4484789,29.7607116 6.91832302,29.5297604 C6.38629506,29.2980021 5.91851018,29.2385434 5.51496688,29.3513821 C5.11142742,29.4642294 4.81580932,29.7360851 4.62811192,30.1669494 C4.43960383,30.5996947 4.44103072,31.0031782 4.63239262,31.3773999 C4.82376006,31.7516281 5.1854568,32.0546224 5.71748347,32.2863828 L5.71748347,32.2863828 Z M5.4640954,32.8680546 C4.78032839,32.5701931 4.32164807,32.1636585 4.08805316,31.6484508 C3.85446508,31.1332473 3.87150394,30.5684152 4.13916975,29.9539566 C4.40602593,29.3413791 4.80675173,28.9459193 5.34134801,28.7675752 C5.87594857,28.5892418 6.48606903,28.6494137 7.17171131,28.9480865 C7.85548066,29.2459565 8.31456879,29.6515538 8.54897761,30.1648826 C8.78338386,30.6782178 8.76716125,31.2411753 8.50030935,31.853755 C8.23263927,32.4682135 7.83062898,32.865343 7.29427763,33.0451453 C6.7579265,33.2249498 6.14786646,33.1659203 5.4640954,32.8680546 L5.4640954,32.8680546 Z M9.69475123,25.5865494 L9.98712866,25.0687753 C10.4526958,25.3621829 10.7417247,25.7406984 10.8542163,26.2043174 C10.9667051,26.667945 10.8873112,27.1399615 10.6160349,27.620369 C10.303562,28.1737291 9.87005385,28.5009313 9.31550875,28.6019714 C8.76096387,28.7030136 8.15007434,28.565147 7.48283847,28.1883717 C6.86720557,27.8407364 6.47128292,27.4001019 6.29506968,26.8664659 C6.11886241,26.3328386 6.18850007,25.7866738 6.50398308,25.2279716 C6.75516899,24.7831523 7.07565202,24.4836489 7.46543343,24.3294572 C7.85521869,24.1752763 8.26106044,24.1879674 8.68295997,24.367537 L8.3875684,24.890649 C8.09966041,24.793783 7.83312024,24.7993236 7.58794723,24.907273 C7.34277786,25.015233 7.13579482,25.2186689 6.96699747,25.5175873 C6.74193982,25.9161515 6.70704199,26.3041746 6.86230398,26.6816567 C7.01757067,27.0591452 7.3496414,27.3915657 7.85851723,27.678916 C8.33892726,27.9501952 8.78869795,28.0534003 9.20783016,27.9885312 C9.6269628,27.9236664 9.94303083,27.7026264 10.1560347,27.3254155 C10.3378904,27.0033653 10.3867568,26.6830702 10.3026341,26.3645258 C10.2185092,26.0459879 10.0158821,25.7866631 9.69475123,25.5865494 L9.69475123,25.5865494 Z M11.852049,25.2906287 L8.14495967,22.7135759 L9.98196168,20.0710487 L10.4425164,20.3912119 L8.95192073,22.5354347 L10.0592657,23.3052251 L11.4361425,21.3245883 L11.8690138,21.625506 L10.4921369,23.606144 L11.7353835,24.470409 L13.2557214,22.2834035 L13.718793,22.605317 L11.852049,25.2906287 Z M13.2502429,20.2044446 L14.1515242,19.1241887 L12.1740546,18.3844622 L13.2502429,20.2044446 Z M13.854101,22.4087433 L11.4614731,18.2290326 L11.8954233,17.7089094 L16.4401301,19.3091854 L16.0140342,19.8198946 L14.6721769,19.3230673 L13.5333031,20.6880966 L14.2605611,21.9215697 L13.854101,22.4087433 Z M16.7586398,18.9780964 L13.5765031,15.7753304 L14.0526781,15.3022224 L17.8601386,16.1424462 C17.9438838,16.1600586 18.0204015,16.1790895 18.0896918,16.1995386 C18.1589786,16.2199941 18.2203135,16.2425881 18.2736963,16.2673206 L15.6942861,13.6711882 L16.1095802,13.2585692 L19.2917169,16.4613352 L18.8198905,16.9301225 L14.9474106,16.0896886 C14.8882143,16.0764966 14.8293882,16.0600515 14.7709322,16.0403533 C14.7124795,16.0206618 14.6529519,15.9977125 14.5923494,15.9715052 L17.1717596,18.5676377 L16.7586398,18.9780964 Z M20.0377787,15.8359634 L17.0780566,12.4266014 L17.5409706,12.0247383 L20.5006928,15.4341004 L20.0377787,15.8359634 Z M22.7465165,11.5279536 L23.2205635,11.1689913 C23.5312079,11.6232395 23.6460323,12.0854362 23.5650367,12.5555831 C23.4840346,13.0257348 23.2236167,13.4273383 22.7837828,13.7603944 C22.277154,14.1440286 21.7493213,14.2720286 21.2002885,14.144395 C20.6512532,14.0167633 20.1454458,13.6475044 19.6828648,13.0366177 C19.256059,12.4729766 19.0678272,11.9112985 19.1181687,11.3515819 C19.1685137,10.7918726 19.4494424,10.3183494 19.9609558,9.93101077 C20.3682133,9.62262937 20.7813202,9.475133 21.2002778,9.48852125 C21.619233,9.50192059 21.986616,9.67483466 22.3024231,10.0072639 L21.8234888,10.3699267 C21.5977772,10.166633 21.3509828,10.0658055 21.0831018,10.0674442 C20.8152205,10.069093 20.5444417,10.1735328 20.2707647,10.380764 C19.9058634,10.657083 19.7196533,10.9992902 19.7121343,11.4073866 C19.7046174,11.8154903 19.8772554,12.2524911 20.2300491,12.7183904 C20.5631071,13.1582298 20.9348348,13.4316588 21.3452331,13.5386778 C21.7556306,13.6456998 22.1335055,13.5684543 22.4788605,13.3069409 C22.7737136,13.0836707 22.9458296,12.8091647 22.9952105,12.483422 C23.0445851,12.1576847 22.9616892,11.8391954 22.7465165,11.5279536 L22.7465165,11.5279536 Z M26.060528,9.15991987 L27.2834242,8.46437215 L25.6909929,7.07810356 L26.060528,9.15991987 Z M25.8529499,11.4359888 L25.0781847,6.68263334 L25.6669856,6.34773999 L29.3617823,9.44026656 L28.7836377,9.76909853 L27.7012557,8.83321918 L26.1559848,9.71212488 L26.4044525,11.1223104 L25.8529499,11.4359888 Z M29.7762424,9.24194547 L27.9232928,5.12487396 L28.5354027,4.84938444 L31.8043804,6.97459549 C31.8765858,7.02052674 31.9415274,7.06524461 31.9992055,7.1087493 C32.0568771,7.15225869 32.106352,7.19497446 32.1476302,7.23689639 L30.6456466,3.89963687 L31.1794961,3.65936951 L33.0324478,7.77644102 L32.4259276,8.04941473 L29.0961546,5.90114742 C29.0453773,5.86798523 28.9960881,5.83190796 28.9482893,5.79291541 C28.9004905,5.75393011 28.8528326,5.71151732 28.8053134,5.6656766 L30.3072991,9.00293612 L29.7762424,9.24194547 Z M34.2406138,3.11140804 L33.2409034,3.44651596 L34.3348749,6.7101046 L35.3345852,6.37499688 C35.7627528,6.23147333 36.0397051,5.98400806 36.1654442,5.63260023 C36.2911748,5.28119625 36.262797,4.83328588 36.0803086,4.28886721 C35.9056092,3.76770422 35.6604253,3.40593809 35.3447548,3.20356732 C35.02908,3.00120531 34.661033,2.97048569 34.2406138,3.11140804 L34.2406138,3.11140804 Z M33.9289958,7.42803901 L32.4940719,3.14730339 L34.1244122,2.60080469 C34.7211366,2.40078426 35.2376318,2.42592311 35.6738978,2.67622146 C36.1101597,2.92652942 36.4409681,3.38782355 36.6663253,4.06010492 C36.8994693,4.75564261 36.9166271,5.35170674 36.7177987,5.84829946 C36.5189639,6.34489559 36.1250606,6.69190658 35.5360868,6.8893337 L33.9289958,7.42803901 Z M40.2527093,3.6605799 L41.6338218,3.39264614 L40.568352,1.56991345 L40.2527093,3.6605799 Z M39.3281358,5.75073427 L40.1141979,0.999233599 L40.7791776,0.870228405 L43.2909364,4.98195656 L42.6379924,5.10862679 L41.911752,3.87574684 L40.1665552,4.21431259 L39.9509918,5.62990123 L39.3281358,5.75073427 Z M44.7452557,4.83519339 L44.318145,0.892071558 L42.9011796,1.04555391 L42.8420988,0.500098898 L46.2885195,0.12679018 L46.3476025,0.672245197 L44.9306392,0.825727573 L45.3577499,4.76884937 L44.7452557,4.83519339 Z M47.8362202,0.711758826 L47.8818412,4.55813713 L47.3179101,4.56482581 L47.2643636,0.0503117674 L48.1409098,0.0399150984 L49.3005446,3.480725 C49.3343989,3.57841317 49.3593093,3.65423861 49.3752779,3.70820153 C49.3912421,3.76216615 49.4035532,3.80953178 49.4122132,3.85029861 C49.4276608,3.77450606 49.4432066,3.70688587 49.4588527,3.64743741 C49.4744924,3.58799088 49.4911933,3.53159606 49.5089553,3.47825297 L50.6264963,0.0104336358 L51.5061064,6.16427058e-07 L51.559653,4.51451479 L50.9650745,4.52156708 L50.9194513,0.675188732 C50.9059211,0.740745521 50.8903561,0.806833463 50.8727585,0.87345275 C50.8551544,0.940079425 50.8365255,1.00620373 50.8168718,1.07182583 L49.6962285,4.53661666 L49.1169737,4.54348725 L47.9420493,1.10592399 C47.9209373,1.04895947 47.9018216,0.987880761 47.8847001,0.922687732 C47.8675786,0.857502004 47.8514179,0.787192426 47.8362202,0.711758826 L47.8362202,0.711758826 Z M53.1871237,2.36608543 C53.130573,2.94158968 53.2190522,3.40455709 53.4525634,3.75498875 C53.6860725,4.1054219 54.0377047,4.30371779 54.5074644,4.34987665 C54.9751829,4.3958363 55.3566555,4.26957686 55.6518779,3.97109792 C55.947094,3.67262004 56.1229806,3.23562993 56.1795334,2.66012589 C56.2362805,2.08259194 56.1488667,1.61921616 55.9172942,1.2699971 C55.6857131,0.920784554 55.3360644,0.723196961 54.8683459,0.677233746 C54.3985863,0.631078391 54.0151302,0.756629673 53.7179797,1.05388793 C53.4208228,1.35115313 53.2438729,1.78855187 53.1871237,2.36608543 L53.1871237,2.36608543 Z M52.5556973,2.30404024 C52.6286329,1.56178701 52.874246,1.00024291 53.2925386,0.619406247 C53.7108292,0.238577397 54.2534838,0.0809320532 54.9204983,0.146469742 C55.5854758,0.21181635 56.0850801,0.471362758 56.4193154,0.925109786 C56.7535422,1.37886399 56.8840917,1.97788381 56.8109597,2.72217108 C56.7380199,3.46442831 56.4934232,4.02607224 56.0771674,4.4071048 C55.6609052,4.78813736 55.1202875,4.94598263 54.4553099,4.88064083 C53.7882933,4.81509832 53.2867055,4.55484371 52.9505422,4.09987593 C52.6143746,3.64490922 52.4827618,3.04629789 52.5556973,2.30404024 L52.5556973,2.30404024 Z M57.4417712,3.6079303 L58.021959,3.72335252 C57.9641785,4.04520544 58.020063,4.3219583 58.1896126,4.55361197 C58.35916,4.78526648 58.617287,4.93558056 58.9639999,5.00455463 C59.3066967,5.07273144 59.5911026,5.05430795 59.8172157,4.94928416 C60.0433223,4.8442608 60.1810949,4.66749478 60.2305378,4.41898629 C60.2979135,4.08029436 59.978387,3.74900936 59.2719583,3.42513043 C59.2298603,3.40634013 59.1973851,3.39154613 59.174533,3.38074778 C58.6016088,3.1188502 58.2358934,2.88098441 58.0773845,2.66714957 C57.9188756,2.45331943 57.8717152,2.18507329 57.9359053,1.86241046 C58.0144477,1.46760645 58.2218358,1.17916404 58.5580717,0.997082363 C58.8943033,0.815008737 59.3019097,0.771613873 59.7808931,0.866897646 C60.2698901,0.964183196 60.6296572,1.16648961 60.8601984,1.47381748 C61.0907333,1.78115242 61.1643478,2.1546654 61.0810463,2.59435771 L60.5062752,2.48313781 C60.5452368,2.18254702 60.4897836,1.93504764 60.3399113,1.74063885 C60.1900347,1.54623659 59.9577768,1.41773633 59.6431354,1.35513768 C59.34853,1.29653328 59.1001904,1.31431884 58.8981166,1.40849442 C58.6960386,1.5026772 58.5736708,1.65698599 58.5310112,1.87142127 C58.4628327,2.21412496 58.776746,2.54220985 59.4727489,2.85567646 C59.5757853,2.90326136 59.6549682,2.93984828 59.7102976,2.965437 C59.7219212,2.96983534 59.7419678,2.97903192 59.7704374,2.99302654 C60.2246833,3.20215131 60.516812,3.38839704 60.6468213,3.55176415 C60.7451242,3.67549347 60.8110886,3.81518364 60.8447124,3.97083508 C60.8783298,4.12648866 60.8775975,4.2924952 60.8425154,4.46885513 C60.757589,4.89572841 60.5371981,5.20502236 60.1813426,5.39673826 C59.8254786,5.5884533 59.3870155,5.63248067 58.8659511,5.52882058 C58.328852,5.4219702 57.9375088,5.20296518 57.6919192,4.87180487 C57.4463297,4.54064519 57.362947,4.11935396 57.4417712,3.6079303 L57.4417712,3.6079303 Z M62.6058307,3.76559131 L63.5940264,4.05555712 C63.9371459,4.15624128 64.192952,4.17167561 64.3614425,4.10185988 C64.5299267,4.03204736 64.6532915,3.8638124 64.7315414,3.59715458 C64.8069046,3.34030441 64.7933423,3.13614955 64.6908503,2.98468891 C64.588352,2.83323383 64.3792686,2.71119103 64.0635981,2.61855989 L63.0312867,2.31564929 L62.6058307,3.76559131 Z M61.3280856,5.94289854 L62.5992759,1.61071882 L64.1933299,2.07846139 C64.4521401,2.15440855 64.6454514,2.22497348 64.7732637,2.29015686 C64.9010696,2.35534729 65.0092837,2.43288509 65.0979059,2.52277069 C65.2461726,2.67062789 65.3397505,2.85247677 65.3786373,3.06831734 C65.4175157,3.28416346 65.3998476,3.5185505 65.3256352,3.77147932 C65.2548647,4.01264791 65.1453845,4.21157644 64.9971946,4.36826533 C64.8489962,4.52495722 64.668596,4.63173692 64.4559961,4.68860509 C64.3336647,4.72085623 64.1985225,4.72964821 64.0505697,4.71498061 C63.9026083,4.70031514 63.6678523,4.64580499 63.3462996,4.55144973 L62.4522177,4.28909972 L61.9162972,6.11549725 L61.3280856,5.94289854 Z M65.1204079,7.08933085 L66.7942384,2.89624152 L67.3635649,3.12350987 L66.6760789,4.84572229 L68.8509058,5.71388687 L69.5383917,3.99167445 L70.1105644,4.22007911 L68.4367339,8.41316823 L67.8645613,8.18476357 L68.6486356,6.22058744 L66.4738087,5.35242286 L65.6897344,7.31659899 L65.1204079,7.08933085 Z M69.3120972,8.82567816 L71.3748262,4.80960424 L74.2376088,6.27998209 L73.9813436,6.77892408 L71.6583995,5.5858175 L71.0422414,6.78545945 L73.1879645,7.88754263 L72.9471021,8.3564935 L70.801379,7.25441032 L70.1096014,8.60128111 L72.4788946,9.81819381 L72.2212289,10.3198621 L69.3120972,8.82567816 Z M75.5006195,7.64924107 L74.6820993,8.94125006 L75.5676045,9.50223937 C75.8869345,9.70454608 76.145433,9.79574328 76.3430978,9.77583098 C76.5407561,9.75592017 76.7161345,9.62513535 76.8692352,9.38347611 C77.0124865,9.15735432 77.0514972,8.95831967 76.9862737,8.78637175 C76.9210395,8.61442724 76.7209898,8.42238018 76.3861246,8.21023038 L75.5006195,7.64924107 Z M75.2769106,6.87980745 L76.7553417,7.81642982 C76.995271,7.96843512 77.1652049,8.09060709 77.2651497,8.18294552 C77.3650838,8.27528842 77.4446233,8.37405696 77.5037681,8.47925092 C77.6085212,8.66898521 77.6530042,8.86890871 77.6372128,9.07902204 C77.621413,9.28913794 77.5462612,9.50035235 77.4117617,9.7126655 C77.2816242,9.9180756 77.1263394,10.0658239 76.9459072,10.1559106 C76.7654643,10.245998 76.5618319,10.2772448 76.3350078,10.2496508 C76.4572048,10.3851228 76.5186427,10.5220106 76.5193174,10.6603147 C76.5199857,10.7986183 76.4537267,10.9900679 76.3205445,11.2346643 L75.9659637,11.8917244 C75.8892938,12.0318288 75.8432885,12.1435846 75.8279434,12.2269922 C75.8125941,12.3103965 75.822928,12.3828582 75.8589453,12.4443784 L75.7916913,12.5505353 L75.1935877,12.1716216 C75.1955563,12.0615987 75.2696106,11.8702509 75.4157508,11.5975774 C75.4201235,11.5906718 75.423403,11.5854935 75.4255937,11.5820423 L75.7094637,11.0652328 C75.8540452,10.7988295 75.9046517,10.5986745 75.8612854,10.4647669 C75.8179148,10.3308593 75.6132597,10.1479898 75.2473222,9.91615762 L74.4084245,9.38469419 L73.3733822,11.0184772 L72.8607217,10.693694 L75.2769106,6.87980745 Z M76.3526183,12.991391 L79.0064541,9.33887674 L79.5023839,9.69920743 L76.848548,13.3517217 L76.3526183,12.991391 Z M81.1605383,14.6586479 L81.6171755,15.0395105 C81.2447025,15.4446099 80.8203183,15.6607285 80.3440166,15.6878671 C79.8677107,15.7150016 79.417718,15.5518813 78.9940341,15.1985058 C78.5060107,14.791466 78.2622509,14.3061095 78.262754,13.7424349 C78.2632566,13.17876 78.5089081,12.6026972 78.9997114,12.014245 C79.4525567,11.4713028 79.9573023,11.1612291 80.5139484,11.0840227 C81.0705902,11.0068216 81.5952757,11.173702 82.0880113,11.5846644 C82.4803068,11.9118677 82.717183,12.2810589 82.7986398,12.6922393 C82.8800859,13.1034214 82.7944955,13.5003382 82.5418665,13.8829906 L82.0805213,13.4982018 C82.227665,13.2324518 82.2702264,12.9692734 82.2082055,12.7086658 C82.1461761,12.4480598 81.9833501,12.207817 81.7197294,11.9879361 C81.3682232,11.6947655 80.9928335,11.5905432 80.5935583,11.6752685 C80.1942767,11.7599978 79.807477,12.0267572 79.4331613,12.4755479 C79.0797825,12.8992335 78.8972472,13.3230563 78.8855574,13.7470177 C78.8738613,14.1709789 79.0343515,14.5216928 79.3670239,14.7991605 C79.6510477,15.0360529 79.9573023,15.1418155 80.2857878,15.1164488 C80.6142689,15.0910789 80.905851,14.9384788 81.1605383,14.6586479 L81.1605383,14.6586479 Z M84.2148877,17.3516461 L85.1689877,18.3855494 L86.1591883,16.5208562 L84.2148877,17.3516461 Z M81.9508472,17.6642072 L86.4058177,15.8344855 L86.8651985,16.3322909 L84.6884244,20.6307668 L84.2373577,20.1419713 L84.9041949,18.8759749 L83.6985804,17.5695173 L82.3811264,18.1304774 L81.9508472,17.6642072 Z M89.1632109,19.8938854 L88.5227338,19.056326 L85.7884916,21.1471879 L86.4289687,21.9847477 C86.7032799,22.3434686 87.0270296,22.5254786 87.4002158,22.5307823 C87.7733999,22.5360838 88.188048,22.3643393 88.6441642,22.0155553 C89.0807954,21.6816616 89.3437968,21.3326343 89.4331749,20.9684727 C89.5225423,20.6043108 89.4325536,20.2461152 89.1632109,19.8938854 L89.1632109,19.8938854 Z M84.9778628,20.9953684 L88.5642725,18.2528575 L89.6087733,19.6187612 C89.9910679,20.1187003 90.1343577,20.6155577 90.0386404,21.1093344 C89.9429125,21.6031107 89.61343,22.0653526 89.0501928,22.4960632 C88.4674684,22.941664 87.9090011,23.1507153 87.3747909,23.123215 C86.8405763,23.0957104 86.3848017,22.835237 86.007467,22.3417946 L84.9778628,20.9953684 Z M91.2302272,23.0237335 L87.9443586,25.0236773 L87.6511411,24.5419248 L91.5077816,22.1945784 L91.9635456,22.9433913 L89.5944659,25.6950069 C89.5276794,25.7739293 89.4751428,25.8340115 89.436858,25.8752576 C89.398569,25.9164995 89.3640954,25.9512379 89.3334373,25.9794684 C89.406518,25.9541224 89.4726169,25.9330275 89.5317383,25.9161835 C89.5908532,25.8993375 89.6478843,25.8849575 89.7028294,25.8730478 L93.2559397,25.0667683 L93.7132986,25.8181967 L89.8566581,28.165543 L89.5475018,27.6576075 L92.8333704,25.6576637 C92.7700728,25.6794398 92.7052827,25.6997383 92.638998,25.7185572 C92.5727027,25.737374 92.5063198,25.7550549 92.4398451,25.7715978 L88.8877596,26.5736647 L88.5865737,26.0788217 L90.9450654,23.3157064 C90.9833117,23.2685054 91.0261144,23.2209243 91.0734734,23.1729632 C91.120826,23.1250042 91.1730766,23.0752603 91.2302272,23.0237335 L91.2302272,23.0237335 Z M90.2757472,29.0559269 L94.2981666,27.0055986 L94.5765537,27.5517527 L90.5541342,29.602081 L90.2757472,29.0559269 Z M91.0182038,30.4752687 L95.1707138,28.7031609 L95.4341849,29.3205404 L93.2454713,32.5473452 C93.1981357,32.6186389 93.1521582,32.6826945 93.1075342,32.7395099 C93.0629039,32.7963189 93.0192301,32.8449505 92.9765086,32.8854024 L96.3424952,31.4489477 L96.5722785,31.987394 L92.4197686,33.7595017 L92.1587058,33.147759 L94.3716595,29.8606243 C94.4058085,29.8105025 94.4428421,29.7619286 94.4827624,29.7149027 C94.5226741,29.6678746 94.5660105,29.6210558 94.6127717,29.5744398 L91.246785,31.0108945 L91.0182038,30.4752687 Z M92.7238817,34.684325 L96.9874732,33.1992388 L97.1891156,33.7781391 L92.925522,35.2632254 L92.7238817,34.684325 Z M94.6358822,35.5993289 L94.7948565,36.169123 C94.4815902,36.2628888 94.2598861,36.4377099 94.1297423,36.6935865 C93.9995984,36.949463 93.9820264,37.2476512 94.0770284,37.5881509 C94.1709287,37.9247113 94.3157792,38.1701579 94.5115821,38.3244904 C94.7073808,38.4788187 94.9273084,38.5219374 95.1713671,38.4538464 C95.5039925,38.3610415 95.6553167,37.9263597 95.6253397,37.1498031 C95.6230978,37.103755 95.6216353,37.0680986 95.620952,37.0428359 C95.595952,36.4133845 95.6430654,35.9796699 95.7622946,35.7416899 C95.8815194,35.5037078 96.0995724,35.3405123 96.4164556,35.2521014 C96.8041884,35.1439237 97.1551929,35.1987321 97.4694734,35.416531 C97.7837433,35.634332 98.006502,35.9784315 98.1377519,36.4488317 C98.2717347,36.9290727 98.2536652,37.3414255 98.0835392,37.6858922 C97.9134024,38.0303547 97.6133696,38.2646837 97.1834362,38.3888834 L97.0231552,37.8258171 C97.3089554,37.7248624 97.504752,37.5636334 97.6105469,37.34213 C97.7163334,37.1206246 97.7261229,36.8553706 97.6399133,36.5463638 C97.5591846,36.2570364 97.4311887,36.0434821 97.2559191,35.905701 C97.0806432,35.7679177 96.8877077,35.7284052 96.6771127,35.7871636 C96.340548,35.8810639 96.1895441,36.3092912 96.2241031,37.0718457 C96.2281662,37.1852652 96.2312749,37.2724377 96.233425,37.3333611 C96.2347487,37.345717 96.2355943,37.3677557 96.2359615,37.3994771 C96.2544644,37.8992074 96.220183,38.243956 96.1331172,38.4337208 C96.0671037,38.5772988 95.9722469,38.6992289 95.8485447,38.7995089 C95.7248404,38.8997825 95.5763879,38.9740824 95.4031873,39.0224107 C94.9839594,39.1393723 94.608478,39.0823754 94.2767429,38.85142 C93.9450057,38.6204559 93.7077495,38.2491102 93.5649743,37.7373806 C93.417805,37.2099002 93.4365193,36.7618354 93.621115,36.3931821 C93.8057107,36.0245266 94.1439664,35.7599088 94.6358822,35.5993289 L94.6358822,35.5993289 Z M94.4866632,41.1010591 L98.383493,40.3625845 L98.1181216,38.9622538 L98.6571722,38.8601013 L99.3026241,42.2660638 L98.7635736,42.3682162 L98.4982021,40.9678877 L94.6013723,41.7063624 L94.4866632,41.1010591 Z M98.9642104,43.8392918 L97.4426542,43.9946087 L97.5491026,45.0374399 C97.5874877,45.4135085 97.6756039,45.6730724 97.8134491,45.8161337 C97.9512879,45.9591907 98.1625064,46.0161962 98.4471024,45.9871479 C98.7133962,45.9599615 98.8939608,45.8675879 98.9887963,45.7100227 C99.0836253,45.5524512 99.1109121,45.2764853 99.0706609,44.882123 L98.9642104,43.8392918 Z M99.4307183,43.1877997 L99.6084453,44.9288991 C99.6372843,45.2114582 99.6463052,45.4205586 99.6355079,45.5562004 C99.6246999,45.6918358 99.5962346,45.8154142 99.5501118,45.9269313 C99.465732,46.1265625 99.3360835,46.2851162 99.1611663,46.4025945 C98.9862405,46.5200643 98.7737623,46.5915629 98.5237296,46.6170904 C98.2818231,46.6417787 98.0696929,46.6110565 97.8873412,46.5249217 C97.7049831,46.4387783 97.5545386,46.2980315 97.4360098,46.1026812 C97.4050634,46.2824793 97.3354458,46.4153945 97.2271506,46.5014226 C97.1188532,46.5874443 96.9274081,46.653714 96.6528151,46.7002339 L95.9171481,46.8277046 C95.7596257,46.8540519 95.6433409,46.8869754 95.5682958,46.9264751 C95.4932486,46.9659683 95.4426784,47.0188872 95.4165873,47.0852273 L95.2915677,47.0979889 L95.2196677,46.3936206 C95.3073676,46.3271545 95.5035527,46.2670744 95.8082252,46.2133848 C95.8163557,46.21255 95.8224536,46.2119287 95.8265189,46.2115166 L96.4082333,46.1151652 C96.7070129,46.0641231 96.8956269,45.9801682 96.9740732,45.8633027 C97.0525173,45.7464307 97.0697456,45.4725188 97.0257558,45.041567 L96.92491,44.0536212 L95.0008546,44.2500241 L94.9392266,43.6462795 L99.4307183,43.1877997 Z M97.2008695,48.5781196 L97.2184991,49.9848705 L99.2018744,49.261126 L97.2008695,48.5781196 Z M95.3088387,47.2960103 L99.8443265,48.9158928 L99.8528136,49.5932177 L95.3594217,51.3323763 L95.3510883,50.6673112 L96.693615,50.1722995 L96.6713394,48.3947067 L95.3167898,47.9304279 L95.3088387,47.2960103 Z M95.2474242,52.7896612 L99.2039177,53.0667822 L99.3035017,51.6450128 L99.8508066,51.6833488 L99.6085905,55.1414572 L99.0612856,55.1031233 L99.1608716,53.6813539 L95.2043781,53.4042308 L95.2474242,52.7896612 Z M95.0100271,55.3746139 L99.4884795,55.9466093 L99.4108147,56.5546818 L94.9323644,55.9826864 L95.0100271,55.3746139 Z M96.951426,57.8472638 C96.384525,57.733127 95.9150066,57.7746059 95.5428709,57.9716941 C95.170733,58.1687803 94.9380843,58.498692 94.8449207,58.9614292 C94.7521627,59.4221552 94.8394228,59.8143909 95.1067009,60.1381321 C95.3739811,60.4618648 95.7910695,60.6808017 96.3579706,60.7949386 C96.92687,60.9094726 97.3966873,60.8690976 97.7674224,60.6738156 C98.1381511,60.478523 98.3698966,60.1505158 98.4626589,59.6897877 C98.5558182,59.2270504 98.4694613,58.8329145 98.2035903,58.5073776 C97.9377129,58.1818365 97.5203255,57.9617979 96.951426,57.8472638 L96.951426,57.8472638 Z M97.0766505,57.2252768 C97.8078082,57.3724803 98.341807,57.673316 98.6786515,58.1277839 C99.0154873,58.5822497 99.1177679,59.1380054 98.985489,59.7950489 C98.853605,60.4500854 98.5451363,60.9210578 98.0600806,61.2079725 C97.5750165,61.4948766 96.9659064,61.5645283 96.232746,61.4169256 C95.5015841,61.2697158 94.9673824,60.9698815 94.6301387,60.5174227 C94.292895,60.0649532 94.190213,59.5112023 94.3220906,58.8561659 C94.4543739,58.1991224 94.7637479,57.7262476 95.2502127,57.4375373 C95.7366775,57.1488248 96.3454887,57.0780713 97.0766505,57.2252768 L97.0766505,57.2252768 Z M93.8149131,61.7161279 L98.12429,63.0625939 L97.9241015,63.7032952 L94.1648329,64.7380086 C94.0825541,64.7615355 94.0060038,64.7804334 93.935182,64.7947002 C93.8643602,64.8089628 93.7995723,64.8176207 93.7408181,64.8206739 L97.2339573,65.9121088 L97.0593646,66.4708943 L92.7499877,65.1244262 L92.9483464,64.4895751 L96.7652119,63.4246903 C96.8237183,63.4087175 96.8834162,63.3957937 96.9443075,63.3859188 C97.0051925,63.3760417 97.0685478,63.3685411 97.1343755,63.3634211 L93.6412342,62.2719861 L93.8149131,61.7161279 Z" id="text4662" fill="#263F78" fill-rule="nonzero"></path>
            <path d="M7.58494206,72.9626521 L9.99331132,71.5315822 L10.3064553,72.0585779 L7.89281594,73.4927779 C7.52918756,73.7088474 7.30817446,73.9489176 7.22977621,74.2129888 C7.1513754,74.4770599 7.21238163,74.7777333 7.41279514,75.1150112 C7.61111794,75.4487725 7.84735014,75.645327 8.12149197,75.7046725 C8.39562953,75.7640138 8.71187777,75.6872179 9.07023753,75.4742807 L11.4838769,74.0400807 L11.7985866,74.5697133 L9.39021731,76.0007811 C8.87024529,76.3097473 8.39716511,76.4096152 7.97097506,76.3003891 C7.54478074,76.1911565 7.17720048,75.8765579 6.86823299,75.356591 C6.58013967,74.8717531 6.49581925,74.4298418 6.61527151,74.0308527 C6.73472206,73.6318615 7.05794529,73.2757946 7.58494206,72.9626521 L7.58494206,72.9626521 Z M8.58537963,77.8336478 L9.14908715,77.4471021 L9.50443149,77.9653097 L8.94072397,78.3518532 L8.58537963,77.8336478 Z M10.658282,78.2571971 L11.0218656,78.723831 C10.7677347,78.9296091 10.6290997,79.1755681 10.6059604,79.4617056 C10.5828185,79.7478432 10.6798837,80.0303382 10.897156,80.3091908 C11.1119132,80.584815 11.3391726,80.7568007 11.5789346,80.8251458 C11.8186921,80.8934866 12.038507,80.8497936 12.2383801,80.6940625 C12.5107807,80.4818149 12.4855627,80.0222376 12.1627257,79.3153328 C12.1431522,79.2735913 12.1282493,79.2411674 12.118017,79.2180569 C11.8556858,78.6453313 11.7344432,78.2262507 11.7542885,77.9608131 C11.774129,77.6953798 11.9138049,77.4615611 12.1733165,77.2593614 C12.4908492,77.0119506 12.83635,76.9292575 13.2098204,77.0112823 C13.5832827,77.0933113 13.920096,77.3269421 14.220261,77.7121746 C14.5266958,78.1054672 14.6666847,78.4937509 14.6402283,78.8770276 C14.6137612,79.2603023 14.4252879,79.5910723 14.0748082,79.8693398 L13.7125747,79.4094273 C13.9385658,79.2074347 14.0584024,78.9838945 14.0720848,78.7388045 C14.0857577,78.4937167 13.9940083,78.2446405 13.7968364,77.991578 C13.6122146,77.7546357 13.4126639,77.6057455 13.198184,77.5449075 C12.9836963,77.4840717 12.79022,77.5208426 12.6177547,77.6552225 C12.3421243,77.8699832 12.3651865,78.323469 12.6869417,79.0156799 C12.7338028,79.1190452 12.769804,79.1984971 12.7949456,79.2540315 C12.8008657,79.264959 12.810023,79.2850227 12.8224178,79.3142246 C13.0294426,79.7694335 13.1287458,80.1013436 13.1203273,80.3099594 C13.1138288,80.4678512 13.0724242,80.6166816 12.9961131,80.7564484 C12.9197946,80.896211 12.8107156,81.0213523 12.6688756,81.1318744 C12.325547,81.3993788 11.9565753,81.4893483 11.5619589,81.4017872 C11.1673381,81.3142197 10.8067618,81.0608967 10.480229,80.6418162 C10.1436465,80.2098374 9.99068064,79.7882759 10.0213307,79.3771294 C10.0519792,78.9659808 10.2642962,78.5926708 10.658282,78.2571971 L10.658282,78.2571971 Z M12.3037133,82.6677572 L12.8163886,82.2157104 L13.2319483,82.6870031 L12.7192731,83.139052 L12.3037133,82.6677572 Z M18.7493414,83.5868797 L17.9752355,82.8710053 L15.6382352,85.3981006 L16.4123411,86.1139772 C16.7438843,86.4205798 17.0939608,86.5446301 17.4625724,86.4861236 C17.8311777,86.4276129 18.210405,86.1875811 18.6002556,85.7660238 C18.9734497,85.3624677 19.1729829,84.9736524 19.1988561,84.599578 C19.2247193,84.2255035 19.0748814,83.8879374 18.7493414,83.5868797 L18.7493414,83.5868797 Z M14.8135875,85.386951 L17.8789494,82.0722456 L19.1413723,83.2397056 C19.6034304,83.6670127 19.829467,84.1321008 19.8194823,84.6349696 C19.8094872,85.1378407 19.5637864,85.6495596 19.0823793,86.1701329 C18.5843144,86.7087052 18.0697536,87.0100576 17.538695,87.0741943 C17.0076302,87.1383268 16.5140683,86.9595151 16.058008,86.5377614 L14.8135875,85.386951 Z M18.2324326,88.4685787 L20.9970948,84.8992159 L23.5414458,86.8699513 L23.1979739,87.3133956 L21.1334156,85.7142835 L20.3075831,86.7804899 L22.2146335,88.2576036 L21.8918083,88.6743932 L19.9847576,87.1972773 L19.0575729,88.3943343 L21.163327,90.0253536 L20.8179789,90.4712213 L18.2324326,88.4685787 Z M23.4095831,89.2669369 L24.2731222,89.8281073 C24.5729587,90.022958 24.8135948,90.111102 24.9950305,90.092535 C25.1764577,90.0739723 25.3428857,89.9481798 25.4943167,89.7151597 C25.6401728,89.4907099 25.6857234,89.291241 25.6309726,89.1167508 C25.5762112,88.9422627 25.4109062,88.7653876 25.1350578,88.5861232 L24.2329671,87.9998994 L23.4095831,89.2669369 Z M21.5611237,90.986382 L24.0212533,87.2006893 L25.4142242,88.1059101 C25.6403842,88.2528872 25.8053411,88.3759232 25.9090928,88.4750225 C26.012836,88.5741239 26.0942693,88.6794385 26.1533928,88.790962 C26.2530344,88.9751285 26.2905313,89.1761753 26.2658899,89.3941002 C26.2412357,89.6120315 26.1570972,89.8315064 26.013468,90.0525315 C25.8765109,90.2632759 25.7145838,90.4224531 25.5276843,90.5300651 C25.3407741,90.6376771 25.1373317,90.6882409 24.9173529,90.6817522 C24.7909113,90.6775696 24.6589227,90.6472381 24.5213892,90.5907579 C24.3838493,90.5342777 24.1745845,90.4147368 23.8935947,90.2321331 L23.1122982,89.7244069 L22.0751336,91.3204124 L21.5611237,90.986382 Z M26.6401714,91.9232815 L27.8792795,92.5895188 L28.2072482,90.503848 L26.6401714,91.9232815 Z M24.6018318,92.9570876 L28.2165595,89.7745736 L28.8131664,90.0953534 L28.1571819,94.8687102 L27.5713723,94.5537336 L27.7888958,93.1394841 L26.2231385,92.2976165 L25.1606472,93.2575475 L24.6018318,92.9570876 Z M30.8632,91.7073829 L30.2563851,93.1113198 L31.2186007,93.5272126 C31.5655976,93.6771938 31.8351602,93.7269249 32.027295,93.6764017 C32.2194234,93.6258827 32.372238,93.4693253 32.4857407,93.2067317 C32.5919392,92.9610204 32.5994057,92.758336 32.5081402,92.5986785 C32.4168661,92.4390231 32.1892927,92.2805569 31.8254177,92.1232757 L30.8632,91.7073829 Z M30.5221323,90.9822997 L32.1286405,91.6766714 C32.3893552,91.7893628 32.576276,91.8835107 32.6894094,91.9591173 C32.8025321,92.0347303 32.8965135,92.1198723 32.9713536,92.2145455 C33.1044396,92.3856025 33.1795808,92.5761317 33.1967813,92.7861352 C33.2139732,92.996141 33.1727121,93.2164977 33.0730001,93.4472013 C32.9765206,93.6704084 32.8462016,93.8405836 32.6820411,93.957731 C32.5178742,94.0748784 32.3216144,94.1375269 32.0932616,94.1456767 C32.235108,94.2604157 32.3171584,94.3860352 32.3394148,94.5225374 C32.3616627,94.6590418 32.3261002,94.8584872 32.2327295,95.1208738 L31.985056,95.8252271 C31.9311935,95.975582 31.9031957,96.09315 31.9010606,96.177929 C31.8989169,96.2627081 31.9204346,96.3326694 31.9656137,96.3878131 L31.9157545,96.503167 L31.2658359,96.2222562 C31.2506061,96.1132735 31.293887,95.9127114 31.3956744,95.6205699 C31.3989134,95.6130671 31.4013453,95.6074389 31.4029701,95.6036896 L31.6026931,95.0489033 C31.7039168,94.7631991 31.722661,94.5575982 31.6589256,94.4321003 C31.5951839,94.3066046 31.3644932,94.1579216 30.9668556,93.986049 L30.0552807,93.5920454 L29.2879457,95.3673643 L28.7308726,95.1265831 L30.5221323,90.9822997 Z M33.6740992,97.1117049 L34.9463998,93.3551265 L33.5964707,92.8979235 L33.7724683,92.3782726 L37.0558452,93.4903071 L36.8798476,94.009958 L35.5299184,93.552755 L34.2576157,97.3093355 L33.6740992,97.1117049 Z M37.7262865,94.3697357 L36.8322815,98.1110544 L36.2837531,97.9799796 L37.3330537,93.5887765 L38.1856567,93.7925093 L38.4709444,97.4122523 C38.479944,97.5152482 38.4856063,97.5948602 38.4879293,97.6510885 C38.490248,97.7073168 38.4906345,97.7562537 38.4890887,97.7979012 C38.5225566,97.7281662 38.5541264,97.6663824 38.5838024,97.6125454 C38.6134698,97.5587106 38.6434234,97.5080934 38.6736609,97.4606938 L40.603353,94.3702311 L41.4589366,94.574677 L40.409636,98.9658801 L39.8312972,98.8276847 L40.7253044,95.086366 C40.6961899,95.1466425 40.6649745,95.206936 40.6316582,95.2672509 C40.5983333,95.32757 40.5641373,95.3871526 40.5290702,95.4459985 L38.5971106,98.5327675 L38.033677,98.3981335 L37.7327708,94.7778097 C37.7261925,94.7174159 37.7225522,94.6535182 37.7218519,94.586119 C37.7211473,94.5187262 37.7226269,94.4465978 37.7262865,94.3697357 L37.7262865,94.3697357 Z M41.5301918,99.1476873 L42.1535367,94.6760928 L45.3410256,95.1204318 L45.2635849,95.6759654 L42.6771632,95.315417 L42.4909641,96.6511262 L44.8800647,96.9841701 L44.8072786,97.5063106 L42.418178,97.1732688 L42.2091266,98.6729059 L44.8471541,99.0406497 L44.7692907,99.5992195 L41.5301918,99.1476873 Z M45.6636736,99.6847693 L45.8900599,95.1756181 L46.560465,95.2092761 L48.5021222,98.5905032 C48.5454715,98.6642885 48.5829065,98.7336841 48.6144272,98.7986898 C48.6459415,98.8636977 48.670521,98.9242624 48.6881656,98.9803882 L48.8716724,95.3253111 L49.4563632,95.3546668 L49.2299747,99.8638201 L48.5656953,99.8304675 L46.580424,96.4010188 C46.5503296,96.3483625 46.5228933,96.2937911 46.4981089,96.2373023 C46.4733245,96.18082 46.4502247,96.1213506 46.4288095,96.0588942 L46.2453027,99.7139713 L45.6636736,99.6847693 Z M51.3504928,99.8203449 L51.2194735,95.8563229 L49.794999,95.9034044 L49.776874,95.3550597 L53.2415627,95.2405427 L53.2596877,95.7888896 L51.8352132,95.835971 L51.9662324,99.799993 L51.3504928,99.8203449 Z M56.0486743,97.2267172 C56.1396174,97.7977966 56.3423872,98.2232996 56.6569859,98.5032239 C56.9715824,98.7831504 57.3619542,98.8859968 57.8281012,98.8117631 C58.2922263,98.7378518 58.6293226,98.5191583 58.8393945,98.1556783 C59.0494579,97.7922026 59.1090212,97.3249261 59.0180824,96.7538445 C58.9268147,96.1807517 58.7249715,95.7545847 58.4125571,95.4753436 C58.1001342,95.1961088 57.7118612,95.0934461 57.2477361,95.1673531 C56.7815891,95.2415911 56.4423939,95.460101 56.2301485,95.822887 C56.0179009,96.1856816 55.9574109,96.6536243 56.0486743,97.2267172 L56.0486743,97.2267172 Z M55.4221032,97.3264975 C55.3048085,96.5899509 55.4003079,95.984526 55.7085973,95.5102249 C56.0168888,95.0359303 56.5019765,94.7460777 57.1638624,94.6406691 C57.8237285,94.5355915 58.3727564,94.660246 58.8109484,95.0146283 C59.2491318,95.3690233 59.5270342,95.9154998 59.6446535,96.6540641 C59.7619439,97.3906172 59.6674544,97.9958798 59.361187,98.4698563 C59.0549089,98.943835 58.5718389,99.2333631 57.9119749,99.3384471 C57.2500869,99.4438514 56.6989601,99.3190154 56.2585946,98.9639371 C55.818227,98.6088609 55.5393979,98.0630484 55.4221032,97.3264975 L55.4221032,97.3264975 Z M60.9140909,98.6554214 L59.810204,94.2776204 L62.7495411,93.5364513 L62.8881827,94.0862756 L60.5432511,94.6775639 L60.8744909,95.9912004 L62.9222207,95.4748546 L63.0571152,96.0098207 L61.0093854,96.5261664 L61.5084965,98.5055384 L60.9140909,98.6554214 Z M68.7453692,94.3980175 L69.2996687,94.1827764 C69.4738707,94.7047866 69.4575776,95.1807531 69.2507874,95.61068 C69.0439907,96.0406091 68.6834465,96.3554276 68.1691526,96.5551336 C67.5767562,96.7851688 67.0340567,96.7635508 66.5410521,96.4902815 C66.0480474,96.2170145 65.6628576,95.7232305 65.3854868,95.0089275 C65.1295654,94.3498685 65.102537,93.7581062 65.3044036,93.2336384 C65.5062724,92.7091793 65.9062608,92.3308197 66.5043686,92.0985618 C66.9805678,91.9136522 67.4182836,91.8850672 67.8175183,92.0128048 C68.2167486,92.1405552 68.5226467,92.4075664 68.7352124,92.8138405 L68.1752014,93.0312999 C68.0138742,92.7739138 67.8041781,92.6092879 67.546113,92.5374199 C67.2880437,92.4655625 66.9990067,92.4917626 66.6789998,92.6160199 C66.2523246,92.7817091 65.9794269,93.0597503 65.8603109,93.4501499 C65.741195,93.8405537 65.7874074,94.3081419 65.9989504,94.8529124 C66.1986585,95.3672106 66.481177,95.7320784 66.8465103,95.9475137 C67.2118393,96.1629512 67.5964142,96.1922642 68.0002351,96.035457 C68.3450008,95.9015789 68.5857821,95.6847792 68.7225789,95.385058 C68.8593694,95.085339 68.8669661,94.7563262 68.7453692,94.3980175 L68.7453692,94.3980175 Z M70.0942585,93.1723734 C70.3548985,93.6885804 70.6776874,94.0320565 71.0626253,94.2027996 C71.4475611,94.3735469 71.8507051,94.3525438 72.2720617,94.1397923 C72.6915885,93.9279653 72.946011,93.6169494 73.0353293,93.2067445 C73.1246434,92.7965418 73.0389782,92.3333391 72.7783404,91.81713 C72.5167759,91.2991061 72.1946702,90.954714 71.812019,90.783956 C71.4293656,90.6132065 71.0282756,90.6337442 70.6087445,90.8455669 C70.1873922,91.0583226 69.9309136,91.3698019 69.839315,91.780011 C69.7477142,92.1902287 69.8326961,92.6543474 70.0942585,93.1723734 L70.0942585,93.1723734 Z M69.5278912,93.4583423 C69.1917301,92.7925683 69.098197,92.1868381 69.2472922,91.6411495 C69.3963895,91.0954672 69.7700796,90.6715827 70.3683668,90.3694916 C70.9648285,90.0683313 71.5257298,90.0197532 72.0510708,90.2237528 C72.5764075,90.4277631 73.0076198,90.8635659 73.3447076,91.5311611 C73.6808667,92.1969415 73.7753114,92.8022127 73.6280439,93.3469747 C73.4807679,93.8917409 73.1089011,94.3147052 72.5124416,94.6158697 C71.9141522,94.9179566 71.3511969,94.9670002 70.8235735,94.7630027 C70.2959479,94.5590073 69.8640546,94.1241205 69.5278912,93.4583423 L69.5278912,93.4583423 Z M73.5709231,89.5329254 L75.652185,92.7678992 L75.1778946,93.0730393 L72.7351043,89.276135 L73.4723171,88.8018404 L76.2821573,91.101563 C76.3627195,91.1663616 76.4240934,91.2173824 76.4662812,91.2546273 C76.5084668,91.2918765 76.5440527,91.3254726 76.5730391,91.3554176 C76.5458783,91.2829923 76.5231414,91.21744 76.5048307,91.1587585 C76.4865135,91.1000812 76.4707158,91.0434259 76.4574396,90.9887926 L75.5628069,87.4568946 L76.3025968,86.980941 L78.7453871,90.7778453 L78.2453195,91.0995709 L76.1640555,87.8645971 C76.187403,87.9273332 76.2093114,87.9915981 76.2297786,88.0573917 C76.2502416,88.123196 76.2695729,88.1891198 76.2877684,88.2551611 L77.1781651,91.7861388 L76.690985,92.0995717 L73.8699162,89.8107189 C73.8217758,89.7736619 73.7731421,89.7320591 73.7240152,89.6859086 C73.6748905,89.6397666 73.6238591,89.5887736 73.5709231,89.5329254 L73.5709231,89.5329254 Z M77.689758,86.7648246 L80.105189,89.7585516 L79.666269,90.1126862 L76.8312643,86.5989346 L77.5135,86.0484847 L80.5532623,88.0343794 C80.6402939,88.0901871 80.706775,88.1343477 80.7527056,88.1668655 C80.798634,88.1993876 80.8376106,88.2289845 80.8696352,88.2556543 C80.8348819,88.1865512 80.8052614,88.1238066 80.7807759,88.0674225 C80.7562862,88.0110405 80.7345187,87.9564007 80.7154713,87.9035032 L79.44809,84.4875975 L80.1327128,83.9352239 L82.9677175,87.4489755 L82.5049418,87.822356 L80.0895108,84.8286311 C80.1194366,84.8885061 80.1480941,84.9500594 80.1754834,85.0132866 C80.2028705,85.0765244 80.229141,85.1399993 80.2542991,85.2037154 L81.5173696,88.6191599 L81.0665228,88.9829196 L78.0167574,87.0090327 C77.9649296,86.9773391 77.912124,86.9411787 77.8583404,86.9005518 C77.8045611,86.859929 77.748367,86.8146881 77.689758,86.7648246 L77.689758,86.7648246 Z M83.7970648,86.6739241 L80.6416795,83.4447963 L82.943501,81.1955414 L83.3355147,81.5967169 L81.4677516,83.4218267 L82.4102964,84.3863995 L84.135566,82.7005291 L84.5040144,83.0775884 L82.7787448,84.7634588 L83.836968,85.8464109 L85.7419973,83.9848845 L86.1361525,84.3882506 L83.7970648,86.6739241 Z M84.1281914,80.6659942 L85.2856932,81.6657195 L85.9708753,80.8724023 C86.217968,80.586316 86.3462095,80.3440529 86.3556019,80.1456089 C86.3649921,79.9471733 86.2614368,79.7544578 86.0449361,79.5674643 C85.8423563,79.3925001 85.6512271,79.3246248 85.471555,79.3638383 C85.2918829,79.4030604 85.072489,79.572674 84.8133735,79.872677 L84.1281914,80.6659942 Z M83.3342144,80.7740461 L84.4781902,79.4495291 C84.663845,79.2345806 84.8096926,79.0844734 84.9157331,78.9992054 C85.0217758,78.9139459 85.1311727,78.8498071 85.2439239,78.8067845 C85.4470076,78.7310903 85.6512997,78.7165096 85.8568025,78.7630466 C86.0623074,78.8095943 86.2601643,78.915005 86.4503732,79.079285 C86.6343989,79.2382295 86.757689,79.4135652 86.8202458,79.60529 C86.8828004,79.7970234 86.883742,80.0030386 86.8230727,80.2233335 C86.9750502,80.1224002 87.1194887,80.0817753 87.2563859,80.1014568 C87.3932831,80.121149 87.5728997,80.2148549 87.7952358,80.3825811 L88.3929678,80.8299882 C88.5202634,80.9264378 88.6240343,80.9883882 88.7042763,81.0158372 C88.7845139,81.0432927 88.8577078,81.0437347 88.923858,81.0171632 L89.0189625,81.0993053 L88.5561633,81.6351425 C88.4476289,81.6170047 88.2692614,81.5155995 88.0210605,81.330927 C88.014873,81.325587 88.0102334,81.3215794 88.0071417,81.3189063 L87.537728,80.9620772 C87.2955012,80.7798707 87.1049699,80.7003611 86.9661404,80.7235506 C86.8273066,80.7467465 86.6163145,80.9222658 86.3331597,81.2501043 L85.6840375,82.0016693 L87.147732,83.2658501 L86.7510488,83.7251391 L83.3342144,80.7740461 Z M90.0311099,76.8749103 L90.3780811,76.3920154 C90.8089646,76.7343321 91.0551007,77.1420432 91.1164875,77.6151507 C91.1778699,78.0882625 91.0475958,78.5488411 90.7256673,78.9968845 C90.3548489,79.5129676 89.8883154,79.7910643 89.3260711,79.8311746 C88.7638247,79.8712892 88.1715585,79.6677827 87.5492725,79.2206532 C86.9751143,78.8081061 86.6294774,78.3270154 86.5123642,77.7773768 C86.3952574,77.2277467 86.5238981,76.6923985 86.8982907,76.1713341 C87.1963785,75.7564832 87.547541,75.4936206 87.9517846,75.3827483 C88.3560303,75.2718888 88.7580812,75.3286573 89.1579414,75.5530579 L88.8073938,76.0409298 C88.5317333,75.913316 88.2661718,75.8898276 88.0107095,75.9704645 C87.7552514,76.05111 87.5273641,76.2308227 87.3270497,76.5096027 C87.059968,76.8813178 86.9830633,77.2632409 87.0963376,77.6553741 C87.2096162,78.0475138 87.5035512,78.4140854 87.9781469,78.7550933 C88.4261924,79.0770261 88.8620656,79.2285489 89.2857665,79.2096638 C89.7094696,79.1907787 90.0477082,79.0054378 90.3004846,78.6536369 C90.5162979,78.3532837 90.599719,78.0402053 90.5507501,77.7143994 C90.5017769,77.3886021 90.3285657,77.1087717 90.0311099,76.8749103 L90.0311099,76.8749103 Z M92.2087892,76.6146247 L88.3248534,74.31272 L89.9657219,71.5441324 L90.4482474,71.8301119 L89.1167999,74.0766232 L90.2769706,74.7642244 L91.50684,72.6891032 L91.9603621,72.9578929 L90.7304927,75.0330163 L92.0330479,75.8050037 L93.3910605,73.5136679 L93.8762229,73.8012103 L92.2087892,76.6146247 Z" id="text4682" fill="#263F78" fill-rule="nonzero"></path>
        </g>
    </g>
</svg>